<svg xmlns:vectornator="http://vectornator.io" xmlns="http://www.w3.org/2000/svg" viewBox="0 0 184.78 220.19" fill-rule="evenodd" clip-rule="evenodd" stroke-linecap="round" stroke-linejoin="round"><g vectornator:layerName="Layer 1"><path d="M64.125 16.438c-1.508 4.354-2.5 8.929-2.844 13.625-.819 10.673.66 21.305 4.407 31.937.43-.342.913-.64 1.343-.938-3.919-10.29-5.65-20.667-5.219-31 .172-4.695.978-9.27 2.313-13.625zm57.094 2.343c.957 3.653 1.605 7.409 1.781 11.282.432 10.332-1.27 20.71-5.188 31 .419.29.862.576 1.282.906 3.739-10.623 5.204-21.242 4.344-31.907-.298-3.925-1.127-7.646-2.219-11.28zM51.25 177.688c-2.786 11.083-2.549 20.859.344 29.468-1.978-6.756-2.087-14.315-.094-22.718 5.514 14.388 18.221 24.328 38.25 29.75-9.69-2.732-17.828-6.975-24.375-12.782-7.409-6.618-12.058-14.497-14.125-23.718zm82.219 0c-2.025 9.221-6.716 17.1-14.125 23.718-6.489 5.794-14.652 10.018-24.313 12.75-.003.001.003.031 0 .032 20.03-5.423 32.749-15.363 38.219-29.75 2.178 9.186 2.002 17.411-.562 24.624 3.524-9.021 3.783-19.474.781-31.374z" fill="#ffa042"/><path d="M86.406 60.031c-1.378.128-2.79.37-4.125.625-3.877.854-7.58 2.275-11.156 4.282-.215.126-.483.352-.656.437-.344.171-.555.34-.813.469-1.375.858-2.676 2.013-4 3.062A91.616 91.616 0 0071.5 81c2.504 4.182 5.282 7.895 8.313 11.219l-.126-.438a35.832 35.832 0 01-.812-4.625c-.043-.256-.125-.513-.125-.812-1.076-9.564 1.54-18.37 7.656-26.313zm12.219 0c6.116 7.942 8.764 16.749 7.687 26.313 0 .299-.093.556-.093.812-.173 1.537-.487 3.045-.875 4.625l-.156.469A67.7 67.7 0 00113.531 81c2.233-3.852 4.168-7.907 5.844-12.125-1.317-1.043-2.602-2.178-3.969-3.031-.259-.128-.481-.298-.781-.469-.216-.085-.484-.31-.656-.438-3.618-2.006-7.311-3.427-11.188-4.28-1.335-.257-2.778-.498-4.156-.626zm-47.5 25.625C47.488 91.541 44.23 98.224 41.406 106c1.637.768 3.208 1.547 4.844 2.188a107.278 107.278 0 008.375 3.343c5.513 1.975 11.015 3.423 16.531 4.531-4.367-6.081-8.696-13.287-12.937-21.718-2.65-4.779-4.985-7.543-7.094-8.688zm82.813 0c-2.112 1.141-4.473 3.903-7.126 8.688-4.242 8.431-8.57 15.636-12.937 21.718 5.517-1.108 11.05-2.556 16.563-4.531 2.799-.982 5.575-2.106 8.374-3.343 1.593-.641 3.25-1.42 4.844-2.188-2.823-7.772-6.093-14.46-9.718-20.344zm-41.407 5.5c-3.317.042-6.55.427-9.781 1.281l-2.094.626c2.367 2.495 4.854 4.816 7.563 6.812a35.873 35.873 0 014.312-4.531 35.61 35.61 0 014.281 4.531c2.709-1.996 5.222-4.317 7.594-6.813-.694-.212-1.409-.422-2.125-.624-3.23-.855-6.434-1.24-9.75-1.282zm3.735-29.376a29.846 29.846 0 00-1.378-1.878c-.732 0-1.594.042-2.369.042-.775 0-1.594-.042-2.369-.042a29.78 29.78 0 00-1.379 1.878h7.495z" fill="#ff0a1c"/><path d="M102.296 88.807c.732-4.44.732-8.71-.043-12.852-.904-4.995-2.885-9.692-5.987-14.175h-7.494c-3.058 4.483-5.082 9.18-5.944 14.175-.818 4.142-.818 8.412-.086 12.852a42.037 42.037 0 019.778-1.281 42.03 42.03 0 019.776 1.28M92.52 50.978c-5.17.854-8.4 3.203-9.778 7.13 1.378-3.714 4.608-5.464 9.777-5.337 5.17-.127 8.399 1.623 9.777 5.337-1.378-3.927-4.608-6.276-9.777-7.13" fill="#ff0a1c"/><path d="M92.52 52.772c-5.17-.128-8.4 1.623-9.778 5.337a39.284 39.284 0 019.777-.47 39.174 39.174 0 019.777.47c-1.378-3.715-4.608-5.465-9.777-5.337M64.22 136.028c2.714 3.159 6.547 4.013 11.5 2.519-1.42-.769-3.273-1.409-5.513-1.964-2.326-.513-4.307-.726-5.986-.555" fill="#ff0a1c"/><path d="M75.635 147.982c-4.006.384-7.107-.213-9.476-1.836 2.757.342 5.513.043 8.313-.811 2.67-.854 5.427-2.263 8.14-4.184-10.035 3.33-18.65 1.921-25.757-4.355-.302-.214-.56-.47-.818-.726-.044.384-.044.811-.044 1.153-.559 7.984 1.465 13.108 5.988 15.285 4.695 2.263 9.217.726 13.654-4.526m9.519-2.476c.043.982.474 1.964 1.249 2.946 1.68 2.135 2.456 4.312 2.326 6.533-1.464-3.331-3.704-5.38-6.805-6.234-1.336-.342-2.542-.342-3.49-.086-1.335.384-2.368 1.366-3.014 2.989-.776 1.921-.56 3.672.646 5.166 1.292 1.665 3.273 2.477 6.03 2.519-.56-1.323-.56-2.775-.172-4.269l.042-.128c.044-.214.13-.342.216-.47.345-.341.905-.214 1.723.384.904.641 1.42 1.751 1.637 3.331.43 4.269 2.8 6.532 6.978 6.788 4.22-.256 6.547-2.519 7.02-6.788.172-1.58.689-2.69 1.593-3.331.818-.598 1.422-.725 1.723-.384.087.128.172.256.215.47l.043.128c.388 1.494.388 2.946-.171 4.269 2.756-.042 4.737-.854 6.03-2.519 1.206-1.494 1.421-3.245.645-5.166-.645-1.623-1.636-2.605-3.014-2.989-.949-.256-2.111-.256-3.49.086-3.101.854-5.34 2.903-6.805 6.234-.129-2.221.647-4.398 2.326-6.533.775-.982 1.206-1.964 1.292-2.946 0-.897-.388-1.666-.947-2.22-1.636-1.58-3.79-1.238-6.46 1.067-2.671-2.305-4.824-2.647-6.418-1.067-.603.554-.948 1.323-.948 2.22M20.89 118.992c.861-.427 1.68-.555 2.325-.47.69.128.991.47.991 1.068 0 .597-.302 1.238-.99 1.921-.646.726-1.465 1.281-2.326 1.708-.947.427-1.723.555-2.37.427-.645-.129-.99-.427-.99-1.025 0-.598.345-1.238.99-1.964a7.373 7.373 0 012.37-1.665m20.545-5.38c-.043-.854-.086-1.708-.043-2.562-10.639-.213-18.435 2.178-23.517 7.259-2.025 1.964-3.618 4.397-4.738 7.258l-4.351 10.802c6.548-5.465 13.18-8.112 19.856-8.198 6.677-.042 10.984 3.331 12.922 9.991 1.938 6.704 1.68 16.865-.818 30.441-3.66 20.239-2.024 35.566 4.91 46.027 0 .043-.215-2.092-.603-6.319-3.489-6.618-3.489-18.274-.129-35.053l.172-.897c.215-.982.388-1.922.603-2.818 0-.086 0-.171.086-.171l-.129-.171.172.043c4.566-16.437 4.911-28.606.905-36.461l8.614.469c-1.981-.64-3.833-1.494-5.427-2.519-2.885-1.921-4.996-4.44-6.418-7.642-1.206-2.733-1.938-5.85-2.067-9.479" fill="#ff0a1c"/><path d="M45.786 169.372c0-.042 0-.042.043-.128l-.172-.042.129.17zm-7.969-30.825c-.129-.256-.215-.555-.344-.854a9.652 9.652 0 00-.948-1.75l-11.199 16.735c2.24 1.11 4.178 2.391 5.901 3.886 1.25.896 2.283 1.921 3.231 2.988.473.513.904 1.11 1.378 1.708.56.768 1.12 1.537 1.55 2.391 2.025-11.528 2.197-19.939.431-25.104m-2.886 26.257c-.474-.598-.948-1.195-1.378-1.793-1.034-1.238-2.197-2.349-3.403-3.373-1.508-1.238-3.1-2.263-4.781-3.245l-8.14 10.589a130.62 130.62 0 006.288 9.734 119.058 119.058 0 005.298 6.96c1.12 1.281 2.24 2.604 3.402 3.885.69.811 1.422 1.622 2.197 2.348-.172-6.575.517-13.961 2.197-22.159.043-.085.043-.171.086-.256-.517-.94-1.163-1.878-1.766-2.69m44.451-1.878c-.775-.171-1.593-.342-2.24-.47-9.906-1.622-15.204.897-16.023 7.556-1.206 9.692.82 17.036 6.031 21.861l.086-.128.215-.043c-1.292-2.22-1.379-5.807-.301-10.802l2.11-10.034c1.594-4.397 4.954-7.044 10.122-7.94" fill="#ff0a1c"/><path d="M67.753 192.215c-.086-.171-.215-.342-.302-.513l-.215.043c.215.128.388.256.517.47" fill="#ff0a1c"/><path d="M67.753 192.215c-.13-.214-.302-.342-.517-.47l-.086.128c.086.128.3.342.474.427l.129-.085zm5.167-12.724v-.299l-1.248 6.191.129.171v.042h-.13c-.343 9.138 6.634 16.225 20.849 21.349 14.213-5.124 21.19-12.211 20.846-21.349h-.13v-.042l.13-.171-1.25-6.191v.299c-.086.299-.086.555-.086.811-.214 1.238-.645 2.349-1.292 3.331-1.722 2.433-4.91 3.799-9.648 4.056h-.302c-1.636.042-3.186.042-4.65.085v5.294c.042 1.708-.26 3.032-.863 3.928-.043.128-.086.214-.257.342-.26.384-.647.64-1.077.854-.431.171-.862.256-1.421.427-.517-.171-.991-.256-1.38-.427-.473-.214-.86-.47-1.12-.854-.128-.128-.214-.214-.257-.342-.603-.896-.904-2.22-.862-3.928v-5.294c-1.421-.043-3.015-.043-4.651-.085h-.302c-4.738-.257-7.925-1.623-9.65-4.056-.645-.982-1.032-2.093-1.248-3.331-.043-.256-.043-.512-.13-.811" fill="#ff0a1c"/><path d="M71.801 185.554l-.129-.171v.213h.13v-.042zm41.436.043h.13v-.213l-.13.171v.042zm-20.717-6.874H82.483l2.67 4.398h14.773l2.628-4.398H92.519zm-12.492-9.65l-3.317 5.764h31.616l-3.317-5.764H80.028z" fill="#ff0a1c"/><path d="M17.013 171.721l-8.356 15.328c.646 4.526 2.584 8.794 5.901 12.722 1.421 1.793 3.23 3.501 5.255 5.124a45.923 45.923 0 0010.467 6.361 40.06 40.06 0 007.02 2.434c1.422.342 2.886.64 4.265.854-3.618-5.124-5.858-11.443-6.763-18.914-.732-.641-1.378-1.324-2.067-2.05-1.594-1.621-3.058-3.372-4.523-5.122a77.143 77.143 0 01-6.116-8.112 87.003 87.003 0 01-5.083-8.625" fill="#e9a043"/><path d="M161.823 118.522c.688-.085 1.464.042 2.326.47a7.342 7.342 0 012.368 1.665c.647.725.992 1.366.992 1.964 0 .597-.345.896-.992 1.025-.645.127-1.421 0-2.368-.428a8.13 8.13 0 01-2.326-1.707c-.689-.683-.991-1.324-.991-1.922 0-.597.302-.939.991-1.067m10.079 7.045c-1.12-2.861-2.714-5.295-4.738-7.258-5.083-5.08-12.879-7.472-23.518-7.258.043.854 0 1.708-.043 2.562-.13 3.629-.862 6.745-2.068 9.477-1.378 3.203-3.531 5.722-6.417 7.643-1.594 1.025-3.403 1.878-5.428 2.519l8.614-.47c-4.005 7.856-3.661 20.025.949 36.463l.129-.043-.129.171c.086 0 .086.085.086.17.215.897.43 1.836.602 2.818l.216.897c3.316 16.779 3.316 28.435-.172 35.053-.388 4.227-.603 6.361-.603 6.318 6.977-10.46 8.571-25.788 4.91-46.025-2.498-13.577-2.757-23.739-.819-30.442 1.939-6.661 6.246-10.034 12.922-9.991 6.677.085 13.31 2.733 19.858 8.198l-4.351-10.802z" fill="#ff0a1c"/><path d="M139.253 169.244v.128l.129-.17-.129.042zm22.311 7.472a145.641 145.641 0 006.246-9.734l-8.142-10.589c-1.679.982-3.273 2.007-4.78 3.245-1.206 1.024-2.369 2.135-3.36 3.373-.431.598-.947 1.195-1.378 1.793a19.603 19.603 0 00-1.81 2.69c.043.085.043.171.087.256 1.68 8.197 2.368 15.584 2.24 22.159a37.964 37.964 0 002.153-2.348c1.163-1.281 2.283-2.604 3.403-3.886a141.851 141.851 0 005.341-6.959" fill="#ff0a1c"/><path d="M168.025 171.721a87.16 87.16 0 01-5.039 8.625 84.213 84.213 0 01-6.16 8.112c-1.421 1.75-2.929 3.501-4.523 5.122-.689.726-1.335 1.409-2.067 2.05-.904 7.471-3.145 13.79-6.763 18.914a47.105 47.105 0 004.265-.854 40.08 40.08 0 007.02-2.434 45.924 45.924 0 0010.467-6.361c2.025-1.623 3.834-3.331 5.298-5.124 3.317-3.928 5.255-8.196 5.858-12.722l-8.356-15.328z" fill="#e9a043"/><path d="M129.044 137.223c0-.341 0-.769-.043-1.153-.258.257-.517.512-.818.726-7.107 6.277-15.722 7.685-25.757 4.355 2.713 1.922 5.47 3.33 8.14 4.184 2.8.854 5.556 1.153 8.313.811-2.326 1.623-5.47 2.221-9.476 1.836 4.437 5.252 8.959 6.789 13.655 4.526 4.522-2.177 6.547-7.301 5.986-15.285m18.521.47c-.129.299-.215.598-.344.854-1.766 5.165-1.593 13.576.431 25.104.431-.854.99-1.623 1.594-2.391.43-.598.904-1.195 1.378-1.708.947-1.067 1.981-2.092 3.187-2.988 1.723-1.495 3.661-2.776 5.901-3.886l-11.199-16.735c-.344.512-.646 1.109-.948 1.75" fill="#ff0a1c"/><path d="M120.818 136.028c-1.68-.171-3.661.042-5.987.555-2.24.555-4.092 1.195-5.513 1.964 4.953 1.494 8.786.64 11.5-2.519m-12.879 26.428c-.689.128-1.508.299-2.283.47 5.169.896 8.529 3.543 10.123 7.941l2.153 10.034c1.033 4.994.947 8.58-.302 10.801l.173.043.129-.214.172.171c5.083-4.868 7.022-12.082 5.815-21.689-.775-6.661-6.116-9.18-15.98-7.557m9.346 29.759c.173-.214.345-.342.518-.47l-.173-.043c-.129.171-.215.342-.345.513" fill="#ff0a1c"/><path d="M117.803 191.745a2.563 2.563 0 00-.518.47l.173.085c.172-.085.345-.299.474-.427l.172-.171-.172-.17-.129.213z" fill="#ff0a1c"/><path d="M96.266 61.78a29.846 29.846 0 00-1.378-1.878c-.732 0-1.594.042-2.369.042-.775 0-1.594-.042-2.369-.042a29.78 29.78 0 00-1.379 1.878h7.495zm18.35 3.587c-.216-.085-.475-.3-.646-.427-3.619-2.007-7.323-3.416-11.2-4.27-1.335-.256-2.757-.512-4.134-.64 6.116 7.94 8.744 16.736 7.667 26.3 2.196-7.6 1.377-15.37-2.37-23.311 3.533-.086 7.022.683 10.683 2.348m61.765 121.681l-8.356-15.327a87.073 87.073 0 01-5.04 8.624 83.916 83.916 0 01-6.159 8.112c-1.421 1.751-2.928 3.501-4.522 5.124-.646 8.624-2.153 15.327-4.566 20.11a40.147 40.147 0 007.021-2.435 45.904 45.904 0 0010.466-6.361c2.024-1.622 3.834-3.33 5.298-5.123 3.317-3.929 5.254-8.198 5.858-12.724" fill="#ffa042"/><path d="M147.738 213.69c2.412-4.782 3.92-11.485 4.565-20.109-.689.726-1.335 1.409-2.067 2.049-.904 7.471-3.144 13.79-6.763 18.914a47.452 47.452 0 004.265-.854" fill="#fffcab"/><path d="M147.565 137.693c-.129.299-.215.598-.344.854-1.766 5.165-1.593 13.576.431 25.104.431-.854.99-1.623 1.594-2.391-1.896-7.942-2.456-15.797-1.681-23.567m-17.875-4.441l8.614-.47c-4.006 7.856-3.661 20.068.949 36.591l.128-.171c-3.316-19.683-2.239-33.473 3.231-41.458a15.79 15.79 0 01-7.494 2.989c-1.594 1.025-3.404 1.878-5.428 2.519m-27.265 7.899c2.714 1.921 5.471 3.33 8.142 4.184 8.442.341 14.342-2.519 17.616-8.539-7.107 6.276-15.722 7.685-25.758 4.355" fill="#ffa042"/><path d="M120.818 136.028c-1.68-.171-3.661.042-5.987.555-2.24.555-4.092 1.195-5.513 1.964 4.953 1.494 8.786.64 11.5-2.519m.301 32.106c0 .042 0 .128.043.213 1.421 4.142 1.809 8.454 1.077 12.98-.56 4.141-2.024 7.6-4.308 10.204l-.128.214a2.563 2.563 0 00-.518.47l.173.085c5.556-4.868 7.71-12.254 6.461-22.288-.776-6.659-6.116-9.178-15.98-7.556 7.28-.342 11.629 1.409 13.05 5.422.044.085.087.213.13.256" fill="#ffa042"/><path d="M117.285 192.215c.173-.214.345-.342.518-.47l-.173-.043c-.129.171-.215.342-.345.513m-21.148-4.441v5.294c.043 1.708-.259 3.032-.86 3.928 1.334-1.11 2.11-3.501 2.324-7.173v-.085h3.963c.216-.043.387-.043.56-.043l.689-.128c5.729-.897 8.787-3.971 9.218-9.265-.215 1.238-.646 2.348-1.292 3.33-1.723 2.434-4.911 3.8-9.649 4.057h-.302c-1.636.042-3.187.042-4.65.085m17.229-2.177v-.213l-.13.171v.042h.13zm36.783-20.793a19.756 19.756 0 00-1.81 2.69c.043.085.043.171.087.256 1.68 8.198 2.369 15.584 2.24 22.159a37.964 37.964 0 002.153-2.348c-.086-7.429-.947-14.816-2.498-22.245l-.172-.512zM71.112 64.94c-.215.128-.474.34-.646.427 3.618-1.665 7.15-2.434 10.639-2.348-3.747 7.94-4.566 15.712-2.37 23.312-1.076-9.564 1.552-18.36 7.668-26.301-1.378.128-2.8.384-4.135.64a40.376 40.376 0 00-11.156 4.27M92.52 50.978c-5.17.854-8.4 3.203-9.778 7.13 1.378-3.714 4.608-5.464 9.777-5.337 5.17-.127 8.399 1.623 9.777 5.337-1.378-3.927-4.608-6.276-9.777-7.13M51.125 85.656c-3.63 5.879-6.895 12.569-9.719 20.344 1.637.769 3.207 1.546 4.844 2.188.706-8.07 2.744-15.327 5.844-21.938-.333-.257-.65-.42-.969-.594zm82.813 0c-.325.175-.663.333-1 .594 3.092 6.61 5.142 13.868 5.874 21.938 1.594-.641 3.25-1.419 4.844-2.188-2.823-7.772-6.087-14.467-9.718-20.344zM45.656 112.75c0 .257.012.683-.031 1.281-.043.555-.023.983.063 1.281.602 7.728 5.727 12.723 15.374 15.157 10.553 2.775 21.046 4.093 31.47 4.093 10.423 0 20.884-1.318 31.437-4.093 9.691-2.434 14.772-7.429 15.375-15.157.129-.298.125-.726.125-1.281a8.685 8.685 0 01-.094-1.281c-10.029 3.78-19.654 6.293-29 7.781-2.959 3.675-5.933 7.034-8.937 9.657-2.67 1.494-5.59 2.209-8.907 2.124-3.316.085-6.266-.63-8.937-2.124-3.007-2.625-5.976-5.978-8.938-9.657-9.346-1.489-18.981-4.005-29-7.781zm28.816 32.585c2.67-.854 5.427-2.263 8.14-4.184-10.035 3.33-18.65 1.921-25.757-4.355 3.274 6.02 9.175 8.88 17.617 8.539" fill="#ffa042"/><path d="M75.72 138.547c-1.42-.769-3.272-1.409-5.512-1.964-2.326-.513-4.307-.726-5.987-.555 2.713 3.159 6.547 4.013 11.5 2.519m-28.988-5.764l8.615.47c-1.982-.641-3.834-1.494-5.427-2.519-2.757-.342-5.298-1.367-7.452-2.989 5.427 7.984 6.504 21.774 3.187 41.457l.13.17c4.609-16.523 4.953-28.734.947-36.589m-8.916 5.764c-.129-.256-.215-.555-.344-.854.818 7.77.215 15.625-1.637 23.567.56.768 1.12 1.537 1.55 2.391 2.025-11.528 2.197-19.939.431-25.104m-1.206 29.203c.043-.085.043-.171.086-.256-.517-.94-1.163-1.879-1.766-2.69l-.215.512c-1.55 7.429-2.412 14.816-2.499 22.245.69.811 1.422 1.622 2.197 2.348-.172-6.575.517-13.962 2.197-22.159m27.309.384c.042-.043.085-.171.128-.256 1.465-4.013 5.772-5.764 13.094-5.422-9.907-1.622-15.204.897-16.023 7.556-1.249 10.034.904 17.42 6.504 22.288l.13-.085c-.13-.214-.302-.342-.518-.47l-.128-.214c-2.284-2.604-3.705-6.063-4.308-10.204-.732-4.526-.344-8.838 1.077-12.98.043-.085.043-.171.043-.213" fill="#ffa042"/><path d="M67.236 191.745c.215.128.388.256.516.47-.085-.171-.215-.342-.301-.513l-.215.043zm7.064-8.112c-.647-.982-1.035-2.092-1.25-3.331.388 5.295 3.446 8.369 9.175 9.266l.69.128c.171 0 .343 0 .56.042h4.005v.086c.172 3.672.947 6.063 2.282 7.173-.603-.897-.904-2.22-.86-3.928v-5.294c-1.422-.043-3.016-.043-4.653-.086h-.302c-4.737-.256-7.925-1.622-9.648-4.056m-2.498 1.921l-.129-.171v.213h.13v-.042z" fill="#ffa042"/><path d="M45.656 112.75c7.095 5.055 17.474 8.478 31.032 10.312-.672-.776-1.363-1.7-2.032-2.531-9.342-1.491-18.981-4.005-29-7.781zm93.719 0c-10.025 3.778-19.652 6.29-29 7.781-.671.834-1.327 1.784-2 2.563 13.57-1.835 23.936-5.289 31-10.344z" fill="#fffcab"/><path d="M17.013 171.721l-8.356 15.328c.646 4.526 2.584 8.794 5.901 12.722 1.421 1.793 3.23 3.501 5.255 5.124a45.923 45.923 0 0010.467 6.361 40.06 40.06 0 007.02 2.434c-2.37-4.782-3.919-11.485-4.565-20.11-1.594-1.621-3.058-3.372-4.523-5.122a77.143 77.143 0 01-6.116-8.112 87.003 87.003 0 01-5.083-8.625" fill="#ffa042"/><path d="M34.802 195.63c-.732-.641-1.378-1.324-2.067-2.049.646 8.624 2.196 15.327 4.566 20.11a53.76 53.76 0 004.264.853c-3.618-5.123-5.858-11.442-6.763-18.914" fill="#fffcab"/><path d="M57.813 17.813a82.277 82.277 0 00-2.657 3C40.685 37.25 37.232 52.456 44.813 66.374c-8.615 4.782-9.894 12.162-3.907 22.281a22.471 22.471 0 011.719-3.375c4.91-8.07 11.068-5.79 18.563 6.719 5.856 10.759 11.653 20.003 17.468 27.688.13-1.921.452-3.79.969-5.626.689-2.774 1.967-5.885 3.906-9.343.301-.598 1.04-1.685 2.031-3.094-12.103-9.223-20.73-22.668-25.812-40.344-3.317-11.485-4.724-21.642-4.25-30.437.344-3.843.983-7.678 1.844-11.563.086-.17.125-.215.125-.343.129-.384.215-.741.343-1.125zm69.468 0c.129.385.215.74.344 1.125 0 .128.05.172.094.343.861 3.885 1.561 7.72 1.906 11.563.473 8.795-1.008 18.952-4.281 30.437-5.083 17.676-13.697 31.121-25.844 40.344 1.033 1.409 1.75 2.496 2.094 3.094 1.939 3.458 3.23 6.569 3.875 9.343a27.52 27.52 0 01.969 5.626c5.813-7.685 11.654-16.928 17.468-27.688 7.538-12.509 13.684-14.789 18.594-6.719a22.52 22.52 0 011.719 3.375c5.943-10.119 4.645-17.5-3.969-22.281 7.624-13.919 4.192-29.125-10.281-45.563-.904-1.024-1.783-1.975-2.688-3zm-34.75 82.406c-3.575 3.586-6.246 7.353-7.969 11.281-.775 1.921-1.284 3.49-1.5 4.812-.43 2.52-.29 4.716.313 6.594a8.55 8.55 0 001.188 2.344c1.291 1.708 3.021 2.743 5.218 3 .947.213 1.89.238 2.75.281.861-.043 1.866-.068 2.813-.281 2.154-.257 3.864-1.292 5.156-3a7.663 7.663 0 001.219-2.344c.646-1.878.774-4.074.343-6.594-.258-1.322-.724-2.891-1.5-4.812-1.766-3.928-4.456-7.695-8.03-11.281zm0 6.875h.063c1.896 2.049 3.298 4.268 4.375 6.531 0 .128.094.216.094.344.474 1.025.756 1.982.843 2.75.387 2.264.097 4.13-.937 5.625-.517.683-1.061 1.201-1.75 1.5-.818.256-1.608.469-2.469.468h-.438c-.861 0-1.63-.212-2.406-.468-.689-.299-1.233-.817-1.75-1.5-1.034-1.495-1.344-3.361-1-5.625.13-.768.413-1.725.844-2.75.043-.128.113-.216.156-.344 1.034-2.263 2.437-4.482 4.375-6.531z" fill="#ffa042"/><path d="M55.469 31.375c-1.464 13.833.192 27.3 4.843 40.406 2.629 7.387 5.944 13.983 9.907 19.875 4.22 6.361 8.66 10.861 13.312 13.594.301-.598 1.01-1.685 2-3.094-12.104-9.223-20.698-22.668-25.781-40.344-3.316-11.484-4.755-21.642-4.281-30.437zm74.125 0c.474 8.795-.976 18.953-4.25 30.438-5.082 17.675-13.698 31.12-25.844 40.343 1.034 1.409 1.717 2.496 2.062 3.094 4.609-2.733 9.061-7.233 13.282-13.594 3.962-5.892 7.278-12.488 9.906-19.875 4.694-13.107 6.308-26.573 4.844-40.406zM44.781 66.906c-8.615 4.783-9.893 12.164-3.906 22.281-4.479-11.1-.976-18.006 10.438-20.78-3.23.084-5.412-.433-6.532-1.5zm95.469 0c-1.12 1.067-3.226 1.585-6.5 1.5 11.414 2.775 14.905 9.682 10.469 20.781 5.944-10.118 4.646-17.499-3.969-22.28zM92.531 100.75c-3.575 3.587-6.246 7.353-7.969 11.281-.775 1.921-1.316 3.489-1.53 4.813-.432 2.519-.291 4.715.312 6.594-1.033-6.703 2.037-13.158 9.187-19.563 7.193 6.405 10.232 12.86 9.157 19.563.644-1.879.774-4.075.343-6.594-.258-1.324-.725-2.892-1.5-4.813-1.767-3.928-4.425-7.694-8-11.281zM88 114.5c-2.671 5.295-2.387 8.92.844 10.969a6.963 6.963 0 003.687 1.156c1.377-.043 2.58-.43 3.656-1.156 3.273-2.049 3.558-5.674.844-10.969.474 1.025.79 1.982.875 2.75.388 2.263.096 4.13-.937 5.625-.517.683-1.091 1.201-1.781 1.5-.819.256-1.606.469-2.47.469h-.406c-.861 0-1.63-.213-2.406-.469-.689-.299-1.264-.817-1.781-1.5-1.034-1.495-1.344-3.362-1-5.625.13-.768.444-1.725.875-2.75z" fill="#fffcab"/></g></svg>