<svg xmlns="http://www.w3.org/2000/svg" xmlns:xlink="http://www.w3.org/1999/xlink" width="93" height="27" viewBox="0 0 93 27">
    <defs>
        <path id="05llqb5rxa" d="M0.015 0.008L17.311 0.008 17.311 19.362 0.015 19.362z"/>
    </defs>
    <g fill="none" fill-rule="evenodd">
        <g>
            <g>
                <g>
                    <path fill="#86BEFF" d="M3.185 21.381h21.873c.522 0 .947-.424.947-.946V6.97c0-.648-.528-1.176-1.176-1.176h-1.014v1.287h.903v13.013H3.525V7.082h.967V5.795H3.414c-.648 0-1.176.528-1.176 1.176v13.464c0 .522.425.946.947.946" transform="translate(-79 -940) translate(79 940)"/>
                    <g transform="translate(-79 -940) translate(79 940) translate(5.662 .021)">
                        <mask id="e3efvvk6lb" fill="#fff">
                            <use xlink:href="#05llqb5rxa"/>
                        </mask>
                        <path fill="#86BEFF" d="M1.317 5.747c1.707-.326 3.476-1.121 5.267-2.368.85-.591 1.514-1.156 1.928-1.531.624.613 1.508 1.365 2.65 2.06 1.51.918 3.14 1.537 4.85 1.842.103 1.892-.493 4.39-1.576 6.526-.219.43-.454.843-.704 1.236l-5.2-9.515-5.193 9.44c-.227-.364-.439-.743-.633-1.136C1.7 10.257 1.202 7.896 1.317 5.747zm5.27 4.455L8.53 6.674l1.928 3.528h-3.87zm5.345 5.544c-1.028 1.006-2.187 1.756-3.447 2.232-1.7-.78-3.16-1.925-4.319-3.374L5.88 11.49h5.28l1.74 3.185c-.305.381-.628.74-.968 1.072zm-3.729 3.516l.23.1.238-.082c1.533-.533 2.933-1.412 4.161-2.614 1.08-1.057 2.005-2.338 2.751-3.808 1.305-2.572 1.942-5.54 1.663-7.745l-.062-.488-.486-.068c-1.722-.243-3.36-.832-4.867-1.749-1.328-.807-2.27-1.697-2.827-2.301l-.46-.5-.475.487c-.008.009-.88.9-2.243 1.844-1.234.857-3.139 1.937-5.199 2.218l-.503.069-.05.505c-.248 2.509.29 5.33 1.478 7.74 1.437 2.916 3.737 5.127 6.651 6.392z" mask="url(#e3efvvk6lb)"/>
                    </g>
                    <g fill="#86BEFF">
                        <path d="M1.694 2.576c-.295-.342-.389-.865-.405-1.282h8.953l1.546.725h5.062l1.642-.725h8.904l-.001.012-.01.08-.004.025-.014.09-.003.013-.014.078-.005.022-.019.085-.002.011-.02.074-.005.021-.023.08-.003.009-.024.07-.007.019-.027.074-.003.007-.028.065-.008.018c-.01.023-.022.046-.033.068 0 .002-.002.004-.003.005l-.032.061-.01.017c-.011.021-.024.042-.036.062l-.003.003-.037.057-.01.014-.042.057-.001.001-.043.052-.011.013-.046.05-.057.053-.007.007-.054.046-.01.008-.054.04-.01.006c-.018.013-.037.026-.056.037l-.005.003c-.018.012-.037.023-.056.033l-.004.002c-.019.01-.037.02-.056.028l-.008.004-.054.024-.009.004-.053.02-.007.003-.053.018h-.001l-.052.015-.005.001-.047.012-.008.001-.044.01h-.007l-.042.007h-.004c-.013.003-.027.005-.04.006L26.03 3h-.004l-.03.002h-.003c-.06-.008-.118-.01-.174-.013-.1-.005-.24-.01-.427-.014-.342-.007-.844-.013-1.493-.017-1.146-.007-2.803-.01-4.924-.007-3.877.004-8.552.024-11.966.038-1.996.008-3.572.015-4.176.015-.518 0-.891-.14-1.139-.427M28.71.639l-.012-.632H18.22l-1.643.725h-4.503L10.529.007H.125L.04.552c-.007.045-.067.454-.025.989.06.758.301 1.404.7 1.868.622.728 1.495.88 2.118.88.606 0 2.15 0 4.172-.002 6.026-.003 16.887-.01 18.666 0l.003.002h.267c.081 0 .194-.004.328-.023.403-.054.999-.23 1.518-.758.358-.365.613-.83.763-1.39.016-.063.032-.126.046-.19.014-.065.027-.131.038-.198.058-.335.083-.699.076-1.091" transform="translate(-79 -940) translate(79 940) translate(0 22.583)"/>
                    </g>
                </g>
                <g fill="#86BEFF">
                    <path d="M12.792 0v12.078c0 .564.134.98.401 1.247.268.268.602.402 1.003.402.401 0 .735-.134 1.003-.402.267-.267.401-.683.401-1.247V0h2.273v12.3c0 .52-.093 1-.279 1.438-.186.438-.45.828-.79 1.17-.343.342-.736.609-1.182.802-.445.193-.921.29-1.426.29-.505 0-.977-.097-1.415-.29-.438-.193-.828-.46-1.17-.802-.342-.342-.61-.732-.802-1.17-.193-.438-.29-.917-.29-1.438V0h2.273zm-6.93 0l3.543 15.866H7.132l-.668-3.41H3.366l-.669 3.41H.425L3.968 0h1.894zm17.515 0c1.307 0 2.299.356 2.975 1.07.676.712 1.014 1.723 1.014 3.03v7.42c0 1.486-.36 2.582-1.08 3.287-.722.706-1.758 1.059-3.11 1.059h-3.164V0h3.365zm8.468 0v15.866h-2.273V0h2.273zm8.601 0v2.139h-2.63v13.727h-2.272V2.139h-2.63v-2.14h7.532zm7.777 0v2.139h-4.501v4.657h3.922v2.14h-3.922v4.657h4.501v2.273H41.45V0h6.774zm4.836 0c1.307 0 2.299.356 2.975 1.07.676.712 1.014 1.723 1.014 3.03v7.42c0 1.486-.36 2.582-1.081 3.287-.72.706-1.757 1.059-3.109 1.059h-3.164V0h3.365zM23.332 2.139h-1.047v11.588h1.047c.639 0 1.092-.16 1.36-.48.267-.319.4-.82.4-1.504V4.1c0-.624-.126-1.107-.378-1.449-.253-.341-.713-.512-1.382-.512zm29.682 0h-1.047v11.588h1.047c.639 0 1.092-.16 1.36-.48.267-.319.4-.82.4-1.504V4.1c0-.624-.126-1.107-.378-1.449-.253-.341-.713-.512-1.382-.512zM4.926 4.568H4.88l-1.114 5.75H6.04l-1.114-5.75z" transform="translate(-79 -940) translate(79 940) translate(35 8)"/>
                </g>
            </g>
        </g>
    </g>
</svg>
