<svg xmlns="http://www.w3.org/2000/svg" xmlns:xlink="http://www.w3.org/1999/xlink" width="1005" height="206"><defs><linearGradient id="prefix__c" x1="100%" x2=".214%" y1="52.216%" y2="47.794%"><stop offset="0%" stop-color="#FF9611"/><stop offset="100%" stop-color="#F56B00"/></linearGradient><linearGradient id="prefix__d" x1="100%" x2="0%" y1="50.411%" y2="49.589%"><stop offset="0%" stop-color="#FF9611"/><stop offset="99.786%" stop-color="#F56B00"/></linearGradient><linearGradient id="prefix__e" x1="100%" x2="0%" y1="55.29%" y2="44.71%"><stop offset="0%" stop-color="#FF9611"/><stop offset="99.786%" stop-color="#F56B00"/></linearGradient><linearGradient id="prefix__f" x1="100%" x2="0%" y1="50.37%" y2="49.63%"><stop offset="0%" stop-color="#FF9611"/><stop offset="99.786%" stop-color="#F56B00"/></linearGradient><linearGradient id="prefix__g" x1="100%" x2="0%" y1="52.693%" y2="47.307%"><stop offset="0%" stop-color="#FF9611"/><stop offset="99.786%" stop-color="#F56B00"/></linearGradient><linearGradient id="prefix__h" x1="100%" x2="0%" y1="54.328%" y2="45.672%"><stop offset="0%" stop-color="#FF9611"/><stop offset="99.786%" stop-color="#F56B00"/></linearGradient><linearGradient id="prefix__i" x1="100%" x2="0%" y1="51.324%" y2="48.676%"><stop offset="0%" stop-color="#FF9611"/><stop offset="99.786%" stop-color="#F56B00"/></linearGradient><linearGradient id="prefix__j" x1="100%" x2="0%" y1="54.894%" y2="45.106%"><stop offset="0%" stop-color="#FF9611"/><stop offset="99.786%" stop-color="#F56B00"/></linearGradient><linearGradient id="prefix__k" x1="100%" x2="0%" y1="51.346%" y2="48.654%"><stop offset="0%" stop-color="#FF9611"/><stop offset="99.786%" stop-color="#F56B00"/></linearGradient><linearGradient id="prefix__l" x1="100%" x2="0%" y1="52.104%" y2="47.896%"><stop offset="0%" stop-color="#FF9611"/><stop offset="99.786%" stop-color="#F56B00"/></linearGradient><linearGradient id="prefix__m" x1="100%" x2="0%" y1="54.948%" y2="45.052%"><stop offset="0%" stop-color="#FF9611"/><stop offset="99.786%" stop-color="#F56B00"/></linearGradient><linearGradient id="prefix__n" x1="100%" x2="0%" y1="57.162%" y2="42.838%"><stop offset="0%" stop-color="#FF9611"/><stop offset="99.786%" stop-color="#F56B00"/></linearGradient><linearGradient id="prefix__o" x1="100%" x2="0%" y1="58.869%" y2="41.131%"><stop offset="0%" stop-color="#5732FF"/><stop offset="100%" stop-color="#20C2E0"/></linearGradient><linearGradient id="prefix__p" x1="100%" x2="0%" y1="54.34%" y2="45.66%"><stop offset="0%" stop-color="#5732FF"/><stop offset="100%" stop-color="#20C2E0"/></linearGradient><path id="prefix__a" d="M0 0h1041v223H0z"/></defs><g fill="none" fill-rule="evenodd" opacity=".604"><mask id="prefix__b" fill="#fff"><use xlink:href="#prefix__a"/></mask><g mask="url(#prefix__b)" opacity=".479"><path fill="url(#prefix__c)" d="M1107.334 278.457c-1.835 0-3.367 1.132-3.837 2.66h-50.59l-20.655-18.663h-176.22l-33.63 30.376h-59.544L722.116 256h-69.118l-60.476 54.652h-155.73l-43.858 39.635h-17.661l-30.28 27.363h-54.806l-65.937 59.59c-1.533-.781-3.503-.598-4.8.574-1.558 1.42-1.558 3.71 0 5.126 1.559 1.413 4.102 1.413 5.669 0 1.304-1.18 1.507-2.958.638-4.34l65.32-59.021h54.797l30.28-27.368h17.661l43.86-39.635h155.73l60.474-54.65h67.355l40.745 36.833h61.314l33.62-30.38h174.458l20.654 18.662h51.472c.47 1.53 2.002 2.66 3.837 2.66 2.223 0 4.018-1.62 4.018-3.622 0-1.996-1.795-3.622-4.018-3.622" opacity=".511" transform="translate(-107 -238)"/><path fill="url(#prefix__d)" d="M1030.64 244.14l23.737 21.554h43.576c.466 1.542 2.004 2.676 3.85 2.676 2.213 0 4.009-1.624 4.009-3.64 0-2.012-1.796-3.642-4.01-3.642-1.843 0-3.378 1.135-3.846 2.674h-42.697l-23.738-21.557h-97.599l-50.55-45.91H843.36l-31.869 28.944H693.015L657.515 193h-52.427l-28.414 25.796H488.16l-26.238-23.824H353.63l-62.94 57.149H165.477l-24.318 22.083c-1.53-.788-3.497-.603-4.802.58-1.57 1.421-1.57 3.729 0 5.15 1.568 1.421 4.101 1.421 5.669 0 1.308-1.183 1.508-2.975.641-4.363l23.692-21.511H291.57l62.94-57.151h106.517l26.243 23.828h90.284l28.425-25.796h50.654l35.5 32.232h120.229l31.879-28.94h38.249l50.552 45.906h97.596z" opacity=".511" transform="translate(-107 -238)"/><path fill="url(#prefix__e)" d="M892.178 181.068c-1.57-1.424-4.11-1.424-5.691 0-1.564 1.419-1.564 3.724 0 5.15 1.313 1.177 3.284 1.363 4.815.58l40.072 36.297h102.465l27.838 25.23h34.043c.47 1.54 2.008 2.675 3.847 2.675 2.23 0 4.029-1.628 4.029-3.646 0-2.008-1.8-3.639-4.029-3.639-1.841 0-3.38 1.136-3.85 2.674h-33.146l-27.849-25.23H932.255l-39.439-35.732c.864-1.39.663-3.178-.638-4.36" opacity=".511" transform="translate(-107 -238)"/><path fill="url(#prefix__f)" d="M898.425 245.14c1.556 1.44 4.097 1.44 5.666 0 1.557-1.436 1.557-3.779 0-5.218-1.306-1.2-3.278-1.387-4.803-.589l-27.244-25.11h-26.27l-31.596 29.12H696.664L660.479 210h-47.375l-35.08 32.321h-94.828c-.47-1.558-2.002-2.71-3.843-2.71-2.215 0-4.01 1.657-4.01 3.694 0 2.039 1.795 3.695 4.01 3.695 1.84 0 3.377-1.154 3.843-2.715h95.71l35.067-32.323h45.622l36.168 33.35h119.296l31.597-29.128h24.517l26.61 24.543c-.853 1.407-.652 3.22.642 4.414" opacity=".511" transform="translate(-107 -238)"/><path fill="url(#prefix__g)" d="M864.22 244.707h-24.368l-21.151 19.614h-55.223c-.465-1.559-1.985-2.709-3.817-2.709-2.213 0-3.986 1.65-3.986 3.69 0 2.039 1.773 3.698 3.986 3.698 1.83 0 3.35-1.155 3.815-2.711h56.101l21.154-19.61h23.489c.465 1.56 1.992 2.713 3.824 2.713 2.201 0 3.974-1.656 3.974-3.697 0-2.038-1.773-3.695-3.974-3.695-1.83 0-3.357 1.15-3.824 2.707" opacity=".511" transform="translate(-107 -238)"/><path fill="url(#prefix__h)" d="M205.902 371.03l41.356-37.442h102.805l50.806-46h180.785l55.027-49.811c1.532.782 3.495.598 4.8-.58 1.567-1.42 1.567-3.716 0-5.133-1.57-1.419-4.1-1.419-5.68 0-1.296 1.181-1.497 2.965-.633 4.35l-54.395 49.247H399.988l-50.808 45.995H246.377l-41.356 37.447h-53.175l-38.99 35.298h-67.33c-.468-1.529-2.003-2.658-3.845-2.658-2.213 0-4.008 1.622-4.008 3.626 0 2.002 1.795 3.631 4.008 3.631 1.842 0 3.377-1.134 3.847-2.667h68.209l38.99-35.302h53.175z" opacity=".511" transform="translate(-107 -238)"/><path fill="url(#prefix__i)" d="M466.35 276.443h99.616l48.55-43.704c1.531.778 3.498.595 4.811-.575 1.558-1.41 1.558-3.695 0-5.102-1.578-1.416-4.112-1.416-5.682 0-1.306 1.17-1.509 2.945-.64 4.321l-47.933 43.14H467.23l-29.844-26.871h-59.71l-44.193 39.777h-110.66c-.472-1.523-2.015-2.649-3.858-2.649-2.204 0-4.008 1.617-4.008 3.61 0 1.993 1.804 3.61 4.008 3.61 1.846 0 3.389-1.126 3.86-2.651h111.552l44.184-39.775h57.943l29.846 26.869z" opacity=".511" transform="translate(-107 -238)"/><path fill="url(#prefix__j)" d="M177.947 337.87l33.69-30.518h135.92l46.094-41.756h29.527c.468 1.53 1.996 2.665 3.846 2.665 2.213 0 3.999-1.63 3.999-3.634 0-2.005-1.786-3.627-4-3.627-1.852 0-3.382 1.13-3.848 2.663H392.76l-46.086 41.76H210.755l-33.69 30.514h-47.879l-24.597 22.286c-1.528-.785-3.494-.6-4.799.581-1.567 1.418-1.567 3.715 0 5.133 1.568 1.417 4.1 1.417 5.67 0 1.296-1.18 1.499-2.964.635-4.348l23.973-21.718h47.879z" opacity=".511" transform="translate(-107 -238)"/><path fill="url(#prefix__k)" d="M206.184 263.335h96.511l56.684-51.41h85.316l23.612 21.423h63.455c.468 1.532 1.999 2.665 3.832 2.665 2.222 0 4.016-1.626 4.016-3.632 0-2.006-1.794-3.633-4.016-3.633-1.833 0-3.367 1.133-3.834 2.668h-62.563L445.578 210h-87.08l-56.684 51.398h-95.63c-.47-1.53-2.001-2.66-3.842-2.66-2.224 0-4.005 1.624-4.005 3.627 0 2.006 1.781 3.635 4.005 3.635 1.841 0 3.372-1.133 3.842-2.665" opacity=".511" transform="translate(-107 -238)"/><path fill="url(#prefix__l)" d="M99.308 322c1.85 0 3.395-1.12 3.867-2.64h39.051l49.465-44.298h126.146l51.527-46.15h69.008l30.796 27.587h81.416c.47 1.519 2 2.643 3.854 2.643 2.211 0 4.008-1.616 4.008-3.6 0-1.988-1.797-3.602-4.008-3.602-1.854 0-3.385 1.123-3.854 2.641h-80.523L439.256 227h-70.763l-51.54 46.149H190.809l-49.465 44.296h-38.17c-.475-1.518-2.018-2.638-3.865-2.638-2.208 0-4.018 1.611-4.018 3.599 0 1.987 1.81 3.594 4.018 3.594" opacity=".511" transform="translate(-107 -238)"/><path fill="url(#prefix__m)" d="M238.47 396.514l42.775-38.717h66.68l64.313-58.208h161.635c.467 1.529 2.002 2.659 3.849 2.659 2.203 0 3.993-1.623 3.993-3.623 0-1.998-1.79-3.625-3.993-3.625-1.847 0-3.382 1.132-3.85 2.66H411.346l-64.3 58.208h-66.69l-42.766 38.72h-68.15l-42.704 38.65c-1.528-.78-3.498-.6-4.794.576-1.555 1.418-1.555 3.712 0 5.124 1.558 1.416 4.094 1.416 5.662 0 1.303-1.175 1.505-2.956.638-4.34l42.078-38.084h68.15z" opacity=".511" transform="translate(-107 -238)"/><path fill="url(#prefix__n)" d="M154.571 223.392l-40.007 35.888c-1.529-.774-3.512-.594-4.808.574-1.559 1.407-1.559 3.689 0 5.092 1.559 1.405 4.117 1.405 5.676 0 1.304-1.165 1.507-2.933.644-4.307l39.377-35.335h139.001l48.585-43.582c1.527.779 3.505.596 4.819-.576 1.561-1.405 1.561-3.687 0-5.092-1.58-1.405-4.125-1.405-5.686 0-1.306 1.17-1.51 2.942-.64 4.314l-47.96 43.024h-139z" opacity=".511" transform="translate(-107 -238)"/><path fill="url(#prefix__o)" d="M179.456 214.543c.468 1.51 1.992 2.625 3.814 2.625 2.201 0 3.987-1.607 3.987-3.583 0-1.978-1.786-3.585-3.987-3.585-1.822 0-3.349 1.118-3.814 2.629h-58.447L76.854 252.31c-1.517-.775-3.482-.595-4.77.569-1.56 1.4-1.56 3.67 0 5.07 1.547 1.4 4.076 1.4 5.627 0 1.305-1.165 1.507-2.926.643-4.291l43.532-39.116h57.57z" opacity=".207" transform="translate(-107 -238)"/><path fill="url(#prefix__p)" d="M89.232 185.4h42.119l20.304-18.47h82.176l17.086 15.526h32.654c.47 1.535 2.008 2.665 3.845 2.665 2.196 0 3.995-1.624 3.995-3.632 0-2.002-1.799-3.633-3.995-3.633-1.837 0-3.374 1.136-3.845 2.668h-31.776L234.72 165h-83.943l-20.324 18.47h-42.1l-59.122 53.747c-1.526-.783-3.49-.601-4.783.581-1.572 1.418-1.572 3.723 0 5.138 1.552 1.419 4.087 1.419 5.651 0 1.291-1.177 1.493-2.963.635-4.348L89.232 185.4z" opacity=".207" transform="translate(-107 -238)"/></g></g></svg>
