<svg xmlns="http://www.w3.org/2000/svg" width="216" height="254"><path d="M76.3 0c32.13 0 61.7 10.93 85.28 29.251l.49-.116a16.311 16.311 0 013.553-.402l.32.003c9.048.171 16.33 7.588 16.33 16.71l-.002.321c-.17 9.084-7.56 16.391-16.648 16.391l-.32-.003c-9.05-.17-16.333-7.585-16.333-16.71l.008-.537c.052-1.606.335-3.153.807-4.615l-.664-.49c-20.425-14.98-45.585-23.839-72.82-23.839l-1.958.016C9.86 16.985-42.6 67.563-46.956 131.407h23.916l.142-1.534c5.051-50.515 47.51-89.961 99.176-89.961l1.492.01c49.169.725 89.714 37.167 97.033 84.627H215.8v15.45l-.02 2.314C214.55 218.567 152.575 280 76.302 280l-1.035-.004c-34.126-.25-65.315-12.819-89.427-33.47l-.488.132a16.457 16.457 0 01-4.088.523l-.32-.003c-9.052-.172-16.333-7.589-16.333-16.71l.003-.321c.17-9.082 7.558-16.39 16.65-16.39l.32.003c9.048.171 16.333 7.585 16.333 16.708l-.01.552a16.786 16.786 0 01-.692 4.228l.645.537c21.338 17.634 48.642 28.25 78.442 28.25l2.043-.016c67.317-1.095 121.551-56.202 121.551-124.02v-.022h-23.91l-.012 1.655c-.88 54.501-45.179 98.409-99.695 98.409l-1.58-.012c-52.048-.812-94.39-41.654-97.87-93.197H-63v-1.98c.005-3.478.024-10.585.12-13.445l.092-2.197C-59.126 56.85 2.88 0 76.301 0zm-.022 55.862l-1.386.011c-45.65.743-82.429 38.113-82.429 84.104 0 46.456 37.527 84.115 83.815 84.115l1.386-.01c45.652-.744 82.43-38.114 82.43-84.105l-.01-1.39c-.741-45.815-37.977-82.725-83.806-82.725zm63.86 47.597l-61.99 107.757.006-23.654 41.701-72.488 20.284-11.615zm-127.401.126L33.022 115.2l41.63 72.365-.005 23.637-61.91-107.617zm96.257 15.916L76.4 176.157l-32.591-56.656h65.185zm29.33-19.048l-20.647 11.822h-82.7L14.33 100.453h123.995z" fill="#2F3562" fill-rule="evenodd" opacity=".102"/></svg>
