<svg xmlns="http://www.w3.org/2000/svg" width="32" height="64" viewBox="0 0 32 32"><path d="M24 0H8a8 8 0 00-8 8v16a8 8 0 008 8h16a8 8 0 008-8V8a8 8 0 00-8-8z" fill="#1E2026"/><path d="M16.286 4L9.97 7.676l2.322 1.358 3.994-2.318 3.993 2.318 2.322-1.358L16.286 4zM20.28 10.954l2.321 1.358v2.716l-3.993 2.318v4.636l-2.322 1.358-2.322-1.358v-4.636L9.97 15.028v-2.716l2.322-1.358 3.994 2.318 3.993-2.318z" fill="#F0B90B"/><path d="M22.601 16.948v2.716l-2.322 1.358v-2.716l2.322-1.358z" fill="#F0B90B"/><path d="M20.256 22.942l3.994-2.318v-4.636l2.321-1.358v7.352l-6.315 3.677v-2.717zM24.25 11.352l-2.322-1.358 2.322-1.358 2.321 1.358v2.716l-2.321 1.358v-2.716zM13.964 26.642v-2.716l2.322 1.358 2.322-1.358v2.716L16.286 28l-2.322-1.358zM12.292 21.022L9.97 19.664v-2.716l2.322 1.358v2.716zM16.286 11.352l-2.322-1.358 2.322-1.358 2.322 1.358-2.322 1.358zM10.644 9.994l-2.322 1.358v2.716L6 12.71V9.994l2.322-1.358 2.322 1.358z" fill="#F0B90B"/><path d="M6 14.63l2.322 1.358v4.636l3.993 2.318v2.716L6 21.983V14.63z" fill="#F0B90B"/></svg>
