<svg xmlns="http://www.w3.org/2000/svg" width="26" height="26" viewBox="0 0 26 26">
    <g fill="none" fill-rule="evenodd">
        <g fill="#F8B800">
            <g>
                <path d="M18.032 15.097l2.936 2.935L13 26l-7.968-7.968 2.936-2.935L13 20.129l5.032-5.032zM2.936 10.065L5.87 13l-2.935 2.936L0 13l2.936-2.935zm20.129 0L26 13l-2.935 2.935L20.129 13l2.936-2.935zm-10.065 0L15.936 13 13 15.936 10.065 13 13 10.065zM13 0l7.968 7.968-2.936 2.935L13 5.871l-5.032 5.032-2.936-2.935L13 0z" transform="translate(-634 -341) translate(634 341)"/>
            </g>
        </g>
    </g>
</svg>
