<svg xmlns="http://www.w3.org/2000/svg" width="35" height="28"><g fill="none" fill-rule="evenodd"><path fill="#283030" d="M18.189 27.983h.694v-1.391h-.694z"/><path fill="#181F1F" d="M14.723 26.592h.693v-1.391h-.693z"/><path fill="#000" d="M21.655 18.247h.694v-1.391h-.694zm-7.625 0h.693v-1.391h-.693z"/><path fill="#101010" d="M3.631 15.465h.693v-1.391h-.693z"/><path fill="#CBFBFF" d="M23.042 11.292h.693v-1.39h-.693zm-2.773-1.39h.693V8.511h-.693z"/><path fill="#91EFFF" d="M12.643 9.902h.694V8.511h-.694zm.694-1.391h.693V7.12h-.693z"/><path fill="#000" d="M5.018 7.12h.693V5.729h-.693z"/><path fill="#8EE5FF" d="M25.122 5.729h.692V4.338h-.692z"/><path fill="#CBFBFF" d="M18.189 5.729h.694V4.338h-.694z"/><path fill="#000" d="M14.723 5.729h.693V4.338h-.693zm1.387-1.391h.693V2.947h-.693z"/><path fill="#009CFE" d="M15.416 22.419h-.693v-1.391h-.693V18.247h-.693v-1.391h-.694v-2.782h-.693v-1.391H2.245v1.391H4.324v1.391h1.387v1.391h1.387v1.391h1.386v1.391H9.87v1.39h2.08v1.391h1.387v1.391h1.386v1.391h1.387V23.81h-.694zm4.16 0V19.638h.693v-1.391h.693v-1.391h.693v-1.391h.694v-2.782H13.337v2.782h.693v1.391h.693v2.782h.693v1.39h.694v2.782h.693v1.391h1.386V23.81h.694v-1.391zm6.239-2.781h.693v-1.391h-.693zm1.386-1.391h.693v-1.391h-.693zm1.387-1.391h.693v-1.391h-.693zm1.386-1.391h.693v-1.391h-.693zm2.08-1.391h.693v-1.391h-.693z"/><path fill="#009CFE" d="M27.894 12.683h-4.159v1.391h-.693v1.391h-.693v2.782h-.694v1.391h-.693v1.39h-.693v1.392h-.693v1.39h-.693v1.391h1.386V23.81h1.386v-1.39h1.387v-1.392h1.386V18.247h1.387v-1.391h.693v-1.391h1.386v-1.391h1.387v-1.391h-.693zm-8.318-8.345h.693v1.391h.693V7.12h.693v1.391h.694v1.391h1.386V7.12h.693V2.947h.694V1.556H18.883v1.391h.693zm-9.012 0v1.391h.693V7.12h.693v2.782h.693V8.511h.694V7.12h.693V5.729h.693V4.338h.693V2.947h.694V1.556H9.87v1.391h.694z"/><path fill="#009CFE" d="M25.122 19.638h.692v-1.391h-.692z"/><path fill="#8EE5FF" d="M30.667 12.683h-1.386v1.391h2.773v-1.391h-.693z"/><path fill="#91EFFF" d="M11.95 11.292h.693v-1.39h-.693z"/><path fill="#8EE5FF" d="M27.894 8.511V7.12h-.693V4.338h-.693V1.556h-.693v4.173h-.693v2.782h-.694V11.292h4.16v-1.39h-.694zm-6.239 0h-.693V11.292h1.387v-1.39h-.694zm-11.091 0V7.12H9.87V4.338h-.693V1.556h-.693v1.391h-.693v1.391H6.404v1.391h-.693V7.12H4.324v1.391h-.693v1.391H2.245v1.39H11.257v-1.39h-.693zm9.705-1.391h-.693v1.391h1.386V7.12z"/><path fill="#91EFFF" d="M11.257 8.511h.693V7.12h-.693z"/><path fill="#8EE5FF" d="M18.883 7.12h.693V5.729h-.693zm-2.08-4.173v1.391h-.693v1.391h-.694V7.12h-.693v1.391h-.693v1.39h-.693v1.391h4.159V4.338h.693V2.947h-.693z"/><path fill="#000" d="M9.177 19.638h-.693v-1.391H7.098v1.391h1.386v1.39H9.87v-1.39zm9.012-16.69v1.39h.694v1.391h.693V7.12h1.386V5.729h-.693V4.338h-.693V2.947h-.693v.001zm3.466 22.253V23.81h-1.386v1.391h.693zm-3.466-1.391v1.391h-1.386V23.81h-.693v1.391h-.694v1.391h.694v1.391H18.189v-1.391h2.08v-1.391h-1.386V23.81zm-4.852 0v1.391h1.386V23.81h-.693zm9.705 0v-1.391h-1.387v1.391h.694zm-4.159 0h.693v-1.39h-.693zm-6.24-1.391h-.693v1.391h1.387v-1.391zm11.786 0v-1.391h1.386v-1.39h-1.386v1.39h-1.387v1.391h.693zm-8.319-1.391h-.694v-1.39h-.693v-1.391h-.693V21.028h.693v1.391h.693v1.391h.694v-1.391zm-4.853 0h-.693v1.391h1.386v-1.391zm15.251-2.781v1.391h1.386v-1.391h-.693zm1.386-1.391v1.391h1.387v-1.391h-.693zm-6.932 1.391h-.693v1.391h-.693V22.419h.693v-1.391h.693v-1.39h.693v-2.782h-.693zM6.404 16.856h-.693v1.391h1.387v-1.391zm22.877-1.391v1.391h1.386v-1.391h-.693zm-7.626 1.391h.694v-1.391h-.694zm-7.625-1.391h-1.387v1.391h.694v1.391h.693v-1.391zm-9.012 0h-.694v1.391h1.387v-1.391zm25.649-1.391v1.391h1.387v-1.391h-.693z"/><path fill="#000" d="M8.484.165v1.391h.693v2.782h.693V7.12h.694v2.782h.693v1.391H2.245v-1.39h-.693v1.39H.165v1.391H.86v1.391h1.386v1.391h1.386v-1.391H2.245v-1.39h9.705v1.39h.693v1.391h.694v-2.782h-.694 9.706v2.78h.693v-1.391h.693v-1.39h9.012v1.39h.693v-1.39h1.387v-1.392H33.44v-1.39h-.693V8.51h-1.386V9.9h.693v1.391h-7.626v-2.78h.694V4.339h.693V1.556h.693V.164H8.484zm8.319 2.782h2.079v-1.39h6.24v1.39h-.694V7.12h-.693v4.173h-.693v-1.39h-.693v1.39h-9.012v-1.39h-.694v1.39h-.693V8.511h-.693V5.729h-.693V2.947H9.87v-1.39h6.24v1.39h.693z"/><path fill="#000" d="M21.655 9.902h.694V8.511h-.694zm-8.318 0h.693V8.511h-.693zm-9.706-.001v-1.39h.693V7.12H2.938v1.391h-.693v1.39h.693zm17.331-1.39h.693V7.12h-.693zm9.012-1.391v1.391h1.387V7.12h-.694V5.729h-1.386V7.12zM14.03 5.729v2.782h.693V7.12h.693V5.729h-.693zm-9.012 0h1.386V4.338H5.018v1.391h-.694V7.12h.694zm10.398-1.391v1.391h.694V2.947h-.694zm-7.625 0v-1.39h-.693v-.001h-.694v1.391h.694zm19.41-1.391v1.391h.693v1.391h1.387V4.338h-.693V2.947h-.694V1.556h-1.386v1.391zm-18.717 0V1.556H7.098v1.391h.693z"/><path fill="#FEFEFE" d="M24.429 19.638h.693v-1.391h-.693zm4.159-5.564h-.694v1.391h-1.386v1.391h-.693v1.391h1.386v-1.391h1.387v-1.391h1.386v-1.391h-.693zm-8.319-5.563h-.693V7.12h-.693V5.729h-.694V4.338h-.693v6.954h3.466v-1.39h-.693zm11.092 1.39v-1.39h-1.387V7.12h-.693V5.729h-1.387V4.338h-.693V7.12h.693V9.901h.694v1.391H32.054V9.901zm-4.853-5.563h.693V2.947h-.693z"/></g></svg>
