<svg xmlns="http://www.w3.org/2000/svg" xmlns:xlink="http://www.w3.org/1999/xlink" width="64" height="64"><defs><linearGradient id="prefix__b" x1="50%" x2="50%" y1="0%" y2="99.082%"><stop offset="0%" stop-color="#C3C1C1"/><stop offset="48.569%" stop-color="#FFF"/><stop offset="100%" stop-color="#8D8D8D"/></linearGradient><path id="prefix__a" d="M0 .1h63.745v63.757H0z"/></defs><g transform="translate(0 .043)" fill="none" fill-rule="evenodd"><mask id="prefix__c" fill="#fff"><use xlink:href="#prefix__a"/></mask><path fill="url(#prefix__b)" d="M31.907.1C49.5.13 63.81 14.49 63.745 32.048c-.065 17.58-14.37 31.84-31.907 31.81C14.252 63.826-.061 49.463 0 31.908.06 14.332 14.368.068 31.907.1zm-.054 4.554c-15.009-.01-27.3 12.277-27.3 27.29 0 15.116 12.238 27.347 27.374 27.359 14.958.011 27.258-12.286 27.264-27.257.006-15.133-12.219-27.382-27.338-27.392zm13.25 29.594c1.023-.002 1.882.244 2.407 1.181.545.97.28 1.853-.31 2.721-1.448 2.137-2.863 4.296-4.306 6.437-.555.823-1.355 1.195-2.333 1.006-.972-.188-1.675-.803-1.776-1.788-.06-.586.111-1.278.4-1.8.59-1.068 1.33-2.053 2.09-3.194H26.468c-2.677 0-5.355.003-8.033-.003-1.483-.003-2.517-.971-2.5-2.32.017-1.315 1.047-2.233 2.509-2.233 8.886 0 17.773.006 26.659-.007zM23.183 18.36c.976.181 1.677.81 1.773 1.79.059.606-.135 1.317-.434 1.86-.575 1.05-1.304 2.014-2.051 3.135h15.022c2.607 0 5.213-.003 7.82.003 1.485.003 2.512.966 2.495 2.322-.018 1.309-1.048 2.23-2.511 2.23-8.933.001-17.866-.003-26.8.006-.978 0-1.773-.305-2.263-1.182-.507-.908-.327-1.761.238-2.598 1.472-2.178 2.916-4.374 4.38-6.558.556-.83 1.36-1.188 2.331-1.008z" mask="url(#prefix__c)"/></g></svg>
