<svg xmlns="http://www.w3.org/2000/svg" xmlns:xlink="http://www.w3.org/1999/xlink" width="87" height="101" viewBox="0 0 87 101">
    <defs>
        <linearGradient id="rlu4l8gjwa" x1="50%" x2="50%" y1="0%" y2="100%">
            <stop offset="0%" stop-color="#5C99FF"/>
            <stop offset="100%" stop-color="#1837AF"/>
        </linearGradient>
        <linearGradient id="74zb9v172e" x1="52.7%" x2="46.64%" y1="50%" y2="50%">
            <stop offset="0%" stop-color="#C3ACFF"/>
            <stop offset="100%" stop-color="#DBCFFF"/>
        </linearGradient>
        <linearGradient id="1xx9n0xngh" x1="63.524%" x2="61.929%" y1="62.269%" y2="60.669%">
            <stop offset="0%" stop-color="#3300BF"/>
            <stop offset="100%" stop-color="#BFAAFF"/>
        </linearGradient>
        <linearGradient id="qtoeggja2k" x1="35.765%" x2="37.123%" y1="62.553%" y2="61.224%">
            <stop offset="0%" stop-color="#3300BF"/>
            <stop offset="100%" stop-color="#4361EA"/>
        </linearGradient>
        <linearGradient id="mwwza43trn" x1="180.441%" x2="47.326%" y1="122.417%" y2="48.448%">
            <stop offset="0%" stop-color="#2C59FF"/>
            <stop offset="100%" stop-color="#C7DEFF"/>
        </linearGradient>
        <linearGradient id="73bkact8yq" x1="9.902%" x2="250.661%" y1="55.418%" y2="23.029%">
            <stop offset="0%" stop-color="#212DEA"/>
            <stop offset="100%" stop-color="#FFF6FF"/>
        </linearGradient>
        <linearGradient id="b2ib4vfzts" x1="147.51%" x2="-.726%" y1="49.935%" y2="50.034%">
            <stop offset="0%" stop-color="#4F23FF"/>
            <stop offset="100%" stop-color="#42A5FF"/>
        </linearGradient>
        <linearGradient id="i07k6z6ntu" x1="50%" x2="50%" y1="-72.726%" y2="93.621%">
            <stop offset="0%" stop-color="#4F23FF"/>
            <stop offset="100%" stop-color="#1245FF"/>
        </linearGradient>
        <linearGradient id="vwxxa9yaow" x1="50%" x2="50%" y1="0%" y2="100%">
            <stop offset="0%" stop-color="#5C99FF"/>
            <stop offset="100%" stop-color="#1837AF"/>
        </linearGradient>
        <linearGradient id="btuxvickhx" x1="147.51%" x2="-.726%" y1="49.935%" y2="50.034%">
            <stop offset="0%" stop-color="#4F23FF"/>
            <stop offset="100%" stop-color="#42A5FF"/>
        </linearGradient>
        <linearGradient id="z28etd10lA" x1="100%" x2="-4.853%" y1="56.625%" y2="50%">
            <stop offset="0%" stop-color="#4F23FF"/>
            <stop offset="100%" stop-color="#2F81F6"/>
        </linearGradient>
        <path id="bytcsc00cb" d="M24.593.63l19.789 11.477c.542.395.852 1.006.821 1.602-.026.504-.289.926-.74 1.189L24.408 26.35c-.582.338-1.23.509-1.881.509-.572 0-1.145-.132-1.675-.397L1.067 15.002C.424 14.62.062 14.1.047 13.537c-.012-.497.25-.962.722-1.277l.008-.005L20.979.74c1.112-.645 2.464-.687 3.614-.11zm-3.488.328L.905 12.471c-.396.266-.617.652-.607 1.059.013.473.33.92.896 1.256L20.973 26.24c1.05.525 2.29.485 3.31-.109L44.337 14.68c.376-.218.595-.568.616-.983.027-.513-.244-1.042-.707-1.38L24.473.852c-1.067-.535-2.33-.497-3.368.107z"/>
        <path id="b190xw1h2d" d="M25.98.786L5.465 12.461C3.45 11.538 1.6 11.24.772 12.592c-.557.91-.77 1.667-.772 2.3v.024c.004 1.062.598 1.776 1.129 2.292.198.22.455.425.776.603l.043.025L25.78 31.643c1.478.74 3.228.684 4.656-.148l24.224-13.842s3.532-2.145.407-5.543c0 0-1.794-.199-1.43 1.832L30.715.64c-.703-.354-1.469-.53-2.232-.53-.866 0-1.73.227-2.502.675"/>
        <path id="q1ebfwmp2g" d="M25.98.786c1.453-.844 3.234-.899 4.736-.146l22.922 13.302c-.364-2.03 1.43-1.832 1.43-1.832 3.138 3.494-.407 5.543-.407 5.543L30.437 31.496c-1.428.83-3.178.886-4.656.147L1.948 17.836l-.043-.025c-.32-.178-.578-.383-.776-.603-.85-.826-1.86-2.16-.357-4.616.829-1.353 2.679-1.054 4.692-.131"/>
        <path id="s6n2aewyqj" d="M25.98.786c1.453-.844 3.234-.899 4.736-.146l22.922 13.302c-.364-2.03 1.43-1.832 1.43-1.832 3.071 3.434-.407 5.543-.407 5.543L30.437 31.496c-1.428.83-3.178.886-4.656.147L1.948 17.836l-.043-.025c-.32-.178-.578-.383-.776-.603-.85-.826-1.86-2.16-.357-4.616.829-1.353 2.679-1.054 4.692-.131"/>
        <path id="oe9m357ctm" d="M25.364.846L.937 14.773c-1.217.814-1.315 2.409.394 3.427l23.834 13.807c1.477.74 3.228.684 4.656-.147l24.223-13.843c1.362-.792 1.123-2.587-.108-3.485L30.099.7C29.395.347 28.63.171 27.866.171c-.866 0-1.73.226-2.502.675"/>
        <path id="sy3fnfcejp" d="M23.682.715L.832 13.738c-1.015.68-1.097 2.012.33 2.862l22.371 12.957c1.234.617 2.695.57 3.888-.123L50.1 16.482c1.136-.662.937-2.16-.091-2.91L27.635.594C27.047.3 26.41.153 25.771.153c-.723 0-1.444.188-2.089.562"/>
        <path id="mq9q75vntt" d="M.12.01c.08.41.377.825.933 1.156l19.78 11.456c1.09.545 2.382.504 3.437-.11l20.052-11.45c.35-.204.553-.497.635-.82l.035 55.774c-.01.443-.221.865-.68 1.133L24.258 68.6c-1.054.614-2.346.655-3.437.11L1.042 57.252c-.767-.457-1.038-1.07-.933-1.618L.119.01z"/>
        <path id="k9aino2jcy" d="M24.593.657l19.789 11.477c.541.395.852 1.006.821 1.602-.026.504-.29.925-.741 1.189L24.409 26.377c-.582.338-1.231.509-1.881.509-.572 0-1.145-.132-1.675-.397L1.067 15.029c-.643-.383-1.005-.903-1.02-1.466-.013-.496.25-.96.722-1.276l.008-.005L20.979.767c1.112-.645 2.463-.687 3.614-.11zm-3.489.328L.905 12.498c-.396.266-.618.652-.607 1.059.012.473.33.919.896 1.256l19.778 11.455c1.05.525 2.291.485 3.312-.109l20.052-11.452c.376-.218.595-.568.616-.984.027-.513-.244-1.04-.707-1.379L24.473.878c-1.067-.536-2.33-.497-3.369.107z"/>
        <path id="cy4aybv6fB" d="M24.765.412l19.789 11.477c.542.395.852 1.006.821 1.602-.025.503-.289.925-.74 1.188L24.58 26.131c-.582.34-1.23.51-1.88.51-.573 0-1.146-.132-1.676-.397L1.24 14.784C.596 14.4.234 13.88.219 13.318c-.012-.496.25-.961.723-1.277l.007-.005L21.15.522c1.113-.646 2.464-.688 3.614-.11zM21.277.74l-20.2 11.512c-.396.267-.617.653-.607 1.06.013.473.33.919.897 1.255l19.778 11.456c1.05.524 2.29.485 3.31-.11L44.51 14.463c.375-.219.595-.568.616-.984.026-.513-.245-1.041-.708-1.379L24.646.633c-1.068-.536-2.33-.497-3.37.107z"/>
        <path id="0p011mccmD" d="M24.765.542l19.789 11.477c.542.394.852 1.005.821 1.602-.026.503-.289.925-.74 1.188L24.58 26.261c-.582.339-1.23.51-1.88.51-.573 0-1.146-.133-1.676-.397L1.24 14.914C.596 14.53.234 14.01.219 13.448c-.013-.496.25-.961.722-1.277l.008-.005L21.15.652c1.113-.646 2.464-.688 3.614-.11zM21.277.87l-20.2 11.512c-.396.267-.617.653-.607 1.06.013.473.33.919.896 1.255l19.779 11.455c1.05.525 2.29.486 3.31-.108L44.51 14.592c.375-.219.594-.568.616-.984.026-.513-.245-1.041-.708-1.379L24.645.762C23.578.227 22.316.266 21.277.87z"/>
    </defs>
    <g fill="none" fill-rule="evenodd">
        <g>
            <g>
                <g>
                    <g fill="url(#rlu4l8gjwa)" fill-rule="nonzero" transform="translate(-1501 -483) translate(1346 471) translate(155 12) translate(68.614 45.743)">
                        <g>
                            <path d="M18.019 1.897l-7.708 13.35.001-2.93 5.185-8.98 2.522-1.44zm-15.84.016L4.7 3.352l5.177 8.965-.001 2.929L2.178 1.913zm11.968 1.972l-4.053 7.019-4.052-7.02h8.105zm3.646-2.36l-2.567 1.464H4.944L2.376 1.525h15.417z" opacity=".145"/>
                            <path d="M15.84.372l-7.707 13.35v-2.93l5.186-8.98L15.84.371zM0 .388l2.522 1.439 5.176 8.966v2.928L0 .388zM11.968 2.36L7.916 9.38 3.863 2.36h8.105zM15.615 0l-2.567 1.465H2.765L.198 0h15.417z" opacity=".739"/>
                        </g>
                    </g>
                    <g fill="url(#rlu4l8gjwa)" fill-rule="nonzero" transform="translate(-1501 -483) translate(1346 471) translate(155 12) translate(0 44.653)">
                        <g>
                            <path d="M15.84.808l-7.707 13.35v-2.93l5.186-8.981L15.84.808zM0 .824l2.522 1.439 5.176 8.965v2.929L0 .824zm11.968 1.972L7.916 9.815l-4.053-7.02h8.105zm3.647-2.36L13.048 1.9H2.765L.198.436h15.417z" opacity=".145"/>
                            <path d="M19.108.372L11.4 13.722l.001-2.93 5.185-8.98 2.522-1.44zM3.268.388L5.79 1.827l5.176 8.966-.001 2.928L3.267.388zM15.235 2.36l-4.053 7.02-4.052-7.02h8.105zM18.883 0l-2.568 1.465H6.033L3.465 0h15.418z" opacity=".803"/>
                        </g>
                    </g>
                    <g>
                        <g>
                            <g transform="translate(-1501 -483) translate(1346 471) translate(155 12) translate(15.248) translate(.59 70.405) translate(5.018 11.51)">
                                <mask id="arq1x4fhac" fill="#fff">
                                    <use xlink:href="#bytcsc00cb"/>
                                </mask>
                                <path fill="#0091FF" d="M.905 12.47c-.396.267-.617.653-.607 1.06.013.473.33.92.896 1.256L20.973 26.24c1.05.525 2.29.485 3.31-.109L44.337 14.68c.376-.218.595-.568.616-.983.027-.513-.244-1.042-.707-1.38L24.473.852c-1.067-.535-2.33-.497-3.368.107L.905 12.471zM22.528 26.86c-.572 0-1.145-.132-1.675-.397L1.067 15.002C.424 14.62.062 14.1.047 13.537c-.012-.497.25-.962.722-1.277l.008-.005L20.979.74c1.112-.645 2.464-.687 3.614-.11l19.789 11.477c.542.395.852 1.006.821 1.602-.026.504-.289.926-.74 1.189L24.408 26.35c-.582.338-1.23.509-1.881.509z" mask="url(#arq1x4fhac)"/>
                            </g>
                            <path fill="#00012E" d="M1.076 14.725L25.503.797c1.453-.844 3.233-.898 4.734-.145l23.838 13.832c1.231.898 1.47 2.693.108 3.485L29.96 31.81c-1.428.831-3.178.887-4.656.148L1.47 18.151c-1.71-1.017-1.61-2.612-.394-3.426" opacity=".598" transform="translate(-1501 -483) translate(1346 471) translate(155 12) translate(15.248) translate(.59 70.405)"/>
                        </g>
                        <g transform="translate(-1501 -483) translate(1346 471) translate(155 12) translate(15.248) translate(0 69.815)">
                            <mask id="kf2r9n7jpf" fill="#fff">
                                <use xlink:href="#b190xw1h2d"/>
                            </mask>
                            <path fill="url(#74zb9v172e)" d="M25.98.786L5.465 12.461C3.45 11.538 1.6 11.24.772 12.592c-.557.91-.77 1.667-.772 2.3v.024c.004 1.062.598 1.776 1.129 2.292.198.22.455.425.776.603l.043.025L25.78 31.643c1.478.74 3.228.684 4.656-.148l24.224-13.842s3.532-2.145.407-5.543c0 0-1.794-.199-1.43 1.832L30.715.64c-.703-.354-1.469-.53-2.232-.53-.866 0-1.73.227-2.502.675" mask="url(#kf2r9n7jpf)"/>
                        </g>
                        <g>
                            <g transform="translate(-1501 -483) translate(1346 471) translate(155 12) translate(15.248) translate(0 69.815)">
                                <mask id="187r6et0li" fill="#fff">
                                    <use xlink:href="#q1ebfwmp2g"/>
                                </mask>
                                <path fill="url(#1xx9n0xngh)" d="M55.068 12.11s-1.794-.199-1.43 1.832L30.716.64c-1.502-.753-3.283-.698-4.735.146L5.464 12.461c-2.013-.923-3.863-1.222-4.692.131-1.504 2.455-.493 3.79.357 4.616.198.22.456.425.776.603l.043.025L25.78 31.643c1.478.74 3.228.684 4.656-.147l24.224-13.843s3.545-2.049.407-5.543" mask="url(#187r6et0li)"/>
                            </g>
                            <g transform="translate(-1501 -483) translate(1346 471) translate(155 12) translate(15.248) translate(0 69.815)">
                                <mask id="fbhicdl1ll" fill="#fff">
                                    <use xlink:href="#s6n2aewyqj"/>
                                </mask>
                                <path fill="url(#qtoeggja2k)" d="M55.068 12.11s-1.794-.199-1.43 1.832L30.716.64c-1.502-.753-3.283-.698-4.735.146L5.464 12.461c-2.013-.923-3.863-1.222-4.692.131-1.504 2.455-.493 3.79.357 4.616.198.22.456.425.776.603l.043.025L25.78 31.643c1.478.74 3.228.684 4.656-.147l24.224-13.843s3.478-2.11.407-5.543" mask="url(#fbhicdl1ll)"/>
                            </g>
                        </g>
                        <g transform="translate(-1501 -483) translate(1346 471) translate(155 12) translate(15.248) translate(.59 66.863)">
                            <mask id="m1079uu8go" fill="#fff">
                                <use xlink:href="#oe9m357ctm"/>
                            </mask>
                            <path fill="url(#mwwza43trn)" d="M25.364.846L.937 14.773c-1.217.814-1.315 2.409.394 3.427l23.834 13.807c1.477.74 3.228.684 4.656-.147l24.223-13.843c1.362-.792 1.123-2.587-.108-3.485L30.099.7C29.395.347 28.63.171 27.866.171c-.866 0-1.73.226-2.502.675" mask="url(#m1079uu8go)"/>
                        </g>
                        <g transform="translate(-1501 -483) translate(1346 471) translate(155 12) translate(15.248) translate(2.656 68.044)">
                            <mask id="dsgfeo3mgr" fill="#fff">
                                <use xlink:href="#sy3fnfcejp"/>
                            </mask>
                            <path fill="url(#73bkact8yq)" d="M23.682.715L.832 13.738c-1.015.68-1.097 2.012.33 2.862l22.371 12.957c1.234.617 2.695.57 3.888-.123L50.1 16.482c1.136-.662.937-2.16-.091-2.91L27.635.594C27.047.3 26.41.153 25.771.153c-.723 0-1.444.188-2.089.562" mask="url(#dsgfeo3mgr)"/>
                        </g>
                        <g>
                            <g fill="url(#b2ib4vfzts)" opacity=".219" transform="translate(-1501 -483) translate(1346 471) translate(155 12) translate(15.248) translate(5.313 .159) translate(.295 58.145)">
                                <path d="M.682 12.091L20.884.577c1.072-.623 2.387-.663 3.495-.107l19.782 11.473c.91.664 1.085 1.989.08 2.573L24.19 25.968c-1.054.614-2.346.655-3.437.109L.972 14.62c-1.261-.751-1.189-1.929-.29-2.53"/>
                            </g>
                            <g transform="translate(-1501 -483) translate(1346 471) translate(155 12) translate(15.248) translate(5.313 .159) translate(.295 20.66)">
                                <mask id="cs8g8fwl8v" fill="#fff">
                                    <use xlink:href="#mq9q75vntt"/>
                                </mask>
                                <path fill="url(#i07k6z6ntu)" d="M44.992 56.016L44.957.241c-.082.324-.286.617-.635.82L24.27 12.513c-1.055.613-2.347.654-3.438.109L1.052 1.166C.498.835.202.42.12.01L.11 55.635c-.105.547.166 1.161.933 1.618l19.78 11.456c1.09.546 2.383.505 3.437-.109l20.052-11.451c.46-.268.67-.69.679-1.133h.002z" mask="url(#cs8g8fwl8v)" opacity=".322"/>
                                <g fill="url(#vwxxa9yaow)" fill-rule="nonzero" mask="url(#cs8g8fwl8v)" opacity=".129">
                                    <path d="M27.608.671L14.18 23.93v-5.105l9.034-15.646L27.608.67zM.01.698l4.394 2.507 9.017 15.62v5.1L.01.699zm20.85 3.436l-7.06 12.228-7.06-12.228h14.12zM27.215.022l-4.473 2.552H4.828L.356.022h26.859z" transform="translate(9.64 16.21)"/>
                                </g>
                                <g fill="url(#vwxxa9yaow)" fill-rule="nonzero" mask="url(#cs8g8fwl8v)">
                                    <path d="M27.608.671L14.18 23.93v-5.105l9.034-15.646L27.608.67zM.01.698l4.394 2.507 9.017 15.62v5.1L.01.699zm20.85 3.436l-7.06 12.228-7.06-12.228h14.12zM27.215.022l-4.473 2.552H4.828L.356.022h26.859z" transform="translate(9.64 18.389)"/>
                                </g>
                            </g>
                            <g fill="url(#btuxvickhx)" opacity=".219" transform="translate(-1501 -483) translate(1346 471) translate(155 12) translate(15.248) translate(5.313 .159) translate(.295 63.162)">
                                <path d="M.682 12.258L20.884.744C21.956.121 23.27.081 24.379.637L44.161 12.11c.91.663 1.085 1.988.08 2.573L24.19 26.135c-1.054.614-2.346.655-3.437.11L.972 14.787c-1.261-.751-1.189-1.929-.29-2.53"/>
                            </g>
                            <g>
                                <path d="M45.227.154c.029.484-.178.957-.677 1.248L24.497 12.853c-1.054.614-2.346.655-3.437.11L1.28 1.505C.68 1.15.386.695.335.252v5.626c-.16.57.096 1.232.91 1.717l19.78 11.456c1.09.545 2.383.504 3.437-.11l20.052-11.45c.499-.291.706-.764.677-1.248L45.24.154h-.012z" transform="translate(-1501 -483) translate(1346 471) translate(155 12) translate(15.248) translate(5.313 .159) translate(0 76.444)"/>
                            </g>
                            <g transform="translate(-1501 -483) translate(1346 471) translate(155 12) translate(15.248) translate(5.313 .159) translate(.295 24.202)">
                                <mask id="pd5y356lez" fill="#fff">
                                    <use xlink:href="#k9aino2jcy"/>
                                </mask>
                                <path fill="#0091FF" d="M.905 12.498c-.396.266-.618.652-.607 1.059.012.473.33.919.896 1.256l19.778 11.455c1.05.525 2.291.485 3.312-.109l20.052-11.452c.376-.218.595-.568.616-.984.027-.513-.244-1.04-.707-1.379L24.473.878c-1.067-.536-2.33-.497-3.369.107L.905 12.498zm21.623 14.388c-.572 0-1.145-.132-1.675-.397L1.067 15.029c-.643-.383-1.005-.903-1.02-1.466-.013-.496.25-.96.722-1.276l.008-.005L20.979.767c1.112-.645 2.463-.687 3.614-.11l19.789 11.477c.541.395.852 1.006.821 1.602-.026.504-.29.925-.741 1.189L24.409 26.377c-.582.338-1.231.509-1.881.509z" mask="url(#pd5y356lez)"/>
                            </g>
                            <g fill="url(#z28etd10lA)" transform="translate(-1501 -483) translate(1346 471) translate(155 12) translate(15.248) translate(5.313 .159) translate(.295 7.084)">
                                <path d="M.81 12.29L21.012.778c1.072-.624 2.386-.664 3.495-.108L44.29 12.143c.909.663 1.085 1.988.08 2.573L24.318 26.168c-1.055.613-2.347.654-3.438.109L1.1 14.82c-1.261-.75-1.189-1.928-.29-2.53"/>
                            </g>
                            <g transform="translate(-1501 -483) translate(1346 471) translate(155 12) translate(15.248) translate(5.313 .159) translate(.295 2.656)">
                                <mask id="uee0zxydcC" fill="#fff">
                                    <use xlink:href="#cy4aybv6fB"/>
                                </mask>
                                <path fill="#0091FF" d="M1.078 12.252c-.397.267-.618.653-.608 1.06.013.473.33.919.897 1.255l19.778 11.456c1.05.524 2.29.485 3.31-.11L44.51 14.463c.375-.219.595-.568.616-.984.026-.513-.245-1.041-.708-1.379L24.646.633c-1.068-.536-2.33-.497-3.37.107L1.079 12.252zM22.7 26.64c-.572 0-1.145-.131-1.675-.396L1.24 14.784C.596 14.4.234 13.88.219 13.318c-.012-.496.25-.961.723-1.277l.007-.005L21.15.522c1.113-.646 2.464-.688 3.614-.11l19.789 11.477c.542.395.852 1.006.821 1.602-.025.503-.289.925-.74 1.188L24.58 26.131c-.582.34-1.23.51-1.88.51z" mask="url(#uee0zxydcC)"/>
                            </g>
                            <g transform="translate(-1501 -483) translate(1346 471) translate(155 12) translate(15.248) translate(5.313 .159) translate(.295)">
                                <mask id="bisufqh6qE" fill="#fff">
                                    <use xlink:href="#0p011mccmD"/>
                                </mask>
                                <path fill="#0091FF" d="M1.077 12.382c-.396.267-.617.653-.607 1.06.013.473.33.919.896 1.255l19.779 11.455c1.05.525 2.29.486 3.31-.108L44.51 14.592c.375-.219.594-.568.616-.984.026-.513-.245-1.041-.708-1.379L24.645.762C23.578.227 22.316.266 21.277.87l-20.2 11.512zM22.7 26.77c-.572 0-1.145-.132-1.675-.396L1.24 14.914C.596 14.53.234 14.01.219 13.448c-.013-.496.25-.961.722-1.277l.008-.005L21.15.652c1.113-.646 2.464-.688 3.614-.11l19.789 11.477c.542.394.852 1.005.821 1.602-.026.503-.289.925-.74 1.188L24.58 26.261c-.582.339-1.23.51-1.88.51z" mask="url(#bisufqh6qE)"/>
                            </g>
                        </g>
                    </g>
                </g>
            </g>
        </g>
    </g>
</svg>
