<svg xmlns="http://www.w3.org/2000/svg" width="86" height="60"><defs><linearGradient id="prefix__a" x1="50%" x2="50%" y1="0%" y2="99.082%"><stop offset="0%" stop-color="#C3C1C1"/><stop offset="48.569%" stop-color="#FFF"/><stop offset="100%" stop-color="#8D8D8D"/></linearGradient></defs><path d="M44.744.068c5.267 0 10.279.63 14.114 1.79 4.074 1.227 6.375 2.898 6.852 4.96.154.256.239.546.256.852v18.188c4.773.102 9.187.733 12.665 1.773 4.483 1.363 6.8 3.255 6.903 5.625.017.102.017.221.017.324v18.715c0 3.052-3.699 4.841-6.784 5.796C75 59.267 70.04 59.915 64.79 59.915c-9.529 0-19.756-2.165-20.625-6.887-3.972-.034-7.722-.443-10.91-1.193a20.283 20.283 0 01-12.852 4.568C9.153 56.403 0 47.25 0 36c0-1.278.12-2.54.358-3.801 2.097-11.063 12.784-18.341 23.864-16.227l-.188-7.773a3.152 3.152 0 01-.051-.563c0-3.05 3.699-4.824 6.784-5.778C34.534.698 39.494.068 44.744.068zm37.398 47.13a21.79 21.79 0 01-3.58 1.45c-3.818 1.159-8.812 1.79-14.079 1.79-4.67 0-9.222-.529-12.801-1.466a22.235 22.235 0 01-4.245-1.552l.086 4.944v.034c0 .255.75 1.397 4.346 2.505 3.41 1.04 8.012 1.62 12.938 1.62 4.909 0 9.528-.597 12.971-1.67 3.597-1.126 4.381-2.302 4.381-2.54h-.017zM20.403 19.04a16.972 16.972 0 00-11.437 4.415c-6.938 6.306-7.432 17.062-1.125 24 6.307 6.937 17.062 7.431 24 1.125 3.545-3.222 5.574-7.773 5.557-12.563 0-1.142-.12-2.301-.341-3.426A17.06 17.06 0 0025.432 19.79a17.342 17.342 0 00-5.029-.75zm19.04 24.307a20.586 20.586 0 01-3.273 5.608 53.25 53.25 0 007.892.698l-.102-5.778v-.307a63.301 63.301 0 01-4.517-.221zM20.455 22.04a1.71 1.71 0 011.704 1.704v.767a6.443 6.443 0 014.688 6.205 1.71 1.71 0 01-1.705 1.704 1.71 1.71 0 01-1.704-1.704 3.041 3.041 0 00-3.035-3.034c-1.67 0-3.017 1.346-3.034 3.034a3.027 3.027 0 003.034 3.017 6.445 6.445 0 016.205 4.687c.972 3.427-1.023 6.972-4.449 7.944v1.5a1.71 1.71 0 01-1.704 1.704 1.71 1.71 0 01-1.705-1.704V46.38a6.475 6.475 0 01-4.773-6.222 1.71 1.71 0 011.705-1.704 1.71 1.71 0 011.704 1.704 3.027 3.027 0 006.051-.017 3.026 3.026 0 00-3.034-3.017 6.42 6.42 0 01-6.204-4.773c-.92-3.426 1.125-6.954 4.551-7.875v-.733a1.71 1.71 0 011.705-1.704zm61.721 15.733a19.548 19.548 0 01-3.733 1.466c-3.801 1.125-8.744 1.738-13.926 1.738-5.028 0-9.818-.58-13.517-1.653a20.895 20.895 0 01-3.716-1.432l.068 3.92.017 1.432c1.33 1.654 7.688 3.784 17.131 3.784 4.926 0 9.58-.58 13.074-1.636 3.682-1.125 4.483-2.284 4.483-2.523 0-.187.102-.392.102-.562h.017zm-41.454-3.784c.05.681.085 1.346.085 2.011 0 1.33-.137 2.676-.392 3.989 1.125.085 2.3.136 3.494.153l-.102-6.034a58.14 58.14 0 01-3.085-.12zm23.795-4.654h-.29c-4.534 0-8.846.512-12.153 1.45-3.529.988-4.739 2.113-4.892 2.573-.017.034-.017.051-.017.068l.034.068c.102.358 1.108 1.534 4.773 2.591 3.392.972 7.858 1.517 12.562 1.517 4.858 0 9.46-.562 12.955-1.602 3.784-1.125 4.636-2.301 4.653-2.557v-.017c-.017-.256-.87-1.38-4.5-2.471-3.477-1.057-8.25-1.62-13.125-1.62zm-1.977-7.892a21.504 21.504 0 01-3.682 1.466c-3.835 1.16-8.864 1.79-14.13 1.79a61.35 61.35 0 01-7.722-.494 20.2 20.2 0 013.05 6.34c1.467.103 3.052.17 4.688.17h.17c2.796-3.067 10.313-4.601 17.626-4.806zm.034-9.511a20.47 20.47 0 01-3.699 1.483c-3.835 1.159-8.864 1.79-14.114 1.79-5.028 0-9.818-.58-13.517-1.654a18.801 18.801 0 01-3.681-1.415l.119 4.807a19.675 19.675 0 015.335 3.017l.136.034c3.273.836 7.398 1.279 11.608 1.279 4.875 0 9.665-.614 13.125-1.654 3.7-1.125 4.517-2.3 4.517-2.522 0-.239-.017-.46.17-.7zm-17.83-8.438c-4.909 0-9.511.597-12.954 1.654-3.597 1.09-4.38 2.182-4.398 2.505 0 0 .017 0 .017.035.085.375 1.108 1.534 4.773 2.59 3.392.989 7.858 1.534 12.562 1.534 4.875 0 9.648-.596 13.108-1.636 3.7-1.108 4.534-2.284 4.534-2.523 0-.221-.818-1.38-4.517-2.505-3.46-1.057-8.25-1.654-13.125-1.654z" fill="url(#prefix__a)" fill-rule="nonzero"/></svg>
