<svg xmlns="http://www.w3.org/2000/svg" xmlns:xlink="http://www.w3.org/1999/xlink" width="36" height="33"><defs><path id="prefix__a" d="M0 .159h32.208v32.208H0z"/><path id="prefix__c" d="M0 32.373h35.935V.165H0z"/></defs><g fill="none" fill-rule="evenodd"><g transform="translate(0 .006)"><mask id="prefix__b" fill="#fff"><use xlink:href="#prefix__a"/></mask><path fill="#5476BA" d="M32.208 16.263c0 8.894-7.21 16.104-16.104 16.104C7.21 32.367 0 25.157 0 16.263 0 7.369 7.21.159 16.104.159c8.894 0 16.104 7.21 16.104 16.104" mask="url(#prefix__b)"/></g><path fill="#426AB2" d="M29.705 16.27c0 7.51-6.09 13.6-13.6 13.6-7.512 0-13.602-6.09-13.602-13.6 0-7.512 6.09-13.601 13.601-13.601 7.512 0 13.6 6.089 13.6 13.6"/><path fill="#7793CA" d="M28.527 16.27c0 6.86-5.562 12.422-12.423 12.422-6.86 0-12.423-5.562-12.423-12.423 0-6.86 5.562-12.423 12.423-12.423S28.527 9.408 28.527 16.27"/><path fill="#426AB2" d="M16.104 5.003c-6.212 0-11.266 5.054-11.266 11.266s5.054 11.266 11.266 11.266S27.37 22.48 27.37 16.269 22.316 5.003 16.104 5.003m0 22.862c-6.394 0-11.596-5.202-11.596-11.596S9.71 4.673 16.104 4.673 27.7 9.875 27.7 16.27s-5.202 11.596-11.596 11.596"/><path fill="#243C80" d="M8.332 12.55a.938.938 0 11-1.876 0 .938.938 0 011.876 0"/><path fill="#5476BA" d="M8.187 12.504a.865.865 0 11-1.73 0 .865.865 0 011.73 0"/><path fill="#243C80" d="M8.332 20.035a.938.938 0 11-1.876 0 .938.938 0 011.876 0"/><path fill="#5476BA" d="M8.187 19.988a.866.866 0 11-1.731.001.866.866 0 011.731-.001"/><path fill="#D8E3F3" d="M7.325 20.506H2.967c-1.273 0-2.308-1.11-2.308-2.472v-3.53c0-1.363 1.035-2.471 2.308-2.471h4.358a.495.495 0 110 .99H2.967c-.727 0-1.317.665-1.317 1.481v3.53c0 .817.59 1.48 1.317 1.48h4.358a.496.496 0 010 .992"/><mask id="prefix__d" fill="#fff"><use xlink:href="#prefix__c"/></mask><path fill="#243C80" d="M15.313 26.806h1.558V5.004h-1.558z" mask="url(#prefix__d)"/><path fill="#FEFEFE" d="M15.591 26.806h1.002V5.004h-1.002z" mask="url(#prefix__d)"/><path fill="#243C80" d="M16.859 5.599H15.35a.354.354 0 01-.354-.354V3.737c0-.196.158-.354.354-.354h1.508c.195 0 .354.158.354.354v1.508a.355.355 0 01-.354.354" mask="url(#prefix__d)"/><path fill="#5476BA" d="M15.591 5.599h1.002V3.383h-1.002z" mask="url(#prefix__d)"/><path fill="#243C80" d="M16.859 28.973H15.35a.353.353 0 01-.354-.354v-1.507c0-.196.158-.355.354-.355h1.508c.195 0 .354.159.354.355v1.507a.354.354 0 01-.354.354" mask="url(#prefix__d)"/><path fill="#5476BA" d="M15.591 28.973h1.002v-2.216h-1.002z" mask="url(#prefix__d)"/><path fill="#C3D1EB" d="M27.802 6.064H15.32a.632.632 0 00-.632.633v.687c0 .35.283.633.632.633h7.731c1.185 0 2.145.96 2.145 2.144v12.032c0 1.184-.96 2.144-2.145 2.144h-8.008a.356.356 0 00-.355.356v1.241c0 .197.159.356.355.356h12.76a1.39 1.39 0 001.391-1.391V7.455a1.39 1.39 0 00-1.39-1.391" mask="url(#prefix__d)"/><path fill="#D0DEF1" d="M15.042 24.585a.107.107 0 00-.108.107v1.242c0 .06.049.108.108.108h12.76c.63 0 1.144-.513 1.144-1.143V7.455c0-.63-.513-1.143-1.144-1.143H15.32a.385.385 0 00-.385.385v.687c0 .212.173.385.385.385h7.731a2.394 2.394 0 012.392 2.392v12.032a2.395 2.395 0 01-2.392 2.392h-8.008zm12.76 1.952h-12.76a.603.603 0 01-.603-.603v-1.242c0-.332.27-.603.603-.603h8.008c1.046 0 1.897-.85 1.897-1.896V10.16c0-1.046-.85-1.897-1.897-1.897h-7.73a.88.88 0 01-.881-.88v-.687a.88.88 0 01.88-.88h12.483c.904 0 1.64.735 1.64 1.638v17.444c0 .903-.736 1.638-1.64 1.638z" mask="url(#prefix__d)"/><path fill="#C3D1EB" d="M23.206 16.27a7.114 7.114 0 11-14.227 0 7.114 7.114 0 0114.227-.001" mask="url(#prefix__d)"/><path fill="#8CA1D2" d="M21.122 16.154a5.03 5.03 0 11-10.06 0 5.03 5.03 0 0110.06 0" mask="url(#prefix__d)"/><path fill="#5476BA" d="M16.433 11.5h-.686a.18.18 0 01-.178-.157l-.186-1.45a.18.18 0 01.178-.202h1.058c.108 0 .191.094.177.202l-.185 1.45a.18.18 0 01-.178.156" mask="url(#prefix__d)"/><path fill="#243C80" d="M16.619 9.69h-.073c-.04.146-.229.256-.456.256s-.416-.11-.456-.255h-.073a.179.179 0 00-.178.201l.186 1.45a.18.18 0 00.178.157h.686a.18.18 0 00.178-.156l.185-1.45a.179.179 0 00-.177-.202" mask="url(#prefix__d)"/><path fill="#FEFEFE" d="M15.846 13.844h.488v-2.345h-.488z" mask="url(#prefix__d)"/><path fill="#5476BA" d="M19.549 13.1l-.486-.485a.18.18 0 01-.015-.236l.895-1.157a.178.178 0 01.268-.017l.748.748a.18.18 0 01-.017.268l-1.157.894a.176.176 0 01-.236-.015" mask="url(#prefix__d)"/><path fill="#243C80" d="M20.959 11.953l-.051-.052c-.132.075-.343.02-.504-.141-.16-.161-.216-.372-.142-.504l-.051-.051a.179.179 0 00-.268.017l-.895 1.157a.18.18 0 00.015.236l.486.485c.064.064.165.07.236.015l1.157-.894a.18.18 0 00.017-.268" mask="url(#prefix__d)"/><path fill="#FEFEFE" d="M17.82 14.688l-.345-.345 1.658-1.658.346.345z" mask="url(#prefix__d)"/><path fill="#5476BA" d="M20.62 16.436v-.687c0-.09.067-.166.156-.177l1.45-.186a.179.179 0 01.202.177v1.058a.179.179 0 01-.201.178l-1.451-.186a.177.177 0 01-.156-.177" mask="url(#prefix__d)"/><path fill="#243C80" d="M22.428 16.621v-.072c-.145-.041-.256-.23-.256-.457s.11-.416.256-.456v-.073a.18.18 0 00-.202-.177l-1.45.186a.177.177 0 00-.156.177v.687c0 .09.067.166.156.177l1.45.186a.18.18 0 00.202-.178" mask="url(#prefix__d)"/><path fill="#FEFEFE" d="M18.275 16.336h2.345v-.488h-2.345z" mask="url(#prefix__d)"/><path fill="#5476BA" d="M19.019 19.551l.485-.485a.179.179 0 01.236-.015l1.157.894a.179.179 0 01.017.268l-.748.748a.178.178 0 01-.268-.017l-.894-1.157a.177.177 0 01.015-.236" mask="url(#prefix__d)"/><path fill="#243C80" d="M20.166 20.961l.052-.051c-.075-.131-.02-.343.141-.504.161-.16.372-.216.504-.141l.051-.052a.179.179 0 00-.017-.268l-1.157-.894a.179.179 0 00-.236.015l-.485.485a.18.18 0 00-.016.236l.895 1.157a.178.178 0 00.268.017" mask="url(#prefix__d)"/><path fill="#FEFEFE" d="M17.43 17.823l.346-.346 1.658 1.659-.345.345z" mask="url(#prefix__d)"/><path fill="#5476BA" d="M15.683 20.622h.687a.18.18 0 01.178.156l.185 1.45a.18.18 0 01-.177.203h-1.058a.18.18 0 01-.178-.202l.186-1.45a.178.178 0 01.177-.157" mask="url(#prefix__d)"/><path fill="#243C80" d="M15.498 22.43h.072c.04-.145.23-.255.457-.255s.415.11.456.256h.073a.18.18 0 00.177-.202l-.185-1.45a.18.18 0 00-.178-.157h-.687a.178.178 0 00-.177.156l-.186 1.45a.18.18 0 00.178.203" mask="url(#prefix__d)"/><path fill="#FEFEFE" d="M15.783 20.622h.488v-2.345h-.488z" mask="url(#prefix__d)"/><path fill="#5476BA" d="M12.568 19.021l.485.485c.064.064.07.165.015.236l-.894 1.157a.179.179 0 01-.268.018l-.748-.748a.179.179 0 01.017-.269l1.157-.894a.179.179 0 01.236.015" mask="url(#prefix__d)"/><path fill="#243C80" d="M11.158 20.169l.051.051c.131-.074.343-.02.504.142.16.16.216.372.141.503l.052.051a.178.178 0 00.268-.017l.894-1.157a.177.177 0 00-.015-.235l-.485-.486a.179.179 0 00-.236-.015l-1.157.894a.179.179 0 00-.017.269" mask="url(#prefix__d)"/><path fill="#FEFEFE" d="M14.296 17.433l.345.345-1.658 1.658-.345-.345z" mask="url(#prefix__d)"/><path fill="#5476BA" d="M11.497 15.686v.686a.18.18 0 01-.156.178l-1.451.185a.18.18 0 01-.202-.177V15.5c0-.108.095-.191.202-.177l1.45.185a.18.18 0 01.157.178" mask="url(#prefix__d)"/><path fill="#243C80" d="M9.688 15.5v.073c.146.04.256.229.256.456s-.11.416-.256.456v.073c0 .108.095.191.202.177l1.45-.185a.18.18 0 00.157-.178v-.686a.18.18 0 00-.156-.178l-1.451-.185a.18.18 0 00-.202.177" mask="url(#prefix__d)"/><path fill="#FEFEFE" d="M11.497 16.273h2.345v-.488h-2.345z" mask="url(#prefix__d)"/><path fill="#5476BA" d="M13.098 12.57l-.486.486a.18.18 0 01-.236.015l-1.157-.895a.18.18 0 01-.017-.268l.748-.748a.18.18 0 01.269.017l.894 1.157a.179.179 0 01-.015.236" mask="url(#prefix__d)"/><path fill="#243C80" d="M11.95 11.16l-.051.052c.074.13.019.342-.142.503-.16.16-.372.216-.503.142l-.052.051a.18.18 0 00.017.268l1.157.895a.18.18 0 00.236-.015l.486-.486a.179.179 0 00.015-.236l-.894-1.157a.18.18 0 00-.269-.017" mask="url(#prefix__d)"/><path fill="#FEFEFE" d="M14.686 14.299l-.345.345-1.658-1.658.345-.346z" mask="url(#prefix__d)"/><path fill="#E6F5FC" d="M20.092 16.27a4 4 0 11-8 0 4 4 0 018 0" mask="url(#prefix__d)"/><path fill="#243C80" fill-rule="nonzero" d="M19.2 14.141l-2.92 5.057v-1.11l1.965-3.402.955-.544v-.001zm-6 .006l.955.545 1.961 3.396v1.11L13.2 14.146zm4.533.747l-1.535 2.658-1.535-2.658h3.07zM19.115 14l-.973.555h-3.894L13.276 14h5.839z" mask="url(#prefix__d)"/><path stroke="#233E83" stroke-width=".5" d="M20.092 16.27a4 4 0 11-8 0 4 4 0 018 0z" mask="url(#prefix__d)"/><path fill="#FEFEFE" d="M12.006 8.823a1.504 1.504 0 11-3.008 0 1.504 1.504 0 013.008 0" mask="url(#prefix__d)"/><path fill="#6E89C5" d="M9.724 7.942a1.174 1.174 0 101.554 1.761 1.174 1.174 0 00-1.554-1.761" mask="url(#prefix__d)"/><path fill="#253C7F" d="M10.502 7.73a1.094 1.094 0 101.093 1.093c0-.603-.49-1.093-1.093-1.093m0 2.35a1.259 1.259 0 01-1.258-1.257 1.259 1.259 0 012.516 0c0 .693-.564 1.257-1.258 1.257" mask="url(#prefix__d)"/><path fill="#243C80" d="M10.438 8.714l.079-.889.107.889zm.212.094l.736.505-.828-.343zm-.186.138l-.801.393.705-.552z" mask="url(#prefix__d)"/><path fill="#FEFEFE" d="M10.694 8.823a.177.177 0 11-.355 0 .177.177 0 01.355 0m1.312 14.662a1.504 1.504 0 11-3.008 0 1.504 1.504 0 013.008 0" mask="url(#prefix__d)"/><path fill="#6E89C5" d="M9.724 22.603a1.176 1.176 0 101.557 1.762 1.176 1.176 0 00-1.557-1.762" mask="url(#prefix__d)"/><path fill="#253C7F" d="M10.502 22.392c-.602 0-1.093.49-1.093 1.092a1.094 1.094 0 002.186 0c0-.602-.49-1.092-1.093-1.092m0 2.35a1.259 1.259 0 01-1.258-1.258 1.259 1.259 0 012.516 0c0 .694-.564 1.258-1.258 1.258" mask="url(#prefix__d)"/><path fill="#243C80" d="M10.438 23.376l.079-.889.107.889zm.212.094l.736.505-.828-.344zm-.186.138l-.801.393.705-.552z" mask="url(#prefix__d)"/><path fill="#FEFEFE" d="M10.694 23.485c0 .097-.08.177-.177.177a.178.178 0 01-.178-.177c0-.098.08-.178.178-.178.097 0 .177.08.177.178" mask="url(#prefix__d)"/><path fill="#243C80" d="M32.557 30.428h1.984V2.344h-1.984z" mask="url(#prefix__d)"/><path fill="#6E89C5" d="M33.549 30.428h.699V2.344h-.699z" mask="url(#prefix__d)"/><path fill="#5476BA" d="M35.646 9.998H29.44V7.455h6.205c.16 0 .29.13.29.29v1.964a.29.29 0 01-.29.289m-1-6.185h-2.103a.335.335 0 01-.334-.334V1.376c0-.184.15-.334.334-.334h2.103c.184 0 .334.15.334.334V3.48c0 .184-.15.334-.334.334m1.001 18.514H29.44v2.543h6.205c.16 0 .29-.13.29-.29v-1.964a.29.29 0 00-.29-.29m-1 6.186h-2.103a.335.335 0 00-.334.334v2.103c0 .184.15.333.334.333h2.103c.184 0 .334-.15.334-.333v-2.103a.335.335 0 00-.334-.334" mask="url(#prefix__d)"/><path fill="#243C80" d="M29.441 9.998h.264V7.455h-.264zm0 14.873h.264v-2.543h-.264zm2.653 0h.228v-2.543h-.228zm2.602 0h.228v-2.543h-.228zM32.094 9.998h.228V7.455h-.228zm2.606 0h.228V7.455H34.7z" mask="url(#prefix__d)"/><path fill="#5476BA" d="M35.601 6.575h-4.12a.334.334 0 01-.335-.333V4.825c0-.185.15-.334.334-.334h4.121c.185 0 .334.15.334.334v1.417c0 .184-.15.333-.334.333" mask="url(#prefix__d)"/><path fill="#243C80" d="M31.971 6.575h3.223V4.491h-3.223z" mask="url(#prefix__d)"/><path fill="#5476BA" d="M34.645 6.928h-2.103a.335.335 0 01-.334-.334V4.492c0-.185.15-.334.334-.334h2.103c.184 0 .334.15.334.334v2.102c0 .184-.15.334-.334.334m.956 20.91h-4.12a.334.334 0 01-.335-.333v-1.417c0-.185.15-.334.334-.334h4.121c.185 0 .334.15.334.334v1.417c0 .184-.15.333-.334.333" mask="url(#prefix__d)"/><path fill="#243C80" d="M31.971 27.838h3.223v-2.084h-3.223z" mask="url(#prefix__d)"/><path fill="#5476BA" d="M34.645 28.19h-2.103a.334.334 0 01-.334-.333v-2.103c0-.184.15-.333.334-.333h2.103c.184 0 .334.149.334.333v2.103c0 .184-.15.334-.334.334" mask="url(#prefix__d)"/></g></svg>
