<svg xmlns="http://www.w3.org/2000/svg" width="56" height="56"><defs><linearGradient id="prefix__a" x1="50%" x2="50%" y1="100%" y2="0%"><stop offset="0%" stop-color="#FFCD63"/><stop offset="100%" stop-color="#FF7F3F"/></linearGradient><linearGradient id="prefix__b" x1="50%" x2="50%" y1="100%" y2="0%"><stop offset="0%" stop-color="#FFCD63"/><stop offset="100%" stop-color="#FF7F3F"/></linearGradient></defs><g fill="none" fill-rule="evenodd"><path fill="url(#prefix__a)" d="M42.844 34.616c0-.183.02-.345-.003-.501-.258-1.792-1.173-3.126-2.814-3.905-.362-.171-.457-.366-.449-.734.022-1 .008-.902.008-1.925h-3.28c0 1.036-.018.94.01 1.94.01.383-.116.561-.465.726-2.558 1.21-3.587 4.249-2.255 6.718.928 1.718 2.423 2.56 4.363 2.642.899.038 1.57.69 1.623 1.545.05.82-.552 1.574-1.377 1.721-.8.144-1.578-.366-1.838-1.205-.041-.133-.075-.268-.11-.394h-3.21c0 .183-.019.344.003.5.251 1.797 1.176 3.124 2.813 3.905.362.173.456.368.448.736-.022.999-.008.9-.008 1.923h3.28c0-.98.02-.83-.009-1.776-.014-.461.093-.712.556-.95 1.882-.964 2.844-2.561 2.71-4.674-.133-2.08-1.243-3.554-3.207-4.292-.55-.207-1.168-.259-1.76-.326-.852-.096-1.517-.729-1.566-1.555-.05-.823.552-1.573 1.378-1.72.782-.138 1.555.352 1.817 1.155.05.15.09.303.13.446h3.212zM56 39.246c-.177 1.001-.305 2.014-.539 3.003-1.754 7.421-8.282 13.039-15.872 13.683-9.226.783-17.4-5.286-19.335-14.357-2.087-9.785 4.583-19.717 14.384-21.418 9.448-1.64 18.23 3.907 20.742 13.134.295 1.083.418 2.214.62 3.323v2.631z"/><path d="M.003 37.032c.08.02.14.017.171.046 2.534 2.381 5.579 3.75 8.844 4.672a31.038 31.038 0 007.45 1.142c.49.016.718.165.84.682.469 1.978 1.275 3.82 2.29 5.567.071.124.132.255.273.528-.873 0-1.648.02-2.422-.003-4.17-.125-8.213-.841-11.965-2.818-1.675-.882-3.183-1.996-4.29-3.6-.786-1.138-1.213-2.394-1.193-3.8.011-.796.002-1.592.002-2.416zm.001-9.935c4.946 4.354 10.868 5.607 17.157 5.963-.453 2.167-.726 4.317-.487 6.682-1.682-.236-3.27-.394-4.831-.69-2.838-.54-5.567-1.445-7.945-3.16-.95-.686-1.813-1.539-2.576-2.437C.38 32.348-.03 30.986.002 29.503c.016-.773.002-1.547.002-2.406zM.002 17.16c.9.671 1.726 1.359 2.618 1.94 2.821 1.84 5.945 2.862 9.21 3.453 3.569.645 7.155.746 10.75.264-.879 1.177-1.783 2.269-2.552 3.453-.649 1-1.13 2.114-1.712 3.163-.094.17-.324.375-.488.372-4.559-.07-8.962-.843-12.996-3.179-1.432-.83-2.704-1.864-3.658-3.267C.406 22.232-.016 20.99 0 19.6c.01-.81.002-1.621.002-2.439zM19.997.015c1.146.146 2.298.253 3.436.443 3.004.503 5.88 1.399 8.423 3.128.89.604 1.736 1.324 2.449 2.129 2.437 2.749 2.35 6.13-.16 8.814-1.821 1.947-4.122 3.106-6.612 3.904-4.958 1.589-10.01 1.79-15.12.912-2.891-.497-5.668-1.35-8.14-2.977-.885-.581-1.744-1.259-2.452-2.04-2.461-2.717-2.412-5.993.053-8.71C3.599 3.715 5.796 2.552 8.16 1.68 10.6.78 13.133.292 15.726.11c.158-.011.313-.062.469-.095h3.802z" fill="url(#prefix__b)"/></g></svg>
