<svg xmlns="http://www.w3.org/2000/svg" width="20" height="20"><path d="M14.359 0H5.64C2.256 0 0 2.42 0 5.893v8.214C0 17.583 2.25 20 5.641 20h8.718C17.75 20 20 17.583 20 14.107V5.893C20 2.417 17.75 0 14.359 0zM5.64 1.395h8.718c2.597 0 4.246 1.77 4.246 4.498v8.214c0 2.727-1.649 4.498-4.246 4.498H5.64c-2.597 0-4.246-1.77-4.246-4.498V5.893c0-2.724 1.654-4.498 4.246-4.498zm5.086 3.784a.698.698 0 00-1.389.095v9.435l.006.094a.698.698 0 001.389-.094V5.274l-.006-.095zm-4.34 3.053a.698.698 0 00-1.389.095v6.382l.006.094a.698.698 0 001.389-.094V8.327l-.006-.095zm7.92 2.77c.353 0 .645.262.691.603l.006.094v3.01a.697.697 0 01-1.389.094l-.006-.094v-3.01c0-.385.312-.697.698-.697z" fill="#8F929A" fill-rule="evenodd"/></svg>
