<svg xmlns="http://www.w3.org/2000/svg" width="32" height="32"><g fill="none" fill-rule="evenodd"><path fill="#F7B500" d="M11.466 1.273h8.871v1.258h2.541V3.79h2.497v1.258h1.292v1.393h1.338v2.472h1.159v2.651h1.337v3.775h-1.248v5.077H27.96v2.562h-1.248v1.303h-2.586v1.258H21.63v1.348H10.218v-1.303H7.633v-1.213H5.047v-1.258H3.754v-2.697H2.551v-5.077H1.258v-3.775h1.293V9.002h1.337V6.486h1.204V5.138h1.203V3.835h2.586V2.621h2.541z"/><path fill="#1D1D1B" d="M11.481 0v1.273h8.856v1.258h2.541V1.168h-2.541V0zm11.397 3.79h2.496V2.531h-2.496zm6.385 5.123V6.361h-1.281V5.033h-1.285V3.7h-1.322v1.333h1.285v1.408h1.322v2.472h1.182v2.651h1.337V8.913zM3.828 25.594v1.293h1.263v1.294h1.256v1.27h2.481v1.294h2.594v1.251h8.941v-1.251h2.54v-1.294H20.31v1.251h-8.888v-1.251H8.94v-1.293H6.374v-1.271H5.111v-1.293zm5.02-24.321V2.47H6.34v1.348H5.008v1.349H3.759V6.39H2.551V8.9H1.223v2.661H0v8.915h1.258v2.597h1.287v2.521h1.283v-2.566H2.595v-2.616H1.258v-8.851h1.303v-2.51h1.327V6.515h1.209V5.167h1.248V3.818h2.531V2.621h2.605V1.273zm21.653 10.291v8.897h-1.258v2.532h-1.298v1.27h-1.23v2.602h-1.288v1.293h-2.524v1.293h2.594v-1.238h1.268v-1.299h1.288v-1.27h1.23v-2.531h1.297v-2.652h1.258v-8.897z"/><path fill="#F78F00" d="M30.53 15.339v5.122h-1.292v2.547h-1.293v1.256h-1.226v2.601h-1.293v1.293h-2.523v1.302H20.35v1.242h-8.928V29.46H8.94v-1.302H6.367v-1.27H5.101v-1.294H3.828v-2.478h1.278v1.255h2.527v1.223h2.585v1.234h11.393v-1.282h2.522v-1.282h2.52v-1.301h1.292v-2.547h1.293V15.34h1.292zm-26.7 5.073v2.628H2.55v-2.628h1.28zm-1.28-5.063v5.063H1.259v-5.063h1.293z"/><path fill="#FFF" fill-opacity=".506" d="M25.413 10.617h-2.118v-2.01h-2.097V6.388h-10.65v2.219H8.576v2.01H6.367v10.616h2.209v2.296h1.972v2.059h10.65v-2.059h2.097v-2.296h2.118z"/><path fill="#1D1D1B" d="M18.986 8.516v1.58h1.39v1.283h1.043v2.793h-1.362v1.401h-1.071v1.003h1.07v1.449h1.363v2.855h-1.362v1.41h-1.482v1.29h-5.13v-1.29H11.9v-1.41h-1.32v-2.588h1.32V16.85h1.21v-1.277H11.9v-1.401h-1.32v-2.793h1.32v-1.283h1.21v-1.58h5.876zm-1.554 8.204h-2.9v4.144h2.9V16.72zm0-5.387h-2.9v2.9h2.9v-2.9z"/></g></svg>
