<svg xmlns="http://www.w3.org/2000/svg" width="30" height="24"><defs><linearGradient id="prefix__a" x1="93.728%" x2="13.599%" y1="100%" y2="6.359%"><stop offset="0%" stop-color="#684FFF"/><stop offset="100%" stop-color="#32C5FF"/></linearGradient><linearGradient id="prefix__b" x1="100%" x2="0%" y1="43.239%" y2="56.761%"><stop offset="0%" stop-color="#0091FF"/><stop offset="100%" stop-color="#06C6FF"/></linearGradient><linearGradient id="prefix__c" x1="100%" x2="0%" y1="41.053%" y2="58.947%"><stop offset="0%" stop-color="#0091FF"/><stop offset="100%" stop-color="#06C6FF"/></linearGradient></defs><g fill="none" fill-rule="evenodd"><path fill="#B57104" d="M16.175 2.276a2.403 2.403 0 002.035 2.723L18.9.242a2.405 2.405 0 00-2.725 2.034M20.934 2.965a2.378 2.378 0 01-.83 1.493 2.396 2.396 0 01-1.894.541L18.9.242a2.405 2.405 0 012.034 2.723"/><path fill="#BF8E00" d="M18.438.175a2.403 2.403 0 10-.691 4.757 2.403 2.403 0 00.691-4.757"/><path fill="#B57104" d="M16.114 2.267a1.999 1.999 0 001.692 2.265l.573-3.956a1.997 1.997 0 00-2.265 1.691"/><path fill="#B57104" d="M18.38.575l-.574 3.958a2 2 0 00.573-3.958"/><path d="M17.853.162l-1.985 1.484a2.452 2.452 0 00-.152.559l2.717-2.03a2.403 2.403 0 00-.58-.013m1.392.282L15.743 3.06c.093.436.307.834.608 1.151l3.825-2.856a2.402 2.402 0 00-.931-.91" fill="#BF8E00" opacity=".404"/><path fill="#B57104" d="M11.973 2.867a2.403 2.403 0 002.455 2.352L14.325.412a2.405 2.405 0 00-2.352 2.455"/><path fill="#B57104" d="M16.78 2.764a2.396 2.396 0 01-.573 1.609 2.398 2.398 0 01-1.779.846L14.325.412a2.403 2.403 0 012.454 2.352"/><path fill="#BF8E00" d="M13.858.422a2.403 2.403 0 10.103 4.805 2.403 2.403 0 00-.103-4.805"/><path fill="#B57104" d="M11.911 2.868a2 2 0 002.041 1.957L13.867.827a1.999 1.999 0 00-1.956 2.041M13.867.827l.086 3.997a1.999 1.999 0 10-.086-3.997"/><path d="M13.28.506l-1.714 1.79a2.382 2.382 0 00-.058.576l2.345-2.45c-.198.005-.39.034-.572.084m1.418.049l-3.025 3.156c.165.415.44.773.79 1.036L15.767 1.3A2.396 2.396 0 0014.7.555" fill="#BF8E00" opacity=".404"/><path fill="#B57104" d="M7.92 5.033a2.403 2.403 0 003.081 1.435L9.356 1.951A2.404 2.404 0 007.92 5.033m4.517-1.646a2.381 2.381 0 01-.024 1.707 2.389 2.389 0 01-1.411 1.374L9.357 1.951a2.404 2.404 0 013.08 1.436"/><path fill="#BF8E00" d="M8.918 2.11a2.405 2.405 0 101.647 4.517A2.405 2.405 0 008.918 2.11"/><path fill="#B57104" d="M7.862 5.054a2 2 0 002.563 1.194L9.056 2.491a2 2 0 00-1.194 2.563"/><path fill="#B57104" d="M9.056 2.491l1.369 3.757a1.999 1.999 0 10-1.369-3.757"/><path d="M8.398 2.376L7.35 4.623c.02.189.063.378.13.565l1.434-3.075a2.379 2.379 0 00-.515.263m1.357-.411L7.91 5.928c.288.34.665.589 1.082.726l2.016-4.327a2.41 2.41 0 00-1.252-.362" fill="#BF8E00" opacity=".404"/><path fill="#B57104" d="M17.967 4.717a2.404 2.404 0 002.455 2.351l-.103-4.807a2.406 2.406 0 00-2.352 2.456"/><path fill="#B57104" d="M22.774 4.614a2.397 2.397 0 01-.573 1.609 2.4 2.4 0 01-1.779.845l-.103-4.806a2.403 2.403 0 012.455 2.352"/><path fill="#BF8E00" d="M19.853 2.272a2.403 2.403 0 10.101 4.806 2.403 2.403 0 00-.101-4.806"/><path fill="#B57104" d="M17.905 4.718a2 2 0 002.042 1.956l-.086-3.998a2 2 0 00-1.956 2.042"/><path fill="#B57104" d="M19.861 2.676l.086 3.998a2 2 0 00-.086-3.998"/><path d="M19.274 2.355l-1.715 1.79a2.433 2.433 0 00-.058.576l2.346-2.449c-.198.006-.39.034-.573.084m1.419.048L17.669 5.56c.163.415.44.773.79 1.036l3.303-3.447a2.419 2.419 0 00-1.07-.745" fill="#BF8E00" opacity=".404"/><path fill="#D48F04" d="M13.502 4.653a2.404 2.404 0 002.035 2.724l.689-4.758a2.404 2.404 0 00-2.724 2.034m4.758.69a2.383 2.383 0 01-.829 1.493 2.395 2.395 0 01-1.894.541l.69-4.758a2.403 2.403 0 012.033 2.724"/><path fill="#DEB000" d="M15.764 2.552a2.403 2.403 0 10-.689 4.758 2.403 2.403 0 10.689-4.758"/><path fill="#D48F04" d="M13.44 4.645a2 2 0 001.693 2.265l.573-3.957a1.998 1.998 0 00-2.265 1.692"/><path fill="#D48F04" d="M15.706 2.953l-.573 3.957a2 2 0 00.573-3.957"/><path d="M15.18 2.539l-1.987 1.484a2.49 2.49 0 00-.152.559l2.718-2.03a2.396 2.396 0 00-.579-.013m1.391.282l-3.502 2.616c.093.436.307.834.609 1.151l3.825-2.856c-.22-.38-.54-.697-.932-.911" fill="#DEB000" opacity=".404"/><path fill="#D48F04" d="M9.233 5.943a2.403 2.403 0 002.034 2.723l.69-4.757a2.403 2.403 0 00-2.724 2.034M13.99 6.632a2.37 2.37 0 01-.828 1.493 2.396 2.396 0 01-1.895.541l.69-4.757a2.405 2.405 0 012.034 2.723"/><path fill="#DEB000" d="M11.495 3.842a2.404 2.404 0 10-.69 4.76 2.404 2.404 0 00.69-4.76"/><path fill="#D48F04" d="M9.172 5.934a1.998 1.998 0 001.692 2.265l.573-3.957a2 2 0 00-2.265 1.692"/><path fill="#D48F04" d="M11.437 4.242L10.864 8.2a2 2 0 00.573-3.957"/><path d="M10.912 3.828L8.925 5.313a2.349 2.349 0 00-.152.56L11.49 3.84a2.388 2.388 0 00-.578-.012m1.39.282L8.8 6.728c.094.435.307.834.61 1.15l3.824-2.856c-.22-.38-.54-.697-.932-.91" fill="#DEB000" opacity=".404"/><path fill="#D48F04" d="M16.865 6.173A2.403 2.403 0 0018.9 8.896l.69-4.758a2.405 2.405 0 00-2.725 2.035m4.758.689a2.392 2.392 0 01-.829 1.493 2.402 2.402 0 01-1.894.541l.69-4.758a2.403 2.403 0 012.033 2.724"/><path fill="#DEB000" d="M19.127 4.071a2.404 2.404 0 10-.688 4.758 2.404 2.404 0 00.688-4.758"/><path fill="#D48F04" d="M16.804 6.164a1.999 1.999 0 001.692 2.265l.573-3.957a1.998 1.998 0 00-2.265 1.692"/><path fill="#D48F04" d="M19.07 4.472l-.574 3.957a2 2 0 00.573-3.957"/><path d="M18.544 4.058l-1.987 1.484a2.34 2.34 0 00-.152.559l2.717-2.031a2.38 2.38 0 00-.577-.012m1.39.282l-3.504 2.616c.094.436.308.834.61 1.151l3.824-2.856a2.402 2.402 0 00-.93-.911" fill="#DEB000"/><path fill="#F5A505" d="M3.924 8.932a2.404 2.404 0 003.081 1.436L5.36 5.85a2.403 2.403 0 00-1.436 3.081m4.517-1.644a2.381 2.381 0 01-.024 1.707 2.397 2.397 0 01-1.411 1.374L5.36 5.85a2.403 2.403 0 013.081 1.436"/><path fill="#FFCA00" d="M4.921 6.01a2.404 2.404 0 101.649 4.517A2.404 2.404 0 004.92 6.01"/><path fill="#F5A505" d="M3.866 8.953a1.998 1.998 0 002.562 1.195L5.06 6.39a1.998 1.998 0 00-1.194 2.562"/><path fill="#F5A505" d="M5.06 6.39l1.368 3.758A2 2 0 005.06 6.39"/><path d="M4.402 6.275L3.354 8.522c.02.189.063.378.13.564l1.433-3.074a2.292 2.292 0 00-.515.263m1.358-.411L3.914 9.826a2.4 2.4 0 001.082.727l2.016-4.328a2.42 2.42 0 00-1.252-.361" fill="#FFCA00" opacity=".35"/><path fill="#F5A505" d="M6.544 8.347a2.402 2.402 0 003.081 1.435L7.98 5.265a2.405 2.405 0 00-1.436 3.082m4.516-1.646a2.387 2.387 0 01-.023 1.708 2.397 2.397 0 01-1.412 1.373L7.98 5.265a2.405 2.405 0 013.081 1.436"/><path fill="#FFCA00" d="M7.541 5.425a2.404 2.404 0 101.644 4.518 2.404 2.404 0 00-1.643-4.518"/><path fill="#F5A505" d="M6.486 8.368a1.998 1.998 0 002.562 1.194L7.68 5.805a1.998 1.998 0 00-1.194 2.563M7.68 5.805l1.368 3.757A1.999 1.999 0 107.68 5.805"/><path fill="#FFCA00" d="M7.153 7.011a.185.185 0 01.01.084.11.11 0 00-.067.002c-.066.024-.108.1-.016.353.074.202.12.247.184.223a.215.215 0 00.085-.05.19.19 0 01.044.068c.02.055-.021.106-.11.138-.129.047-.216.005-.334-.32-.138-.378-.034-.488.07-.526.098-.036.122-.007.134.028m.415.316l.037-.01c.056-.016.076-.055.01-.191-.046-.094-.089-.13-.146-.115l-.05.013.149.303zm-.204-.43c.221-.06.37-.037.475.177.063.13.049.218-.003.28a.747.747 0 01.333.33c.012.025.009.035-.086.06-.03.009-.07.018-.115.028-.108-.204-.224-.289-.289-.324l-.03.01-.016.004.16.327c.013.027.01.028-.182.08l-.435-.891s-.013-.026.023-.035l.165-.046z"/><path fill="#FFCA00" d="M8.085 7.497c.008.024.011.023-.12.07l-.12-.331-.311-.405c-.013-.018-.011-.018.14-.073l.088.138c.033.053.09.161.115.211a2.29 2.29 0 01-.047-.236l-.019-.137c-.001-.026-.001-.026.13-.074l.029.52.115.317zm.499-.472c.08-.015.108-.055.007-.2-.058-.085-.119-.12-.199-.105l-.069.013.209.302.052-.01zm-.339-.42c.311-.06.522-.036.669.177.162.236-.036.34-.27.384l-.019.004.226.328c.018.026.016.027-.257.08l-.615-.892c-.011-.018-.01-.027.032-.035l.02-.004.214-.041z"/><path fill="#FFCA00" d="M8.77 6.358l.035.097c.007.019.002.026-.014.032l-.125.045.243.665c.008.024.006.024-.12.07l-.25-.688-.141.05-.036-.097c-.006-.016-.001-.025.015-.03l.393-.144z"/><path fill="#FFCA00" d="M9.517 7.079c.102-.024.072-.123-.06-.36-.13-.231-.19-.316-.299-.29-.098.022-.075.12.072.381.117.208.183.294.287.269m-.44-.805c.266-.062.42.016.627.381.208.373.155.516-.114.58-.267.062-.419-.004-.639-.396-.203-.36-.139-.502.126-.565M7.116 8.19c.01.03.012.06.01.084a.11.11 0 00-.067.002c-.067.024-.108.1-.017.352.074.203.12.247.186.224a.218.218 0 00.083-.05c.016.015.035.04.045.068.02.055-.022.105-.11.137-.13.047-.216.006-.334-.319-.139-.38-.035-.489.07-.527.097-.036.121-.006.134.029m.362.473c.027.076.054.107.114.085a.18.18 0 00.064-.04l-.242-.663c-.009-.025-.009-.025.122-.072l.282.776a.412.412 0 01-.183.116c-.18.067-.245-.03-.292-.158l-.204-.562c-.01-.025-.01-.025.124-.073l.215.591zm.517-.327l.037-.01c.056-.015.076-.054.01-.19-.046-.095-.089-.13-.145-.116l-.05.014.148.302zm-.205-.43c.222-.06.37-.036.476.178.063.13.049.218-.003.28.086.04.227.133.333.33.012.025.009.035-.086.06-.03.008-.071.018-.116.027-.108-.203-.223-.289-.288-.324l-.03.01-.015.005.16.326c.013.027.01.028-.182.08l-.435-.89s-.013-.027.022-.036l.164-.045z"/><path fill="#FFCA00" d="M8.405 8.187l.037-.01c.056-.016.077-.055.01-.191-.046-.094-.09-.13-.145-.115l-.05.013.148.303zm-.204-.43c.221-.06.37-.037.475.177.064.13.049.218-.003.28a.76.76 0 01.334.33c.011.025.008.035-.087.06-.03.009-.07.018-.116.027-.107-.203-.223-.289-.287-.323l-.032.01-.014.004.16.327c.013.026.01.027-.182.08l-.435-.891s-.013-.026.022-.036l.165-.045z"/><path fill="#FFCA00" d="M8.96 8.24c.04.107.041.114.02.123l-.27.098-.287-.785s-.007-.024.014-.032l.278-.1c.038.101.042.114.018.122l-.148.054.072.198.14-.052c.036.097.043.118.023.126l-.12.044.096.264.164-.06zm.099-.796c-.009-.023-.007-.024.12-.07l.285.785c.005.015 0 .027-.014.032l-.1.037-.235-.265a2.371 2.371 0 01-.165-.233c.045.088.088.19.114.261l.1.278c.01.023.008.023-.119.07l-.286-.786c-.006-.016-.002-.026.014-.031l.102-.037.233.26c.051.058.112.15.157.22a2.536 2.536 0 01-.108-.252l-.098-.27zm.527-.154c.01.03.011.061.01.084a.107.107 0 00-.068.003c-.065.024-.107.099-.016.352.075.202.12.247.185.223a.204.204 0 00.084-.05c.016.015.034.04.045.069.02.054-.022.104-.11.136-.13.047-.217.006-.335-.319-.138-.379-.034-.489.07-.526.098-.036.122-.007.135.028m.544.627c.01.023.012.023-.119.07l-.12-.332-.312-.404c-.013-.018-.01-.02.14-.074l.089.14c.033.052.09.16.115.21a2.254 2.254 0 01-.048-.237l-.018-.137c-.002-.025-.002-.025.129-.073l.03.52.115.317z"/><path d="M7.021 5.69L5.973 7.936c.02.189.063.378.13.564l1.434-3.074a2.427 2.427 0 00-.515.264m1.357-.411L6.533 9.241c.289.34.665.59 1.082.726L9.631 5.64a2.42 2.42 0 00-1.252-.361" fill="#FFCA00"/><path fill="#F5A505" d="M5.19 7.01a2.404 2.404 0 002.455 2.352l-.102-4.806A2.405 2.405 0 005.19 7.01m4.807-.102a2.4 2.4 0 01-2.352 2.454l-.102-4.806a2.403 2.403 0 012.454 2.352"/><path fill="#FFCA00" d="M7.076 4.566a2.403 2.403 0 10.101 4.806 2.403 2.403 0 00-.101-4.806"/><path fill="#F5A505" d="M5.129 7.012A1.998 1.998 0 007.17 8.968L7.084 4.97a1.999 1.999 0 00-1.955 2.042"/><path fill="#F5A505" d="M7.084 4.97l.086 3.998a1.999 1.999 0 10-.086-3.998"/><path d="M6.498 4.649l-1.716 1.79c-.04.185-.062.378-.058.576l2.347-2.45c-.198.005-.39.034-.573.084m1.418.049L4.892 7.854c.164.415.44.773.79 1.036l3.303-3.448a2.41 2.41 0 00-1.069-.744" fill="#FFCA00" opacity=".404"/><path fill="#D48F04" d="M22.08 5.937a2.402 2.402 0 003.08 1.435l-1.645-4.517a2.405 2.405 0 00-1.436 3.082m4.518-1.646a2.396 2.396 0 01-.024 1.707 2.396 2.396 0 01-1.412 1.374l-1.646-4.517a2.404 2.404 0 013.082 1.436"/><path fill="#DEB000" d="M23.077 3.015a2.402 2.402 0 00-1.435 3.081 2.404 2.404 0 101.435-3.081"/><path fill="#D48F04" d="M22.021 5.958a2 2 0 002.563 1.194l-1.368-3.757a2 2 0 00-1.195 2.563"/><path fill="#D48F04" d="M23.215 3.395l1.37 3.757a1.999 1.999 0 00-1.37-3.757"/><path d="M22.556 3.28l-1.047 2.247c.02.19.063.379.13.565l1.433-3.075a2.364 2.364 0 00-.516.263m1.358-.41L22.07 6.832c.289.34.665.589 1.081.726l2.016-4.327a2.41 2.41 0 00-1.253-.361" fill="#DEB000" opacity=".404"/><path fill="#F5A505" d="M9.135 7.515a2.403 2.403 0 001.593 3.003l1.41-4.596a2.403 2.403 0 00-3.003 1.593m4.596 1.41a2.398 2.398 0 01-1.048 1.348 2.392 2.392 0 01-1.954.245l1.41-4.596a2.404 2.404 0 011.593 3.003"/><path fill="#FFCA00" d="M11.692 5.785A2.402 2.402 0 008.69 7.378a2.402 2.402 0 104.595 1.41 2.404 2.404 0 00-1.593-3.003"/><path fill="#F5A505" d="M9.076 7.497a2 2 0 001.325 2.498l1.173-3.823a2 2 0 00-2.498 1.325"/><path fill="#F5A505" d="M11.574 6.172L10.4 9.995a2 2 0 001.173-3.823"/><path d="M11.118 5.682L8.926 6.845a2.42 2.42 0 00-.236.528l2.997-1.59a2.411 2.411 0 00-.57-.1m1.332.491L8.587 8.223c.026.445.176.87.426 1.23l4.217-2.235a2.404 2.404 0 00-.781-1.044" fill="#FFCA00" opacity=".404"/><path fill="#F5A505" d="M14.505 8.2a2.403 2.403 0 002.454 2.352l-.102-4.807A2.405 2.405 0 0014.505 8.2"/><path fill="#F5A505" d="M19.31 8.097a2.395 2.395 0 01-.572 1.61 2.394 2.394 0 01-1.779.845l-.102-4.807a2.404 2.404 0 012.454 2.352"/><path fill="#FFCA00" d="M16.39 5.755a2.405 2.405 0 00.103 4.807 2.404 2.404 0 10-.103-4.807"/><path fill="#F5A505" d="M14.443 8.202a1.999 1.999 0 002.041 1.956L16.4 6.16a2 2 0 00-1.956 2.042"/><path fill="#F5A505" d="M16.399 6.16l.085 3.998a2 2 0 00-.085-3.998"/><g fill="#FFCA00"><path d="M15.812 5.838l-1.715 1.79a2.395 2.395 0 00-.058.577l2.346-2.45c-.198.005-.39.033-.573.083"/><path d="M17.23 5.888l-3.024 3.155c.164.414.44.772.79 1.035l3.303-3.446a2.399 2.399 0 00-1.069-.746" opacity=".404"/></g><path fill="#F5A505" d="M19.312 7.437a2.402 2.402 0 002.455 2.351l-.103-4.806a2.403 2.403 0 00-2.352 2.455"/><path fill="#F5A505" d="M24.118 7.334a2.397 2.397 0 01-.572 1.609 2.4 2.4 0 01-1.779.845l-.103-4.806a2.403 2.403 0 012.454 2.352"/><path fill="#FFCA00" d="M21.197 4.992a2.403 2.403 0 10.103 4.805 2.403 2.403 0 00-.103-4.805"/><path fill="#F5A505" d="M19.25 7.438a2 2 0 002.041 1.956l-.085-3.997a1.998 1.998 0 00-1.956 2.041M21.206 5.397l.086 3.997a1.998 1.998 0 10-.086-3.997"/><path d="M20.62 5.074l-1.715 1.792a2.382 2.382 0 00-.058.576l2.346-2.451c-.198.006-.39.034-.573.084m1.418.049l-3.024 3.157c.164.414.44.772.79 1.035l3.304-3.447a2.419 2.419 0 00-1.07-.745" fill="#FFCA00" opacity=".404"/><path fill="#F5A505" d="M21.949 7.922a2.404 2.404 0 002.455 2.352L24.3 5.467a2.405 2.405 0 00-2.352 2.455"/><path fill="#F5A505" d="M26.755 7.82a2.397 2.397 0 01-.572 1.608 2.4 2.4 0 01-1.779.846L24.3 5.467a2.403 2.403 0 012.454 2.352"/><path fill="#FFCA00" d="M23.834 5.477a2.404 2.404 0 10.104 4.806 2.404 2.404 0 00-.104-4.806"/><path fill="#F5A505" d="M21.887 7.923a2 2 0 002.041 1.956l-.085-3.997a2 2 0 00-1.956 2.041M23.843 5.882l.086 3.997a1.998 1.998 0 10-.086-3.997"/><g fill="#FFCA00"><path d="M23.256 5.561l-1.715 1.79a2.382 2.382 0 00-.058.576l2.346-2.45c-.198.006-.39.034-.573.084"/><path d="M24.674 5.609l-3.023 3.159c.164.414.44.771.79 1.035l3.303-3.448a2.429 2.429 0 00-1.07-.746" opacity=".404"/></g><path fill="#F5A505" d="M11.984 7.808a2.403 2.403 0 002.454 2.352l-.102-4.806a2.403 2.403 0 00-2.352 2.454"/><path fill="#F5A505" d="M16.79 7.706a2.373 2.373 0 01-.572 1.609 2.404 2.404 0 01-1.78.845l-.102-4.806a2.403 2.403 0 012.454 2.352"/><path fill="#FFCA00" d="M13.87 5.364a2.403 2.403 0 10.103 4.805 2.403 2.403 0 00-.104-4.805"/><path fill="#F5A505" d="M11.922 7.81a2 2 0 002.041 1.956l-.085-3.998a2 2 0 00-1.956 2.042"/><path fill="#F5A505" d="M13.878 5.768l.085 3.998a1.999 1.999 0 10-.085-3.998"/><path d="M13.291 5.446l-1.715 1.79a2.395 2.395 0 00-.058.577l2.346-2.45c-.198.005-.39.034-.573.084m1.419.049l-3.026 3.155c.164.414.44.772.79 1.036l3.306-3.446c-.28-.339-.648-.6-1.07-.746" fill="#FFCA00" opacity=".404"/><path fill="#596EFF" d="M3.398 23.181h13.627V8.611H3.398z"/><path fill="url(#prefix__a)" d="M14.024 23.181H27.65V8.611H14.024z"/><path fill="url(#prefix__b)" d="M29.294 14.226H15.668l-.352-1.204-1.291-4.411h13.626z"/><path fill="url(#prefix__c)" d="M.75 14.226l2.648-5.615h10.626l-1.891 5.615z"/></g></svg>
