<svg xmlns="http://www.w3.org/2000/svg" width="24" height="32"><defs><linearGradient id="prefix__a" x1="50%" x2="50%" y1="0%" y2="100%"><stop offset="0%" stop-color="#00DDC2"/><stop offset="100%" stop-color="#03C187"/></linearGradient></defs><g fill-rule="nonzero" fill="none"><path fill="#A5FDFF" d="M15.61 8.034l-.7-.833c.458-.4 1.06-.594 1.665-.533a1.244 1.244 0 001.406-1.181 2.313 2.313 0 012.48-2.08c.345.04.693-.062.964-.28l.699.832a2.24 2.24 0 01-1.664.535 1.222 1.222 0 00-.964.28c-.269.224-.43.552-.445.901a2.278 2.278 0 01-.815 1.546 2.244 2.244 0 01-1.662.534 1.216 1.216 0 00-.965.279z"/><path fill="#A5FDFF" d="M17.602 8.806a2.392 2.392 0 01-1.278-.41 1.247 1.247 0 00-.974-.243l-.19-1.07a2.286 2.286 0 011.709.369 1.243 1.243 0 001.808-.319 2.314 2.314 0 013.187-.562c.277.213.631.3.975.24l.19 1.07a2.282 2.282 0 01-1.709-.369 1.245 1.245 0 00-1.81.32c-.35.494-.882.829-1.479.93a2.469 2.469 0 01-.43.044z"/><path fill="url(#prefix__a)" d="M23.95 19.568v9.783a2.175 2.175 0 01-2.174 2.175H2.208c-1.2 0-2.174-.974-2.174-2.175v-9.783C.032 13.563 4.9 8.695 10.904 8.697h2.175c6.005-.002 10.873 4.866 10.87 10.87z"/><path fill="#000" fill-opacity=".228" d="M19.058 20.655a7.067 7.067 0 11-14.133-.001 7.067 7.067 0 0114.133.001z"/><path fill="#00CCB3" d="M17.427 1.087L14.71 6.523H9.274L6.557 1.087C7.915 1.087 7.915 0 9.274 0c1.36 0 1.36 1.087 2.723 1.087C13.362 1.087 13.357 0 14.71 0s1.359 1.087 2.717 1.087z"/><path fill="#A5FDFF" d="M15.797 7.61v.01a1.092 1.092 0 01-1.087 1.077H9.274A1.097 1.097 0 018.187 7.61a1.09 1.09 0 011.087-1.087h5.436a1.095 1.095 0 011.087 1.087zM15.254 22.829a1.087 1.087 0 11-2.175 0 1.087 1.087 0 012.175 0zm-4.348-4.348a1.087 1.087 0 11-2.175 0 1.087 1.087 0 012.175 0zm-2.559 5.051l6.523-6.523.769.769L9.116 24.3z"/></g></svg>
