<svg xmlns="http://www.w3.org/2000/svg" xmlns:xlink="http://www.w3.org/1999/xlink" width="60" height="120"><defs><path id="prefix__a" d="M40.547 13.449c-6.507 3.757-17.057 3.757-23.565 0-6.103-3.524-6.482-9.1-1.137-12.88-2.569.77-4.98 1.775-7.136 3.02-1.632.942-3.027 1.97-4.188 3.057H.23v8.76c.002 4.277 2.827 8.554 8.478 11.816 11.305 6.527 29.632 6.527 40.936 0 5.65-3.262 8.477-7.539 8.477-11.815V6.646h-4.29c-1.16-1.087-2.556-2.114-4.188-3.057-2.546-1.47-5.452-2.606-8.55-3.414 5.954 3.776 5.773 9.625-.547 13.274"/><path id="prefix__d" d="M12.104.175c3.1.808 6.005 1.944 8.552 3.414 1.632.943 3.026 1.97 4.188 3.057h4.289v8.76c0 4.277-2.826 8.554-8.477 11.816-5.652 3.263-13.06 4.896-20.468 4.895V16.26c4.126-.058 8.222-.994 11.37-2.812"/><path id="prefix__g" d="M8.71 4.989c-11.304 6.526-11.304 17.107 0 23.633s29.63 6.527 40.935 0c11.303-6.525 11.303-17.107 0-23.633C43.991 1.726 36.583.094 29.175.094c-7.408 0-14.815 1.631-20.467 4.895m8.48 18.62c-6.508-3.758-6.508-9.85-.001-13.606 6.508-3.757 17.058-3.757 23.565 0 6.508 3.757 6.508 9.849 0 13.605-3.253 1.88-7.518 2.818-11.782 2.818s-8.53-.939-11.783-2.818"/><path id="prefix__j" d="M8.204 4.98c-10.522 6.076-10.521 15.926.001 22.001 10.522 6.076 27.583 6.076 38.106 0 10.522-6.074 10.522-15.925-.001-22C41.049 1.944 34.153.425 27.258.425c-6.896 0-13.792 1.519-19.054 4.556m7.674 17.57c-6.285-3.628-6.285-9.511 0-13.14 6.284-3.629 16.475-3.629 22.76 0 6.284 3.629 6.284 9.512 0 13.14-3.142 1.815-7.261 2.722-11.38 2.722-4.119 0-8.238-.907-11.38-2.722"/><path id="prefix__m" d="M32.561.645v83.923h-.011c.08 2.437-1.478 4.888-4.7 6.747-6.284 3.629-16.474 3.629-22.759 0C1.92 89.485.353 87.08.382 84.68H.378V.645"/><path id="prefix__p" d="M.531.229l.034.003C.61.242.65.272.67.318l.012.038a.152.152 0 01-.087.162L.383.615.253.34.36.292.464.244.467.243A.158.158 0 01.531.229"/><path id="prefix__r" d="M29.282.313l1.332.037 1.332.037 2.657.215c.883.1 1.761.24 2.641.36.878.14 1.745.342 2.618.51.869.188 1.72.448 2.58.67.856.242 1.688.56 2.533.838.834.308 1.642.685 2.465 1.023.802.386 1.583.817 2.375 1.223l.011.007a25.304 25.304 0 013.155 2.163c.991.803 1.914 1.7 2.712 2.702.797 1 1.468 2.112 1.936 3.309.47 1.196.73 2.478.736 3.766 0 2.474-.983 4.865-2.467 6.797-1.486 1.947-3.409 3.518-5.485 4.78l-.597.363c-.052-.087-.102-.175-.152-.262l.59-.36c2.054-1.247 3.946-2.797 5.403-4.705 1.454-1.893 2.403-4.217 2.405-6.613a10.203 10.203 0 00-.715-3.655 12.58 12.58 0 00-1.891-3.231 17.398 17.398 0 00-2.667-2.656 25.04 25.04 0 00-3.114-2.135l-.013-.007c-.784-.402-1.556-.828-2.35-1.21-.815-.336-1.616-.71-2.442-1.014-.839-.275-1.664-.592-2.513-.833-.854-.219-1.7-.478-2.562-.664-.867-.167-1.728-.367-2.599-.507-.876-.118-1.748-.26-2.625-.358L31.93.69 30.604.653l-.661-.018-.662-.018-2.649.073-2.64.213c-.878.098-1.75.24-2.626.358-.87.139-1.731.34-2.598.506-.863.186-1.708.445-2.563.664-.85.24-1.674.558-2.513.832-.827.305-1.627.679-2.443 1.014-.402.177-.784.4-1.177.599L8.9 5.487l-.011.007a24.946 24.946 0 00-3.116 2.134 19.69 19.69 0 00-1.406 1.256c-.217.228-.44.449-.651.68l-.61.719a15.119 15.119 0 00-1.068 1.546c-.146.277-.318.541-.446.826-.127.285-.277.562-.377.858a8.209 8.209 0 00-.304.887 7.304 7.304 0 00-.223.909c-.076.304-.096.617-.14.925-.036.31-.03.623-.05.935a10.2 10.2 0 00.716 3.655c.224.584.511 1.142.823 1.685.157.27.34.526.507.791.18.256.376.503.562.755.396.488.815.955 1.26 1.4.074.074.15.146.226.218l.462.426c.227.219.48.407.719.611.238.206.495.39.746.579.25.19.506.375.77.546.264.172.517.361.79.519l.81.49c.002.003.007.005.01.008a31.742 31.742 0 004.4 2.081 38.2 38.2 0 002.303.799c.39.115.775.245 1.17.344.393.103.782.22 1.179.31.79.195 1.585.365 2.384.516.4.07.8.15 1.201.21l1.207.177 1.211.147 1.215.117 1.217.085c.406.02.813.038 1.219.056l.014.001.663.014.662.013.662-.005.663-.004a50.198 50.198 0 006.695-.59l1.105-.19 1.1-.217a43.137 43.137 0 003.258-.824c.358-.105.716-.21 1.069-.332.353-.121.711-.228 1.06-.364.348-.132.702-.254 1.047-.396l1.033-.429.39-.177.629-.287.131.274-.636.29-.392.178-1.043.434c-.117.047-.234.093-.351.137l-.706.262c-.35.137-.712.245-1.068.367-.355.123-.716.228-1.077.335-.36.11-.723.213-1.087.305-.726.199-1.46.364-2.195.523l-1.107.22-1.112.19c-.744.113-1.489.221-2.236.299a51.314 51.314 0 01-4.5.296l-.668.004-.666.004-.667-.013-.666-.013h-.014l-1.227-.057-1.224-.087-1.223-.117-1.218-.147-.406-.056-.809-.123c-.135-.02-.27-.042-.404-.066l-.805-.145a44.351 44.351 0 01-2.4-.52c-.4-.09-.792-.209-1.189-.312a9.267 9.267 0 01-.395-.11l-.783-.237a37.472 37.472 0 01-2.322-.806 31.723 31.723 0 01-4.442-2.101l-.012-.008-.818-.496a5.302 5.302 0 01-.27-.168l-.53-.356c-.268-.174-.526-.36-.78-.555-.256-.19-.515-.377-.757-.586-.242-.208-.5-.398-.73-.62-.232-.22-.474-.428-.699-.656-.453-.452-.88-.928-1.283-1.426-.191-.257-.39-.508-.574-.771-.172-.27-.358-.532-.519-.81a12.27 12.27 0 01-.844-1.728 10.487 10.487 0 01-.737-3.766c.018-.321.014-.645.052-.964.044-.32.066-.641.143-.954.06-.316.13-.63.23-.937a8.36 8.36 0 01.312-.911c.104-.305.257-.589.388-.882.131-.292.306-.563.457-.847.328-.55.698-1.075 1.092-1.58l.622-.732c.214-.237.441-.462.662-.694.459-.445.93-.876 1.429-1.276a25.345 25.345 0 013.154-2.16l.013-.008 1.183-.618c.398-.2.784-.425 1.19-.604.823-.34 1.632-.716 2.466-1.024.845-.277 1.677-.596 2.532-.838.86-.22 1.713-.482 2.582-.669.872-.169 1.74-.37 2.617-.51C22.199.843 23.077.7 23.96.6l2.657-.215"/><path id="prefix__t" d="M.647.417l.155.26-.1.061-.1.06-.003.003-.003.001-.037.015a.15.15 0 01-.165-.07L.377.71A.15.15 0 01.444.54L.45.536l.197-.12z"/><path id="prefix__v" d="M.61.227l.198.12.005.003.032.025A.156.156 0 01.864.56L.839.59a.153.153 0 01-.177.023L.659.61.656.609l-.1-.06-.1-.06L.61.226z"/><path id="prefix__x" d="M29.28.124l1.332.036 1.332.038c.886.071 1.772.142 2.657.215.883.098 1.762.24 2.642.359.877.14 1.744.342 2.617.51.869.188 1.72.449 2.582.67.855.242 1.687.561 2.532.839.834.307 1.642.684 2.465 1.023.802.385 1.582.816 2.374 1.223l.013.006c1.1.645 2.161 1.359 3.154 2.162.992.804 1.915 1.7 2.712 2.702.798 1.002 1.47 2.113 1.937 3.31.47 1.196.73 2.478.736 3.766 0 2.475-.983 4.865-2.467 6.797-1.486 1.948-3.409 3.519-5.485 4.781l-.597.363-.152-.262.59-.36c2.054-1.247 3.947-2.797 5.403-4.705 1.454-1.894 2.403-4.217 2.405-6.614a10.209 10.209 0 00-.716-3.655c-.455-1.165-1.11-2.25-1.891-3.231a17.437 17.437 0 00-2.666-2.656 25.009 25.009 0 00-3.115-2.134l-.012-.007c-.785-.402-1.558-.829-2.35-1.211-.816-.335-1.617-.709-2.444-1.013-.838-.276-1.663-.592-2.512-.833-.855-.22-1.7-.478-2.563-.665-.866-.166-1.727-.367-2.6-.507C36.32.954 35.448.813 34.57.715L31.929.5 30.603.464 29.28.427l-2.649.074-2.641.213c-.877.098-1.75.24-2.625.357-.438.053-.867.165-1.3.245l-1.298.262c-.863.186-1.709.445-2.564.664-.43.1-.839.272-1.259.405l-1.253.428c-.42.133-.815.334-1.225.497l-1.218.517c-.403.178-.784.4-1.177.598L8.898 5.3l-.012.007a25.043 25.043 0 00-3.115 2.134 19.69 19.69 0 00-1.406 1.256c-.217.227-.44.449-.651.681l-.61.719a14.74 14.74 0 00-1.067 1.546c-.147.276-.319.54-.446.826-.128.285-.277.562-.378.858a8.203 8.203 0 00-.303.887 7.5 7.5 0 00-.223.91c-.076.303-.095.616-.139.925-.036.31-.032.622-.05.934.008 1.25.261 2.493.718 3.657.224.584.512 1.143.825 1.685.157.27.339.527.507.792.181.256.376.503.563.755.396.487.815.955 1.26 1.399.075.074.15.147.227.218l.462.427c.076.073.155.142.235.21l.485.4c.238.207.496.39.747.58.25.19.506.375.77.546.265.172.519.36.792.518l.217.132.59.36-.15.262-.598-.363-.22-.134a5.361 5.361 0 01-.272-.168l-.53-.356c-.267-.174-.526-.36-.78-.554-.255-.192-.516-.377-.757-.586-.243-.208-.5-.4-.731-.62-.233-.22-.475-.43-.7-.656-.453-.452-.88-.929-1.285-1.426-.19-.257-.39-.51-.574-.772-.173-.27-.358-.532-.52-.81a12.276 12.276 0 01-.845-1.728 10.518 10.518 0 01-.74-3.768c.018-.321.016-.644.052-.964.045-.319.066-.64.143-.954.06-.316.13-.63.23-.937.08-.311.195-.612.312-.911.103-.306.256-.59.388-.882.13-.293.305-.564.457-.847.327-.551.697-1.076 1.091-1.58l.621-.733c.072-.079.145-.157.218-.234l.445-.46c.458-.445.93-.877 1.428-1.276a25.405 25.405 0 013.155-2.162l.013-.007 1.183-.618c.397-.2.784-.425 1.19-.605l1.229-.521c.413-.165.811-.368 1.236-.502l1.263-.43c.424-.135.836-.308 1.27-.409.861-.22 1.712-.481 2.581-.669l1.307-.264c.437-.08.869-.194 1.31-.246.881-.119 1.76-.261 2.642-.36l2.657-.214"/><path id="prefix__z" d="M.647.227L.802.49l-.1.06-.1.061-.003.001-.003.002-.037.014A.153.153 0 01.394.56L.377.523a.153.153 0 01.06-.168L.445.35.45.347"/><path id="prefix__B" d="M.531.713l.034.004A.15.15 0 01.67.802l.012.044a.151.151 0 01-.075.151L.601 1l-.006.003-.106.049-.106.048L.254.825.464.73.467.728A.16.16 0 01.531.713"/><path id="prefix__D" d="M20.689.055l.131.274-.636.29-.393.179-1.043.432c-.348.144-.704.266-1.056.4-.35.136-.711.243-1.068.366l-.357.119c-.24.075-.48.145-.72.216-.36.111-.722.213-1.087.306-.725.199-1.46.364-2.195.523l-1.106.22-1.112.19a51.289 51.289 0 01-6.736.594l-.668.005-.668.004-.64-.013h-.028l-.67-.013.01-.304.646.013h.047c.213.006.424.009.637.014l.664-.005.664-.004a51.012 51.012 0 004.472-.294 48.756 48.756 0 002.222-.297l1.105-.188 1.099-.219c.73-.158 1.46-.322 2.18-.52.361-.091.72-.193 1.078-.303.357-.106.716-.21 1.07-.332.352-.122.71-.228 1.058-.364.348-.133.702-.254 1.047-.396L19.67.519l.389-.177"/><path id="prefix__F" d="M.532.435l.04.005c.04.011.074.037.094.076L.68.553a.151.151 0 01-.07.163L.607.719.602.72.396.83.246.565.348.51.45.458.462.452a.157.157 0 01.07-.017"/><path id="prefix__H" d="M8.745.43l.151.262-.59.359A22.212 22.212 0 005.78 2.826a17.367 17.367 0 00-2.67 2.655c-.782.98-1.438 2.066-1.894 3.231a10.24 10.24 0 00-.718 3.658c.006 1.248.26 2.491.715 3.655.456 1.166 1.11 2.25 1.89 3.231.784.983 1.69 1.864 2.668 2.656.487.396.99.778 1.515 1.126.264.17.517.36.79.517l.809.491.011.008c.784.402 1.557.828 2.351 1.21.815.336 1.615.709 2.442 1.014.838.275 1.664.592 2.512.833l1.28.342c.427.106.847.248 1.283.323.867.166 1.728.366 2.599.507l1.312.184c.437.056.873.136 1.312.173l1.32.11c.44.033.88.08 1.32.104l1.326.036 1.324.036c.883-.023 1.766-.048 2.648-.072l2.642-.213c.877-.099 1.75-.24 2.626-.358.438-.052.867-.165 1.301-.244l1.299-.263c.863-.186 1.708-.445 2.563-.664.43-.1.84-.27 1.26-.405l1.253-.428c.422-.132.817-.333 1.226-.497l1.218-.516c.403-.179.785-.401 1.178-.6l.56-.292.613-.32c.05.089.1.176.152.263l-.62.324-.565.294c-.397.201-.783.426-1.19.606l-1.23.522c-.412.165-.811.368-1.236.501l-1.263.43c-.424.136-.836.308-1.27.41-.861.22-1.713.48-2.582.669l-1.308.264c-.437.08-.869.194-1.31.246-.88.118-1.76.26-2.642.36l-2.658.214c-.888.025-1.777.05-2.665.073l-1.333-.036-.666-.019-.666-.018c-.444-.024-.886-.07-1.328-.105l-1.33-.11c-.441-.037-.88-.117-1.32-.174l-1.32-.186c-.878-.141-1.745-.342-2.618-.51-.438-.075-.86-.218-1.293-.325l-1.287-.345c-.855-.243-1.688-.561-2.532-.84-.834-.307-1.643-.683-2.465-1.023-.802-.385-1.582-.816-2.374-1.222l-.013-.007-.817-.497c-.276-.16-.532-.35-.8-.525-.53-.351-1.04-.738-1.536-1.14a17.682 17.682 0 01-2.712-2.703c-.798-1.001-1.469-2.111-1.937-3.309a10.49 10.49 0 01-.735-3.766 10.47 10.47 0 01.739-3.768 12.822 12.822 0 011.94-3.309 17.644 17.644 0 012.714-2.702A22.6 22.6 0 018.148.793"/><path id="prefix__J" d="M.733.407l.038.005c.037.01.07.033.092.068l.016.037a.15.15 0 01-.065.17L.81.69.807.692l-.198.12L.456.55l.1-.06.1-.06.002-.003a.154.154 0 01.075-.02"/><path id="prefix__L" d="M.05.246h1.337v1.338H.05z"/><path id="prefix__N" d="M.189.205H21.92v19.577H.189z"/><linearGradient id="prefix__b" x1="0%" x2="100%" y1="49.999%" y2="49.999%"><stop offset="0%" stop-color="#4451F3"/><stop offset="100%" stop-color="#3CB5F2"/></linearGradient><linearGradient id="prefix__h" x1="0%" x2="100%" y1="50.001%" y2="50.001%"><stop offset="0%" stop-color="#2B2BF6"/><stop offset="100%" stop-color="#A7A7FF"/></linearGradient><linearGradient id="prefix__k" x1="0%" x2="100%" y1="50%" y2="50%"><stop offset="0%" stop-color="#68BFFF"/><stop offset="100%" stop-color="#D1D1FF"/></linearGradient><linearGradient id="prefix__n" x1="50%" x2="50%" y1="0%" y2="100%"><stop offset="0%" stop-color="#0E044B" stop-opacity="0"/><stop offset="100%" stop-color="#424DE8"/></linearGradient><radialGradient id="prefix__e" cx="94.952%" cy="77.673%" r="116.226%" fx="94.952%" fy="77.673%" gradientTransform="matrix(1 0 0 .90618 0 .073)"><stop offset="0%" stop-color="#120082"/><stop offset="100%" stop-color="#428DE8"/></radialGradient></defs><g fill="none" fill-rule="evenodd"><path fill="#003AC2" d="M29.176 86.35c-7.365 0-14.73 1.619-20.337 4.856-5.386 3.11-8.353 7.23-8.353 11.6 0 4.372 2.967 8.493 8.354 11.603 11.214 6.475 29.462 6.474 40.675 0 5.386-3.11 8.353-7.23 8.353-11.6 0-4.373-2.967-8.493-8.354-11.603-5.607-3.237-12.972-4.857-20.338-4.857m.001 33.394c-7.453 0-14.906-1.638-20.58-4.914C3.052 111.63 0 107.36 0 102.807s3.053-8.822 8.596-12.022c11.348-6.553 29.813-6.553 41.162 0 5.543 3.2 8.596 7.47 8.596 12.023 0 4.552-3.053 8.822-8.596 12.022-5.674 3.276-13.127 4.914-20.58 4.914"/><path fill="#003AC2" d="M53.832 84.57c-1.161-1.087-2.556-2.115-4.188-3.057-2.546-1.47-5.452-2.606-8.55-3.414 5.954 3.776 5.773 9.626-.546 13.274-6.507 3.757-17.059 3.757-23.566 0-6.103-3.524-6.482-9.101-1.138-12.88-2.567.77-4.979 1.775-7.135 3.02-1.632.942-3.028 1.97-4.188 3.057H.23v8.76c.001 4.276 2.827 8.553 8.479 11.816 11.304 6.527 29.631 6.527 40.935 0 5.651-3.262 8.476-7.539 8.476-11.816v-8.76h-4.289z"/><path fill="#5351AF" d="M17.613 82.186c6.387-3.687 16.74-3.687 23.128 0 1.035.598 1.9 1.257 2.6 1.956 3.615-3.61 2.75-8.308-2.6-11.397-6.387-3.686-16.741-3.686-23.128 0-5.35 3.09-6.215 7.786-2.599 11.396.7-.698 1.564-1.357 2.599-1.955"/><g transform="translate(0 72.82)"><mask id="prefix__c" fill="#fff"><use xlink:href="#prefix__a"/></mask><path fill="url(#prefix__b)" d="M40.547 13.449c-6.507 3.757-17.057 3.757-23.565 0-6.103-3.524-6.482-9.1-1.137-12.88-2.569.77-4.98 1.775-7.136 3.02-1.632.942-3.027 1.97-4.188 3.057H.23v8.76c.002 4.277 2.827 8.554 8.478 11.816 11.305 6.527 29.632 6.527 40.936 0 5.65-3.262 8.477-7.539 8.477-11.815V6.646h-4.29c-1.16-1.087-2.556-2.114-4.188-3.057-2.546-1.47-5.452-2.606-8.55-3.414 5.954 3.776 5.773 9.625-.547 13.274" mask="url(#prefix__c)"/></g><path fill="#0F054C" d="M49.644 76.409c-2.545-1.47-5.452-2.606-8.55-3.414 5.954 3.776 5.773 9.625-.546 13.274-3.15 1.818-7.245 2.753-11.37 2.811v15.857c7.407 0 14.815-1.632 20.467-4.895 5.651-3.263 8.477-7.539 8.477-11.816v-8.76h-4.29c-1.16-1.087-2.556-2.115-4.188-3.057"/><g transform="translate(28.989 72.82)"><mask id="prefix__f" fill="#fff"><use xlink:href="#prefix__d"/></mask><path fill="url(#prefix__e)" d="M20.656 3.59C18.109 2.118 15.204.982 12.104.174 18.06 3.951 17.88 9.8 11.558 13.45 8.41 15.267 4.314 16.203.188 16.26v15.856c7.408 0 14.816-1.632 20.468-4.895 5.651-3.262 8.477-7.54 8.477-11.815v-8.76h-4.289c-1.162-1.087-2.556-2.114-4.188-3.057" mask="url(#prefix__f)"/></g><g transform="translate(0 63.382)"><mask id="prefix__i" fill="#fff"><use xlink:href="#prefix__g"/></mask><path fill="url(#prefix__h)" d="M8.71 4.989c-11.304 6.526-11.304 17.107 0 23.633s29.63 6.527 40.935 0c11.303-6.525 11.303-17.107 0-23.633C43.991 1.726 36.583.094 29.175.094c-7.408 0-14.815 1.631-20.467 4.895m8.48 18.62c-6.508-3.758-6.508-9.85-.001-13.606 6.508-3.757 17.058-3.757 23.565 0 6.508 3.757 6.508 9.849 0 13.605-3.253 1.88-7.518 2.818-11.782 2.818s-8.53-.939-11.783-2.818" mask="url(#prefix__i)"/></g><g fill="#FFF"><path d="M49.645 91.102c-11.305 6.526-29.63 6.526-40.935 0C3.257 87.953.435 83.862.244 79.736c-.207 4.426 2.616 8.89 8.466 12.268 11.304 6.526 29.63 6.526 40.935 0 5.85-3.378 8.671-7.841 8.466-12.267-.192 4.125-3.013 8.217-8.466 11.365"/><path d="M40.754 72.483c-6.508-3.757-17.059-3.757-23.566 0-3.452 1.993-5.073 4.643-4.862 7.253.186-2.31 1.807-4.588 4.862-6.352 6.507-3.755 17.058-3.755 23.566 0 3.055 1.764 4.676 4.043 4.862 6.353.21-2.61-1.41-5.26-4.862-7.254"/></g><g transform="translate(2.022 63.382)"><mask id="prefix__l" fill="#fff"><use xlink:href="#prefix__j"/></mask><path fill="url(#prefix__k)" d="M8.204 4.98c-10.522 6.076-10.521 15.926.001 22.001 10.522 6.076 27.583 6.076 38.106 0 10.522-6.074 10.522-15.925-.001-22C41.049 1.944 34.153.425 27.258.425c-6.896 0-13.792 1.519-19.054 4.556m7.674 17.57c-6.285-3.628-6.285-9.511 0-13.14 6.284-3.629 16.475-3.629 22.76 0 6.284 3.629 6.284 9.512 0 13.14-3.142 1.815-7.261 2.722-11.38 2.722-4.119 0-8.238-.907-11.38-2.722" mask="url(#prefix__l)"/></g><g><path fill="#42E8E0" d="M40.66 85.933c-6.284 3.628-16.474 3.628-22.76 0-6.285-3.63-6.285-9.512 0-13.14 6.285-3.63 16.475-3.63 22.76 0 6.285 3.628 6.285 9.512 0 13.14"/><g transform="translate(12.809 -5.383)"><mask id="prefix__o" fill="#fff"><use xlink:href="#prefix__m"/></mask><path fill="url(#prefix__n)" d="M32.55 84.568h.011V.645H.378V84.68h.004c-.029 2.4 1.538 4.804 4.71 6.635 6.284 3.629 16.474 3.629 22.759 0 3.22-1.859 4.779-4.31 4.699-6.747" mask="url(#prefix__o)"/></g><path fill="#0079F1" d="M22.632 57.669a1.003 1.003 0 110 2.006 1.003 1.003 0 010-2.006zm27.108-3.246a1.536 1.536 0 11-.002 3.072 1.536 1.536 0 01.002-3.072zm1.062-3.865a1.15 1.15 0 110 2.3 1.15 1.15 0 010-2.3zm3.264-.075a.731.731 0 11.002 1.462.731.731 0 01-.002-1.462zm3.592-.809a.484.484 0 11-.536.803.484.484 0 01.536-.803zm.088-3.647a.827.827 0 11-.919 1.378.827.827 0 01.919-1.379zm-17.565-1.42a.96.96 0 11.002 1.922.96.96 0 01-.002-1.922zM24.797 33.035a1.418 1.418 0 110 2.836 1.418 1.418 0 010-2.836zm10.88-10.969a1.038 1.038 0 110 2.078 1.039 1.039 0 010-2.078zM1.264 20.337a.456.456 0 11-.246.875.456.456 0 01.246-.875zm2.703-.61a.594.594 0 11-.001 1.187.594.594 0 01.001-1.187zm32.413-3.13a1.535 1.535 0 110 3.073 1.535 1.535 0 010-3.074zm-31.603.61a.925.925 0 11-.001 1.85.925.925 0 01.001-1.85zm44.963-1.4a1.536 1.536 0 11-.002 3.072 1.536 1.536 0 01.002-3.072zM8.75 13.193a1.536 1.536 0 11-.002 3.072 1.536 1.536 0 01.002-3.072zm-4.682.834a1.034 1.034 0 110 2.068 1.034 1.034 0 010-2.068zm47.167-1.972a1.125 1.125 0 110 2.25 1.125 1.125 0 010-2.25zm5.693-.562a.562.562 0 11-.001 1.125.562.562 0 01.001-1.125zm-2.555-.474a.795.795 0 110 1.59.795.795 0 010-1.59zm3.84-.95a.292.292 0 11-.291.291c0-.161.13-.292.292-.292zM23.377.619a.96.96 0 11.002 1.924.96.96 0 01-.002-1.925z"/><g transform="translate(47.191 56.64)"><mask id="prefix__q" fill="#fff"><use xlink:href="#prefix__p"/></mask><path d="M.47.24C.47.243.467.244.465.245L.254.34l.129.275.212-.097a.15.15 0 00.075-.2.153.153 0 00-.139-.09c-.02 0-.04.005-.06.013" mask="url(#prefix__q)"/></g><g transform="translate(0 26.977)"><mask id="prefix__s" fill="#fff"><use xlink:href="#prefix__r"/></mask><path d="M47.786 30.181l-.131-.274-.63.287-.389.177c-.344.143-.69.286-1.033.43-.345.141-.7.263-1.048.395-.348.136-.706.243-1.059.364-.353.123-.711.227-1.07.332-.357.11-.716.212-1.078.303-.72.198-1.45.362-2.18.52l-1.099.219-1.105.189a50.198 50.198 0 01-6.695.59l-.663.004-.662.005c-.222-.005-.442-.01-.662-.013l-.663-.014h-.014l-1.22-.057-1.216-.085-1.215-.117-1.211-.147-1.207-.177c-.402-.06-.8-.14-1.201-.21-.8-.15-1.595-.321-2.384-.516-.397-.09-.786-.207-1.18-.31-.394-.1-.779-.23-1.169-.344a36.386 36.386 0 01-2.302-.799 31.634 31.634 0 01-4.4-2.081l-.012-.008-.809-.49c-.273-.158-.526-.347-.79-.519-.264-.171-.52-.356-.77-.546-.251-.19-.508-.373-.746-.579-.239-.204-.492-.392-.719-.61-.23-.216-.467-.422-.687-.646a17.767 17.767 0 01-1.261-1.399c-.186-.252-.382-.499-.562-.755-.168-.265-.35-.52-.507-.791a12.094 12.094 0 01-.823-1.685 10.179 10.179 0 01-.716-3.655c.02-.312.014-.625.05-.935.044-.308.064-.621.14-.925.058-.307.126-.611.223-.909.079-.303.19-.595.304-.887.1-.296.25-.573.377-.858.128-.285.3-.55.446-.826.32-.538.682-1.051 1.069-1.546.202-.24.406-.479.609-.718.211-.232.434-.453.651-.681.45-.438.915-.863 1.406-1.256a25.128 25.128 0 013.116-2.134l.011-.007 1.173-.611c.393-.199.775-.422 1.177-.6.816-.334 1.616-.708 2.443-1.013.84-.274 1.664-.592 2.513-.832.855-.22 1.7-.478 2.563-.664.867-.167 1.727-.367 2.598-.506.875-.118 1.748-.26 2.626-.358l2.64-.213 2.649-.073 1.323.036L31.93.69l2.64.213c.878.099 1.75.24 2.626.358.871.14 1.732.34 2.599.507.863.186 1.708.445 2.562.664.85.241 1.674.558 2.513.833.826.305 1.627.678 2.442 1.014.794.382 1.566.808 2.35 1.21l.013.007a25.04 25.04 0 013.114 2.135 17.398 17.398 0 012.667 2.656c.78.98 1.435 2.066 1.89 3.231.457 1.163.71 2.407.716 3.655-.002 2.396-.951 4.72-2.405 6.613-1.457 1.908-3.35 3.458-5.403 4.706l-.59.359c.05.087.1.175.152.262.397-.242.597-.362.597-.362 2.076-1.263 3.999-2.834 5.485-4.78 1.484-1.933 2.466-4.324 2.467-6.798a10.465 10.465 0 00-.736-3.766c-.468-1.197-1.139-2.308-1.936-3.309a17.587 17.587 0 00-2.712-2.702 25.304 25.304 0 00-3.155-2.163l-.011-.007c-.792-.406-1.573-.837-2.375-1.223-.823-.338-1.631-.715-2.465-1.023-.845-.277-1.677-.596-2.532-.839-.861-.221-1.712-.481-2.581-.67-.873-.167-1.74-.369-2.618-.51-.88-.118-1.758-.26-2.64-.359L31.945.387 30.614.35 29.282.313l-2.665.073-2.657.215c-.883.099-1.76.242-2.641.36-.878.14-1.745.341-2.617.51-.87.187-1.721.448-2.582.669-.855.242-1.687.561-2.532.838-.834.308-1.643.685-2.465 1.024-.407.18-.793.404-1.19.604l-1.184.618-.013.007c-1.1.644-2.16 1.358-3.154 2.161-.499.4-.97.831-1.43 1.276-.22.232-.447.457-.661.694l-.622.732c-.394.505-.764 1.03-1.092 1.58-.15.284-.326.555-.457.847-.131.293-.284.577-.388.882-.116.3-.23.6-.312.911-.1.307-.17.62-.23.937-.077.313-.099.635-.143.954-.038.32-.034.643-.052.964.007 1.288.267 2.57.737 3.766.23.6.524 1.173.844 1.728.16.278.347.54.519.81.184.263.383.514.574.771.403.498.83.974 1.283 1.426.225.228.467.437.7.656.23.222.487.412.73.62.241.21.5.395.756.586.254.194.512.38.78.555.267.173.524.364.8.524l.818.496.012.008a31.776 31.776 0 004.442 2.101c.765.294 1.54.563 2.322.806.393.115.781.246 1.178.347.397.103.789.222 1.189.311.794.197 1.595.369 2.4.52.403.07.804.152 1.21.212.404.059.807.127 1.214.179l1.218.147 1.223.117 1.224.087 1.227.056.014.001.666.013.667.013.666-.004.667-.004a51.264 51.264 0 006.737-.594l1.112-.19 1.107-.22a42.42 42.42 0 002.195-.524c.364-.092.726-.194 1.087-.305.36-.107.722-.212 1.077-.335.356-.122.718-.23 1.068-.367.352-.134.708-.256 1.057-.4l1.043-.433.392-.178.636-.29" mask="url(#prefix__s)"/></g><g transform="translate(49.213 55.292)"><mask id="prefix__u" fill="#fff"><use xlink:href="#prefix__t"/></mask><path d="M.45.536L.444.54a.15.15 0 00-.05.208.15.15 0 00.202.054L.602.8l.2-.121L.647.417.45.536z" mask="url(#prefix__u)"/></g><g transform="translate(8.09 16.865)"><mask id="prefix__w" fill="#fff"><use xlink:href="#prefix__v"/></mask><path d="M.456.488l.2.121.006.004c.07.038.16.015.202-.054a.154.154 0 00-.051-.21L.808.348.61.227.456.488z" mask="url(#prefix__w)"/></g><g transform="translate(0 -11.45)"><mask id="prefix__y" fill="#fff"><use xlink:href="#prefix__x"/></mask><path d="M8.746 28.924l.15-.263-.59-.36-.217-.13c-.273-.158-.527-.347-.791-.52-.265-.17-.52-.354-.77-.546-.252-.19-.51-.372-.748-.578-.238-.205-.492-.393-.72-.611-.228-.216-.467-.422-.688-.645a17.781 17.781 0 01-1.261-1.4c-.187-.251-.382-.498-.563-.754-.168-.265-.35-.521-.507-.792a11.942 11.942 0 01-.825-1.685 10.213 10.213 0 01-.718-3.657c.018-.312.014-.625.05-.934.044-.31.063-.622.139-.926.058-.306.127-.611.223-.91.079-.302.19-.594.303-.886.1-.296.25-.573.378-.858.127-.286.299-.55.446-.826a14.74 14.74 0 011.067-1.546l.61-.719c.21-.232.434-.454.651-.68.45-.439.915-.864 1.406-1.257a25.05 25.05 0 013.115-2.135l.012-.007 1.173-.612c.393-.198.774-.42 1.177-.598l1.218-.517c.41-.163.804-.364 1.225-.497l1.253-.428c.42-.133.829-.304 1.26-.405.854-.219 1.7-.478 2.563-.664l1.297-.262c.434-.08.863-.192 1.301-.245.875-.117 1.748-.259 2.625-.357.88-.07 1.76-.142 2.64-.214l2.65-.073 1.324.037L31.928.5c.88.07 1.761.142 2.64.214.879.098 1.75.239 2.626.356.872.14 1.733.34 2.599.507.863.187 1.708.446 2.563.665.849.24 1.674.557 2.512.833.827.304 1.628.678 2.444 1.013.792.382 1.565.809 2.35 1.21l.012.008a25.009 25.009 0 013.115 2.134 17.437 17.437 0 012.666 2.656c.782.981 1.436 2.066 1.89 3.231.458 1.164.71 2.407.717 3.655-.002 2.397-.951 4.72-2.405 6.614-1.456 1.908-3.35 3.458-5.403 4.705l-.59.36.152.262.597-.363c2.076-1.262 3.999-2.833 5.485-4.78 1.484-1.933 2.466-4.323 2.467-6.798a10.486 10.486 0 00-.736-3.766c-.468-1.197-1.139-2.308-1.937-3.31a17.631 17.631 0 00-2.712-2.702 25.578 25.578 0 00-3.154-2.162l-.013-.006c-.792-.407-1.572-.838-2.374-1.223-.823-.34-1.63-.716-2.465-1.023-.845-.278-1.677-.597-2.532-.84-.861-.22-1.713-.481-2.582-.669-.873-.168-1.74-.37-2.617-.51-.88-.119-1.759-.261-2.642-.36L31.944.199 30.612.16 29.28.124l-2.665.074-2.657.214c-.883.099-1.76.241-2.642.36-.441.052-.873.166-1.31.246l-1.307.264c-.869.188-1.72.449-2.581.669-.434.101-.846.274-1.27.409l-1.263.43c-.425.134-.823.337-1.236.502l-1.229.521c-.406.18-.793.405-1.19.605l-1.183.618-.013.007a25.48 25.48 0 00-3.155 2.162c-.498.4-.97.831-1.428 1.277-.22.23-.449.456-.663.693l-.62.732c-.395.505-.765 1.03-1.092 1.581-.152.283-.327.554-.457.847-.132.293-.285.576-.388.882-.117.3-.231.6-.312.911-.1.307-.17.62-.23.937-.077.313-.098.635-.143.954-.036.32-.034.643-.051.964a10.47 10.47 0 00.739 3.768c.23.6.525 1.173.846 1.729.16.277.346.54.519.81.185.262.383.514.574.77.404.498.832.975 1.285 1.427.225.227.467.436.7.655.231.222.488.413.73.62.242.21.503.395.758.587.254.194.513.38.78.554.268.174.525.365.801.524l.22.134.599.363" mask="url(#prefix__y)"/></g><g transform="translate(49.213 16.865)"><mask id="prefix__A" fill="#fff"><use xlink:href="#prefix__z"/></mask><path d="M.45.347L.438.355a.148.148 0 00-.044.204.15.15 0 00.202.054L.602.61l.2-.121L.647.227.45.347" mask="url(#prefix__A)"/></g><g><g transform="translate(47.191 17.539)"><mask id="prefix__C" fill="#fff"><use xlink:href="#prefix__B"/></mask><path d="M.47.726L.465.73l-.21.096.129.275.212-.097.012-.006A.156.156 0 00.67.802.152.152 0 00.471.726" mask="url(#prefix__C)"/></g><g transform="translate(26.966 18.213)"><mask id="prefix__E" fill="#fff"><use xlink:href="#prefix__D"/></mask><path d="M20.82.329l-.131-.274-.63.287-.39.177-1.033.429c-.345.142-.699.263-1.047.396-.348.136-.706.242-1.059.364s-.712.226-1.069.332c-.357.11-.717.212-1.079.303a40.39 40.39 0 01-2.18.52l-1.098.219-1.105.188a47.39 47.39 0 01-2.222.297c-1.485.164-2.978.26-4.472.294l-.664.004-.664.005-.637-.013h-.028l-.664-.014-.01.304.669.013h.027l.64.013.669-.004.668-.005a50.905 50.905 0 006.736-.594l1.112-.19 1.106-.22c.735-.16 1.47-.324 2.195-.523.365-.093.727-.195 1.087-.306.36-.106.722-.21 1.077-.335.357-.123.717-.23 1.068-.367.352-.133.708-.255 1.056-.399l1.043-.432.393-.18.636-.289" mask="url(#prefix__E)"/></g><path d="M28.124 22.219a.15.15 0 00.148.154h.01l.005-.303h-.012a.15.15 0 00-.151.148"/></g><g><g transform="translate(49.213 37.764)"><mask id="prefix__G" fill="#fff"><use xlink:href="#prefix__F"/></mask><path d="M.462.452L.45.458.246.565l.15.264.206-.108.009-.005a.153.153 0 00.055-.2.15.15 0 00-.134-.081.145.145 0 00-.07.017" mask="url(#prefix__G)"/></g><g transform="translate(0 14.168)"><mask id="prefix__I" fill="#fff"><use xlink:href="#prefix__H"/></mask><path d="M49.816 24.316a13.704 13.704 0 01-.152-.262l-.614.32-.559.291c-.393.199-.775.421-1.178.6l-1.218.516c-.41.164-.804.365-1.226.497l-1.253.428c-.42.134-.83.305-1.26.405-.855.22-1.7.478-2.563.664l-1.299.263c-.434.08-.863.192-1.301.244-.875.118-1.749.26-2.626.358l-2.642.213c-.882.024-1.765.049-2.648.072l-1.324-.036-1.325-.036c-.44-.025-.88-.07-1.32-.104l-1.32-.11c-.44-.037-.876-.117-1.313-.173l-1.312-.184c-.871-.14-1.732-.34-2.6-.507-.435-.075-.855-.217-1.283-.323l-1.279-.342c-.848-.24-1.674-.558-2.512-.833-.827-.305-1.627-.678-2.442-1.014-.794-.382-1.567-.808-2.35-1.21-.005-.002-.008-.005-.012-.008l-.81-.49c-.272-.158-.525-.347-.789-.518a19.42 19.42 0 01-1.515-1.126 17.353 17.353 0 01-2.667-2.656 12.503 12.503 0 01-1.89-3.231 10.166 10.166 0 01-.716-3.655c.008-1.25.261-2.493.718-3.657.456-1.165 1.112-2.25 1.895-3.231A17.316 17.316 0 015.78 2.826c.8-.648 1.643-1.243 2.526-1.775l.59-.36-.15-.262-.599.363A22.64 22.64 0 005.588 2.59a17.695 17.695 0 00-2.715 2.702c-.799 1-1.47 2.112-1.94 3.309a10.516 10.516 0 00-.738 3.768c.006 1.288.267 2.57.735 3.766.468 1.198 1.139 2.308 1.937 3.309.798 1.003 1.72 1.9 2.712 2.703.495.402 1.005.789 1.537 1.14.267.174.523.365.799.525.273.165.545.33.817.497l.013.007c.792.406 1.572.837 2.374 1.222.822.34 1.63.716 2.465 1.024.844.278 1.677.596 2.532.84l1.287.344c.433.107.855.25 1.293.325.873.168 1.74.369 2.617.51l1.32.186c.441.057.88.137 1.322.174l1.329.11c.442.035.884.08 1.328.105l1.332.037 1.333.036 2.665-.073 2.658-.214c.883-.1 1.761-.242 2.642-.36.441-.052.873-.166 1.31-.246l1.308-.264c.869-.188 1.72-.448 2.582-.67.434-.1.846-.273 1.27-.408l1.263-.43c.425-.134.824-.337 1.236-.502l1.23-.522c.407-.18.793-.405 1.19-.606l.565-.294.62-.324" mask="url(#prefix__I)"/></g><g transform="translate(8.09 14.168)"><mask id="prefix__K" fill="#fff"><use xlink:href="#prefix__J"/></mask><path d="M.661.425L.655.43l-.2.121.154.262.198-.12.007-.004A.155.155 0 00.863.48.152.152 0 00.661.425" mask="url(#prefix__K)"/></g></g><g transform="translate(57.978 47.202)"><mask id="prefix__M" fill="#fff"><use xlink:href="#prefix__L"/></mask><path fill="#42E8E0" d="M1.09.359a.668.668 0 11-.743 1.11A.668.668 0 011.09.36" mask="url(#prefix__M)"/></g></g><g><path fill="#DD821F" d="M41.843 45.39l1.03 2.703-.097-2.456-.571-1.438z"/><path fill="#FFD85A" d="M17.097 48.561L17 46.151s2.037 2.034 2.039 2.083c0 .05-1.943.327-1.943.327"/><path fill="#DD821F" d="M29.886 50.968l3.135-5.43h-6.27zm-.168 1.093l-4.004-6.935-1.951-1.113 5.954 10.313zm-5.802-8.348l1.987 1.133h7.953l1.985-1.133zm10.149 1.401l-4.011 6.947v2.266l5.961-10.326z"/><path fill="#43A0FF" d="M30.162 55.709c7.117-.17 12.764-3.79 12.614-10.072-.15-6.283-6.042-11.238-13.159-11.068-7.117.17-12.765 5.402-12.614 11.685.15 6.283 6.042 9.625 13.159 9.455"/><path fill="#211FDD" d="M30.259 59.777c7.117-.17 12.765-5.401 12.614-11.684-.15-6.284-6.042-11.239-13.159-11.068-7.117.17-12.764 5.401-12.613 11.684.15 6.284 6.041 11.24 13.158 11.068"/><g transform="translate(20.957 39.999)"><mask id="prefix__O" fill="#fff"><use xlink:href="#prefix__N"/></mask><path fill="#211FDD" d="M18.024.205c2.338 1.999 3.818 4.78 3.893 7.888.15 6.283-5.497 11.515-12.615 11.685-3.52.085-6.739-1.086-9.113-3.051L18.024.205z" mask="url(#prefix__O)"/></g><path fill="#3076F9" d="M30.247 59.27c6.8-.163 12.195-5.161 12.051-11.164-.144-6.002-5.772-10.736-12.572-10.574-6.799.163-12.194 5.161-12.05 11.165.143 6.003 5.772 10.737 12.57 10.574"/><path fill="#64A6FF" d="M30.196 57.127c5.458-.131 9.79-4.144 9.674-8.963-.115-4.817-4.633-8.619-10.092-8.487-5.458.13-9.79 4.143-9.674 8.962.115 4.818 4.633 8.619 10.092 8.488"/><path fill="#0058FF" d="M20.103 48.637c-.005-.2.001-.396.012-.593.454 4.533 4.82 8.02 10.053 7.895 5.231-.125 9.425-3.818 9.663-8.368.02.196.035.394.04.593.115 4.82-4.216 8.832-9.676 8.962-5.458.131-9.976-3.67-10.092-8.488"/><path fill="#211FDD" d="M30.295 40.719c-5.458.13-9.79 4.143-9.674 8.962.023.977.23 1.91.586 2.779a7.87 7.87 0 01-1.104-3.822c-.115-4.819 4.216-8.832 9.675-8.962 4.352-.105 8.104 2.292 9.506 5.71-1.68-2.851-5.094-4.76-8.99-4.667"/><path fill="#DD821F" d="M30.777 50.968l3.135-5.43h-6.269zm-.168 1.093l-4.003-6.935-1.952-1.113 5.954 10.313zm-5.801-8.348l1.986 1.133h7.953l1.986-1.133zm10.148 1.401l-4.01 6.947-.001 2.266 5.962-10.326z"/><path fill="#D5E5FF" d="M30.767 50.88l3.135-5.429h-6.27zm-.168 1.093l-4.004-6.935-1.951-1.113 5.954 10.313zm-5.802-8.348l1.986 1.133h7.954l1.985-1.133zm10.149 1.401l-4.011 6.947-.001 2.266 5.962-10.326z"/><path d="M28.091 49.137l2.027-1.878c1.952.443 5.59 1.272 8.497 1.954-.722 2.175-2.485 3.968-4.787 4.92l-5.737-4.995zm3.19 5.662c-.322.04-.65.065-.982.073-2.386.057-4.57-.726-6.195-2.041l3.309-3.066 3.868 5.034zm1.012-9.554l3.819-3.538c1.284 1.123 2.432 2.36 2.741 4.012l-6.56-.474z" fill="#FFF" opacity=".18"/><path fill="#211FDD" d="M42.776 45.637c.022.935.11 1.611-.11 2.486-.284-.921-.9-3.679-.9-3.679l-.981-2.19-.818-.674-1.383-1.008-.114-3.16c2.575 2.016 4.227 4.938 4.306 8.225"/><path fill="#006ED0" d="M17.835 45.314l-.054-.647c-.003-.093-.075-.166-.162-.165l-.049.002c-.087.002-.155.08-.153.172l.054.648c.002.092.074.166.162.163h.049a.164.164 0 00.153-.173m1.132-2.481l-.066-1.164c-.003-.106-.085-.19-.184-.187l-.114.003c-.099.002-.177.09-.174.195l.066 1.165c.003.105.085.19.184.187l.113-.003c.1-.002.178-.09.175-.196m1.57-2.164l-.065-1.128a.21.21 0 00-.209-.212l-.197.005c-.112.003-.2.102-.198.221l.066 1.13c.003.118.096.213.208.21l.197-.004c.112-.003.201-.102.198-.222m2.35-1.747l-.071-1.367c-.004-.12-.097-.214-.209-.212l-.197.005c-.112.002-.2.102-.198.221l.072 1.368c.003.12.096.214.208.211l.197-.004c.112-.003.2-.103.198-.222m2.364-1.147l-.076-1.576c-.004-.12-.097-.214-.209-.211l-.197.004c-.112.003-.2.102-.198.221l.077 1.576c.003.12.096.214.208.211l.197-.004c.113-.002.2-.102.198-.221m2.375-.7l-.075-1.515c-.003-.119-.096-.214-.208-.21l-.198.004c-.112.002-.2.101-.197.221l.074 1.514c.003.12.097.215.21.212l.196-.005c.112-.003.201-.102.198-.221m2.386-.239l-.076-1.537c-.003-.12-.096-.215-.208-.212l-.197.005c-.112.003-.2.101-.198.221l.076 1.537a.21.21 0 00.208.212l.197-.004c.112-.003.2-.103.198-.222m2.393.051l-.073-1.44c-.003-.12-.096-.215-.209-.212l-.197.004c-.112.003-.2.102-.197.221l.072 1.441c.003.12.097.214.208.212l.198-.005c.112-.002.2-.102.198-.221m2.404.524l-.072-1.395c-.003-.12-.097-.215-.208-.212l-.198.005c-.112.002-.2.101-.198.22l.073 1.396c.003.12.096.214.208.212l.197-.005c.112-.003.2-.102.198-.221m2.42 1.174l-.075-1.51c-.003-.12-.096-.214-.208-.212l-.198.005c-.112.003-.2.102-.197.221l.075 1.51c.003.12.096.215.208.212l.196-.005c.113-.002.202-.102.199-.221"/></g></g></svg>
