<svg xmlns="http://www.w3.org/2000/svg" width="73" height="74"><g fill="none" fill-rule="evenodd"><path fill="#0263D3" d="M38.148 22.686h.917v-7.533h-.917zM23.036 54.671c0 .573.467 1.04 1.04 1.04h29.061c.573 0 1.04-.467 1.04-1.04v-1.475h.918v1.475a1.96 1.96 0 01-1.958 1.957H24.076a1.96 1.96 0 01-1.958-1.957v-1.703h.918v1.702z"/><path fill="#0263D3" d="M38.148 59.858h.917V56.17h-.917zM7.006 34.933c0 .573.467 1.041 1.04 1.041h29.061c.574 0 1.041-.468 1.041-1.041v-1.474h.917v1.474a1.96 1.96 0 01-1.958 1.958H8.046a1.96 1.96 0 01-1.958-1.958v-1.7h.918v1.7z"/><path fill="#0263D3" d="M22.118 40.12h.918v-3.687h-.918zm33.785-4.146h8.68c.573 0 1.04-.468 1.04-1.04v-1.476h.916v1.475a1.96 1.96 0 01-1.957 1.958h-8.68a.809.809 0 00-.807.809v2.42h-.917V37.7c0-.953.773-1.726 1.725-1.726"/><path fill="#6236FF" d="M45.103 11.536l-6.547 3.781v-7.56l6.547-3.781z"/><path fill="#491DE6" d="M45.103 3.976l-6.547 3.78-6.546-3.78L38.556.197z"/><path fill="#3408D0" d="M38.557 15.317l-6.548-3.781V3.975l6.548 3.782z"/><path fill="#6236FF" d="M45.103 30.293l-6.547 3.78v-7.559l6.547-3.78z"/><path fill="#491DE6" d="M45.103 22.733l-6.547 3.781-6.546-3.781 6.546-3.779z"/><path fill="#3408D0" d="M38.557 34.073l-6.548-3.779v-7.561l6.548 3.781z"/><path fill="#0257F2" d="M72.628 30.48l-6.547 3.78v-7.559l6.547-3.78z"/><path fill="#1F92FF" d="M72.628 22.92l-6.547 3.781-6.547-3.781 6.547-3.779z"/><path fill="#1331D8" d="M66.081 34.26l-6.547-3.779V22.92l6.547 3.781z"/><path fill="#0257F2" d="M13.094 30.293l-6.547 3.78v-7.559l6.547-3.78z"/><path fill="#1F92FF" d="M13.094 22.733l-6.547 3.781-6.546-3.781 6.546-3.779z"/><path fill="#1331D8" d="M6.547 34.073L0 30.294v-7.561l6.547 3.781z"/><path fill="#6236FF" d="M29.124 50.206l-6.548 3.78v-7.56l6.548-3.779z"/><path fill="#491DE6" d="M29.124 42.646l-6.548 3.779-6.546-3.779 6.546-3.779z"/><path fill="#3408D0" d="M22.577 53.986l-6.548-3.779v-7.561l6.548 3.78z"/><path fill="#6236FF" d="M45.103 70.264l-6.547 3.781v-7.56l6.547-3.779z"/><path fill="#491DE6" d="M45.103 62.705l-6.547 3.78-6.546-3.78 6.546-3.78z"/><path fill="#3408D0" d="M38.557 74.045l-6.548-3.78v-7.56l6.548 3.78z"/><path fill="#0257F2" d="M61.183 49.616l-6.547 3.779v-7.558l6.547-3.781z"/><path fill="#1F92FF" d="M61.183 42.056l-6.547 3.78-6.547-3.78 6.547-3.779z"/><path fill="#1331D8" d="M54.636 53.396l-6.547-3.78v-7.56l6.547 3.781z"/></g></svg>
