<svg xmlns="http://www.w3.org/2000/svg" xmlns:xlink="http://www.w3.org/1999/xlink" width="56" height="72"><defs><path id="prefix__a" d="M.754.432h4.617v8.836H.754z"/><path id="prefix__c" d="M.349.321h15.428v2.304H.349z"/></defs><g fill="none" fill-rule="evenodd"><path fill="#354FFF" d="M12.401 69.941c0 .445 2.418.807 5.4.807s5.4-.362 5.4-.807V68.71H12.4v1.231z"/><path fill="#7AAEFF" d="M17.801 67.905c-2.982 0-5.4.36-5.4.805 0 .445 2.418.805 5.4.805s5.4-.36 5.4-.805c0-.444-2.418-.805-5.4-.805"/><path fill="#354FFF" d="M13.436 67.961c0 .447 2.418.807 5.4.807s5.4-.36 5.4-.807v-1.23h-10.8v1.23z"/><path fill="#2841CA" d="M18.836 65.925c-2.982 0-5.4.36-5.4.805 0 .445 2.418.805 5.4.805s5.4-.36 5.4-.805c0-.445-2.418-.805-5.4-.805"/><path fill="#7AAEFF" d="M14.159 66.73c.696.194 2.268.414 4.677.414 2.41 0 3.982-.22 4.678-.414-.696-.192-2.268-.414-4.678-.414-2.409 0-3.981.222-4.677.414"/><path fill="#354FFF" d="M11.3 65.924c0 .446 2.418.806 5.4.806s5.4-.36 5.4-.806v-1.23H11.3v1.23z"/><path fill="#7AAEFF" d="M16.7 63.887c-2.982 0-5.399.361-5.399.806 0 .445 2.417.806 5.4.806 2.982 0 5.4-.36 5.4-.806 0-.445-2.418-.806-5.4-.806"/><path fill="#354FFF" d="M12.724 64.07c0 .443 2.417.804 5.4.804 2.982 0 5.4-.36 5.4-.804v-1.233h-10.8v1.233z"/><path fill="#2841CA" d="M18.124 62.032c-2.983 0-5.4.36-5.4.805 0 .446 2.417.807 5.4.807 2.982 0 5.4-.361 5.4-.807 0-.445-2.418-.805-5.4-.805"/><path fill="#7AAEFF" d="M13.445 62.838c.696.193 2.268.415 4.68.415 2.41 0 3.983-.222 4.678-.415-.695-.194-2.267-.415-4.679-.415-2.41 0-3.983.221-4.68.415"/><path fill="#354FFF" d="M0 69.846c0 .446 2.417.806 5.4.806 2.981 0 5.399-.36 5.399-.806v-1.232H0v1.232z"/><path fill="#2841CA" d="M5.4 67.81c-2.983 0-5.4.36-5.4.805 0 .445 2.417.805 5.4.805 2.981 0 5.399-.36 5.399-.805 0-.445-2.418-.805-5.4-.805"/><path fill="#7AAEFF" d="M.722 68.615c.696.193 2.269.414 4.678.414s3.981-.22 4.678-.414C9.38 68.42 7.808 68.2 5.4 68.2c-2.41 0-3.982.22-4.678.414"/><path fill="#354FFF" d="M2.136 67.809c0 .445 2.418.805 5.4.805s5.4-.36 5.4-.805v-1.231h-10.8v1.231z"/><path fill="#7AAEFF" d="M7.536 65.771c-2.982 0-5.4.362-5.4.807 0 .444 2.418.806 5.4.806s5.4-.362 5.4-.806c0-.445-2.418-.807-5.4-.807"/><path fill="#354FFF" d="M.712 65.954c0 .445 2.417.805 5.4.805 2.982 0 5.4-.36 5.4-.805v-1.232H.713v1.232z"/><path fill="#2841CA" d="M6.112 63.917c-2.983 0-5.4.36-5.4.805 0 .446 2.417.807 5.4.807 2.982 0 5.4-.361 5.4-.807 0-.445-2.418-.805-5.4-.805"/><path fill="#7AAEFF" d="M1.433 64.722c.695.194 2.268.415 4.679.415 2.41 0 3.983-.221 4.68-.415-.697-.193-2.27-.414-4.68-.414-2.411 0-3.984.22-4.679.414"/><path fill="#0F99FC" d="M4.823 55.101a5.964 5.964 0 1011.928 0c0-3.293-5.964-14.28-5.964-14.28S4.823 51.807 4.823 55.1" opacity=".586"/><path fill="#2841CA" d="M10.788 49.66c-3 0-5.442 2.441-5.442 5.442a5.447 5.447 0 005.442 5.44c3 0 5.441-2.441 5.441-5.44 0-3-2.441-5.442-5.441-5.442"/><path fill="#7AAEFF" d="M10.788 50.304a4.803 4.803 0 00-4.798 4.797 4.803 4.803 0 004.798 4.798 4.803 4.803 0 004.797-4.798 4.803 4.803 0 00-4.797-4.797"/><path fill="#7AAEFF" d="M10.788 49.137a5.95 5.95 0 00-4.425 1.965 5.964 5.964 0 018.674 8.183 5.964 5.964 0 00-4.249-10.148"/><path fill="#354FFF" d="M10.788 50.304c-1.66 0-3.124.847-3.986 2.131a4.79 4.79 0 013.85-1.947 4.803 4.803 0 014.797 4.797c0 .987-.3 1.904-.812 2.667a4.764 4.764 0 00.948-2.85 4.803 4.803 0 00-4.797-4.798"/><path fill="#7AAEFF" d="M4.922 55.034a5.952 5.952 0 012.581-4.91 5.965 5.965 0 106.669 9.889 5.964 5.964 0 01-9.25-4.979"/><path fill="#0044C0" d="M5.365 40.545c0 .346 2.558.626 5.715.626 3.155 0 5.713-.28 5.713-.626v-1.406H5.365v1.406z"/><path fill="#348FE5" d="M11.08 38.513c-3.157 0-5.715.28-5.715.626 0 .347 2.558.627 5.714.627 3.156 0 5.714-.28 5.714-.627 0-.345-2.558-.626-5.714-.626"/><path fill="#1585EE" d="M39.893 70.237c0 .636 3.454 1.152 7.715 1.152 4.26 0 7.714-.516 7.714-1.152v-7.782H39.893v7.782z"/><path fill="#0044C0" d="M44.25 71.273c1.016.074 2.152.116 3.358.116a47.84 47.84 0 003.097-.097v-8.837h-6.456v8.818z"/><g transform="translate(49.951 62.024)"><mask id="prefix__b" fill="#fff"><use xlink:href="#prefix__a"/></mask><path fill="#6236FF" d="M.754 9.268C3.47 9.09 5.37 8.684 5.37 8.214V.432H.754v8.836z" mask="url(#prefix__b)"/></g><g transform="translate(39.545 60.983)"><mask id="prefix__d" fill="#fff"><use xlink:href="#prefix__c"/></mask><path fill="#348FE5" d="M8.063.321C3.803.321.35.838.35 1.472c0 .636 3.454 1.153 7.714 1.153s7.714-.517 7.714-1.153c0-.634-3.454-1.15-7.714-1.15" mask="url(#prefix__d)"/></g><path fill="#6236FF" d="M29.439 0c-.598 0-1.083.484-1.083 1.082v14.411h2.165V1.083c0-.6-.485-1.083-1.082-1.083"/><path fill="#FFF" d="M29.179.779a.532.532 0 00-.53.53v8.095c0 .29.239.529.53.529.291 0 .53-.239.53-.53V1.31a.532.532 0 00-.53-.53" opacity=".222"/><path fill="#056DD0" d="M27.362 14.749h4.153v-4.397h-4.153z"/><path fill="#3A9FFF" d="M33.424 12.515h-7.971a.97.97 0 00-.969.97v1.564h9.91v-1.565a.97.97 0 00-.97-.969"/><path fill="#0044C0" d="M35.86 18.138H22.822c-9.265 0-16.802 7.538-16.802 16.803v4.054c0 .307 2.264.555 5.058.555s5.059-.248 5.059-.555l.022-4.054a6.67 6.67 0 016.663-6.664h13.036a6.671 6.671 0 016.664 6.664v27.43c0 .26 2.27.47 5.07.47 2.799 0 5.069-.21 5.069-.47v-27.43c0-9.265-7.538-16.803-16.803-16.803"/><path fill="#6236FF" d="M37.672 24.868l-.6-6.686v10.205c.037.009.311.07.348.08 2.924.704 5.103 3.338 5.103 6.473v27.43s.191.2.94.272c.497.048 2.426.17 2.426.17s.026-24.404.026-28.4c0-8.439-8.243-9.544-8.243-9.544"/><path fill="#147CDF" d="M34.735 15.049H24.142a2.342 2.342 0 00-2.336 2.336v11.683a2.342 2.342 0 002.336 2.337h10.593a2.344 2.344 0 002.337-2.337V17.385a2.343 2.343 0 00-2.337-2.336"/><path fill="#348FE5" d="M27.692 15.049h3.544v-2.534h-3.544z"/><path fill="#2B77BF" d="M33.424 12.515h-2.188v2.534h3.158v-1.565a.97.97 0 00-.97-.969"/><path fill="#042CFF" d="M35.274 23.14a6.348 6.348 0 01-6.263 5.31h-7.205v.619a2.343 2.343 0 002.337 2.336h10.591a2.342 2.342 0 002.338-2.336V17.386c0-.588-.227-1.12-.588-1.531l-1.21 7.285z" opacity=".335"/><path fill="#FFF" d="M28.357 6.234s.538.313 1.082.315c.573.002 1.097-.315 1.097-.315V4.91h-2.18v1.325z" opacity=".254"/><path fill="#147CDF" d="M38.819 1.767A2.615 2.615 0 0036.968 1l-3.885.889c-.65.148-1.33.09-1.944-.17l-.366-.153a3.45 3.45 0 00-2.683 0 4.42 4.42 0 01-2.696.234l-3.5-.8a2.61 2.61 0 00-1.851.766 2.606 2.606 0 00-.766 1.852 2.614 2.614 0 002.617 2.616l3.5-.8a4.42 4.42 0 012.696.235 3.459 3.459 0 002.683 0l.366-.154a3.197 3.197 0 011.944-.17l3.885.89a2.61 2.61 0 001.85-.767 2.602 2.602 0 00.768-1.851 2.605 2.605 0 00-.767-1.85"/><path fill="#2B77BF" d="M39.305 2.46c.01.094.028.184.028.279 0 .362-.073.705-.205 1.019a2.633 2.633 0 01-1.393 1.392 2.606 2.606 0 01-1.02.206l-3.885-.888a3.18 3.18 0 00-1.943.169l-.366.154a3.461 3.461 0 01-2.684 0 4.407 4.407 0 00-2.695-.234l-3.5.799a2.601 2.601 0 01-1.85-.766 2.59 2.59 0 01-.487-.695c.028.26.08.51.178.74.133.314.324.596.56.833a2.628 2.628 0 001.852.766l3.498-.8a4.421 4.421 0 012.697.235 3.461 3.461 0 002.684 0l.365-.154a3.197 3.197 0 011.944-.17l3.886.89c.36 0 .705-.074 1.017-.207a2.596 2.596 0 001.393-1.392 2.623 2.623 0 00.001-2.038c-.021-.048-.052-.09-.075-.137"/><path fill="#5FB1FF" d="M34.132 15.854h-9.634a.768.768 0 00-.766.766c0 .42.344.765.766.765h9.634a.767.767 0 00.766-.765.768.768 0 00-.766-.766M21.806 1.604c-.656 0-1.187.293-1.187.653 0 .36.531.651 1.187.651s1.187-.291 1.187-.651c0-.36-.531-.653-1.187-.653m7.658.205c-.327 0-.594.146-.594.326 0 .18.267.325.594.325.328 0 .594-.145.594-.325 0-.18-.266-.326-.594-.326"/><path fill="#6236FF" d="M21.805 18.19c-.01.09-.76 6.835-.76 7.376 0 0-3.543.822-5.71 3.745-2.072 2.792-1.118 7.747-2.234 9.304-.296.414-.822.779-1.632.93 2.608-.022 4.668-.258 4.668-.55l.022-4.054c0-.391.04-.772.105-1.144.008-.04.01-.079.018-.117.069-.354.169-.696.29-1.029l.052-.14c.13-.328.284-.641.46-.942l.068-.11c.188-.306.399-.596.633-.867l.04-.045a6.652 6.652 0 014.021-2.19l-.04-10.167h-.001z"/></g></svg>
