<svg xmlns="http://www.w3.org/2000/svg" xmlns:xlink="http://www.w3.org/1999/xlink" width="76" height="82"><defs><path id="prefix__a" d="M.176.328h39.032V21.83H.176z"/><path id="prefix__c" d="M.462.051h18.365V6.59H.462z"/><path id="prefix__e" d="M.469.021h.487v.466H.469z"/></defs><g fill="none" fill-rule="evenodd"><path fill="#B1C3FF" d="M16.399 22.793l1.544 4.104c.322.857 1.243 1.288 2.07.968l.678-.262-2.728-7.254-.647.262c-.833.338-1.244 1.315-.917 2.182"/><path fill="#0091FF" d="M22.91 33.5c.247.66.867 1.087 1.554 1.089 3.93.008 7.715-1.437 10.703-4.033l-7.106-18.533-10.636-10.76-.895 15.278 1.433 3.809 2.728 7.253L22.91 33.5z"/><path fill="#13495E" d="M31.605 20.622l3.724 9.802c-1.374-3.647-2.52-6.647-3.725-9.805l.001.003z"/><path fill="#384AEF" d="M29.684 11.337L19.016.633l-1.426.564 10.714 10.718z"/><path fill="#0431A3" d="M31.604 20.619c1.204 3.157 2.351 6.158 3.725 9.805.097-.086.2-.162.295-.25.508-.475.687-1.22.44-1.88-.864-2.293-1.537-4.081-2.15-5.714-.56.19-1.15-.068-1.44-.59-.031-.056-.076-.1-.099-.161l-1.909-5.075c-.24-.641.05-1.35.642-1.632l-.031-.082-1.393-3.703-1.38.578 3.3 8.704z"/><g transform="translate(30.205 .16)"><mask id="prefix__b" fill="#fff"><use xlink:href="#prefix__a"/></mask><path fill="#6782E0" d="M.261 16.594L2.17 21.67c.023.062.068.106.1.161L39.207 7.423a1.409 1.409 0 01-.11-.159c-.304-.558-.391-.869-.614-1.522l-.866-2.538c-.396-1.162-.581-2.078.238-2.859a2.727 2.727 0 00-1.32.174L.964 14.92c-.024.01-.039.03-.061.041a1.301 1.301 0 00-.642 1.632" mask="url(#prefix__b)"/></g><path fill="#2428B5" d="M69.413 7.582L32.474 21.99c.29.523.88.78 1.44.591.016-.005.032-.002.048-.009l35.76-13.82c.336-.13.627-.325.88-.556-.318.25-.913-.255-1.19-.613"/><path fill="#B1C3FF" d="M67.823 3.363l.866 2.539c.222.653.31.963.615 1.521.025.047.064.102.109.16.276.358.87.861 1.19.611.427-.333.176-2.095-.07-2.747l-1.02-2.893C69.3 1.989 68.55.556 68.06.504c-.82.781-.634 1.698-.238 2.86"/><path fill="#90CEDD" d="M28.304 11.916L17.59 1.197l-.165.065 10.636 10.761z"/><path fill="#90CEDD" d="M31.604 20.619l-3.3-8.704-.243.108 7.106 18.533.003.007.159-.139-3.724-9.803z"/><path fill="#387DFF" d="M34.494 60.886l-.472-18.869-33.944.85.059 2.32c6.784 2.874 10.238 4.906 12.51 6.156 9.735 5.358 9.78 9.249 9.895 12.886.115 3.636-9.06 9.784-9.06 9.784l9.24-.23 11.772-12.897z"/><g transform="translate(56.513 39.62)"><mask id="prefix__d" fill="#fff"><use xlink:href="#prefix__c"/></mask><path fill="#277BE6" d="M.462 5.064L.5 6.59c1.19-.167 2.436-.331 2.88-.472C7.908 4.682 18.827.05 18.827.05S6.74 3.622 3.344 4.7c-.324.102-1.62.233-2.882.365" mask="url(#prefix__d)"/></g><path d="M56.936 43.163l.038 1.52c1.264-.131 2.56-.262 2.883-.364 3.397-1.077 15.483-4.648 15.483-4.648s-13.255 2.51-15.518 3.229c-.212.067-1.55.164-2.886.263" fill="#5592F4"/><path d="M56.898 41.647l.038 1.515c1.336-.098 2.674-.195 2.885-.262 2.264-.718 15.52-3.23 15.52-3.23s-14.424 1.452-15.556 1.811c-.104.033-1.481.098-2.888.166" fill="#0D0A6F"/><path d="M56.898 41.647c1.407-.068 2.784-.133 2.888-.166 1.132-.359 15.554-1.811 15.554-1.811l-18.477.464v.066l.035 1.448z" fill="#277BE6"/><path fill="#5443FF" d="M53.582 40.786l-.06-2.4-52.76 1.32.06 2.401z"/><path d="M57.09 49.289l.039 1.557c.958-.29 2.01-.577 2.87-.85C67.924 47.481 75.34 39.67 75.34 39.67s-8.582 6.751-15.376 8.906c-.708.225-1.837.467-2.873.713" fill="#11A5DF"/><path fill="#13495E" d="M57.168 52.436c.208-.081.402-.164.618-.244-.216.08-.41.162-.618.243v.001z"/><path d="M57.05 47.745l.04 1.544c1.036-.246 2.165-.488 2.874-.713 6.793-2.154 15.376-8.904 15.376-8.904s-9.751 5.69-15.412 7.486c-.57.18-1.763.382-2.877.587" fill="#277BE6"/><path d="M60 49.995c-.861.274-1.913.56-2.871.851l.023.926c.007.277.031.425.013.527l.003.135c.208-.08.403-.163.618-.243.707-.263 1.45-.523 2.248-.777 9.058-2.872 15.306-11.742 15.306-11.742S67.925 47.482 60 49.995" fill="#0D0A6F"/><path fill="#5443FF" d="M34.022 42.017l.472 18.869 12.524 12.287v-.04l9.269-.232c-.665-.404-9.41-5.78-9.475-9.28-.053-2.868.95-6.493 7.098-9.718l-.31-12.376-19.578.49z"/><path fill="#5443FF" d="M47.206 80.679l8.708-.256-.506-.031-.186-7.424 1.076.066.184 7.372.055-.001-.187-7.506-9.333.234z"/><path d="M57.013 46.21l.037 1.534c1.114-.204 2.306-.406 2.877-.587 5.663-1.795 15.413-7.486 15.413-7.486s-10.92 4.63-15.447 6.067c-.444.14-1.691.305-2.88.472" fill="#8AAFFF"/><g transform="translate(21.436 81.031)"><mask id="prefix__f" fill="#fff"><use xlink:href="#prefix__e"/></mask><path fill="#0A5D7A" d="M.656.276L.77.274V.253z" mask="url(#prefix__f)"/></g><path fill="#0A5D7A" d="M22.796 81.29l.114-.003-.004-.148-.113.024z"/><path fill="#5443FF" d="M13.481 74.013l.188 7.505 8.422-.21.114-.024-.187-7.48.59-.014.184 7.373.114-.023-.184-7.358z"/><path fill="#2973FF" d="M34.494 60.886L22.721 73.782l.185 7.357 12.033-2.48z"/><path fill="#2973FF" d="M34.494 60.886l.445 17.773.082-.017 12.185 2.037-.188-7.505z"/><path fill="#387DFF" d="M57.165 52.3c.018-.102-.006-.25-.013-.527l-.29-11.573v-.065c-.009-.81.18-1.042-.648-1.02l-2.672.066.368 14.723a29.98 29.98 0 012.455-1.14c.102-.042.201-.089.304-.13.364-.147.471-.195.496-.334"/><path fill="#0A5D7A" d="M57.123 52.454l.046-.018a.437.437 0 00-.046.018"/><path fill="#387DFF" d="M34.003 41.276l-33.181.831.005.187-.762.019.013.554 33.944-.85z"/><path fill="#387DFF" d="M34.022 42.017l19.578-.49-.019-.741-19.578.49z"/><path fill="#5443FF" d="M.762 39.706l-.762.02.065 2.587.762-.019z"/><path fill="#387DFF" d="M22.722 73.787l-.704.017.188 7.506.704-.018zm33.816 6.618l-1.129.028-.188-7.506 1.129-.028z"/></g></svg>
