<svg xmlns="http://www.w3.org/2000/svg" width="207" height="208"><path d="M100.974.543L99.372.59l.211 7.158 1.601-.047zm-5.679.28l.603 7.135-1.596.136-.603-7.135zm-5.655.593l.997 7.091-1.587.223-.998-7.09zm-5.623.907l1.39 7.024-1.571.312-1.39-7.025zm-5.555 1.216l1.777 6.937-1.552.397-1.777-6.937zm-5.469 1.519l2.158 6.827-1.527.483-2.158-6.828zM67.604 6.88l2.532 6.697-1.498.567-2.533-6.698zm-5.278 2.116l2.898 6.548-1.465.649-2.898-6.549zm-5.154 2.406l3.254 6.378-1.427.729-3.254-6.379zm-5.003 2.677l3.598 6.192-1.386.805-3.597-6.191zm-4.857 2.954l3.932 5.985-1.339.88-3.932-5.985zm-4.683 3.211l4.253 5.761-1.289.951-4.253-5.761zm-4.513 3.472l4.562 5.52-1.235 1.021-4.561-5.52zm-4.302 3.701l4.856 5.263-1.177 1.086-4.856-5.262zm-4.096 3.933l5.136 4.99-1.115 1.149-5.137-4.989zm-3.879 4.157l5.401 4.7-1.051 1.208-5.403-4.7zm-3.652 4.37l5.652 4.396-.984 1.264-5.653-4.396zm-3.391 4.544l5.884 4.08-.912 1.316-5.885-4.079zm-3.147 4.739l6.1 3.748-.838 1.365-6.101-3.748zm-2.882 4.907l6.3 3.405-.762 1.41-6.299-3.406zm-2.599 5.048l6.478 3.052-.683 1.45-6.477-3.052zm-2.321 5.196l6.637 2.688-.602 1.485-6.637-2.688zm-2.029 5.315l6.776 2.315-.518 1.516L5.3 71.142zm-1.73 5.421l6.893 1.937-.432 1.542-6.895-1.936zm-1.427 5.498L9.65 82.1l-.348 1.564-6.989-1.555zm-1.123 5.563l7.065 1.17-.262 1.581-7.064-1.17zm-.811 5.59l7.115.811L7.66 94.1l-7.114-.811zm-.608 7.263l7.15.402.09-1.6-7.15-.402zM0 104.642l7.161.012.002-1.602-7.16-.012zm.106 4.082l.086 1.6 7.15-.382-.086-1.601zm.418 5.678l.174 1.592 7.118-.775-.174-1.593zm.728 5.632l7.064-1.169.262 1.579-7.064 1.169zm1.039 5.58l6.99-1.557.348 1.564-6.989 1.557zm1.349 5.531l6.893-1.944.434 1.543-6.891 1.943zm1.653 5.439l6.774-2.322.519 1.516-6.773 2.321zm1.952 5.343l6.635-2.693.602 1.484-6.636 2.693zm2.244 5.226l6.477-3.053.683 1.449-6.477 3.053zm2.524 5.091l6.299-3.405.762 1.409-6.3 3.405zm2.805 4.95l6.102-3.745.838 1.365-6.103 3.746zm3.067 4.782l5.889-4.074.911 1.318-5.889 4.073zm3.321 4.603l5.657-4.389.982 1.266-5.657 4.389zm3.566 4.414l5.409-4.692 1.05 1.211-5.409 4.692zm3.816 4.229l5.145-4.981 1.114 1.151-5.145 4.981zm4.032 4.002l4.864-5.255 1.176 1.09-4.866 5.254zM36.863 183l4.57-5.513 1.233 1.022-4.57 5.513zm4.445 3.537l4.26-5.756 1.288.954-4.26 5.755zm4.638 3.291l3.936-5.981 1.339.881-3.937 5.982zm4.803 3.027l3.601-6.19 1.385.806-3.6 6.189zm4.986 2.767l3.252-6.38 1.427.728-3.251 6.379zm5.113 2.479l2.894-6.551 1.465.648-2.895 6.55zm5.237 2.188l2.527-6.7 1.499.566-2.527 6.7zm5.36 1.9l2.152-6.83 1.528.482-2.152 6.829zm5.461 1.601l1.772-6.938 1.552.396-1.772 6.938zm5.534 1.296l1.387-7.026 1.572.31-1.387 7.026zm5.593.989l1.003-7.09 1.585.224-1.002 7.091zm5.646.69l1.597.13.581-7.138-1.597-.13zm5.636.374l1.601.051.233-7.157-1.602-.051zm5.518-7.088l.158 7.159 1.602-.035-.16-7.16zm5.281-.22l.554 7.14 1.597-.124-.554-7.139zm6.22 6.587l-.948-7.098 1.588-.212.947 7.097zm5.623-.866l-1.339-7.034 1.573-.301 1.339 7.034zm5.559-1.176l-1.727-6.949 1.555-.386 1.727 6.949zm5.493-1.482l-2.109-6.843 1.531-.472 2.109 6.843zm5.404-1.785l-2.484-6.716 1.502-.556 2.485 6.716zm5.278-2.073l-2.851-6.569 1.469-.638 2.851 6.57zm5.173-2.37l-3.208-6.402 1.432-.717 3.208 6.402zm5.024-2.643l-3.555-6.216 1.392-.794 3.554 6.216zm4.878-2.918l-3.889-6.013 1.344-.871 3.891 6.012zm4.706-3.179l-4.212-5.791 1.295-.942 4.212 5.791zm4.538-3.44l-4.523-5.552 1.242-1.012 4.522 5.552zm4.328-3.671l-4.818-5.297 1.185-1.078 4.819 5.298zm4.124-3.903l-5.102-5.026 1.125-1.142 5.101 5.026zm3.908-4.127l-5.368-4.74 1.06-1.201 5.369 4.739zm3.682-4.344l-5.621-4.437.993-1.257 5.62 4.437zm3.434-4.533l-5.855-4.121.921-1.31 5.856 4.121zm3.178-4.715l-6.074-3.791.848-1.36 6.075 3.792zm2.91-4.876l-6.276-3.451.773-1.404 6.275 3.451zm2.638-5.036l-6.456-3.097.693-1.445 6.456 3.098zm2.356-5.175l-6.618-2.734.612-1.481 6.618 2.735zm2.065-5.294l-6.759-2.364.529-1.513 6.759 2.365zm1.769-5.404l-6.88-1.986.445-1.539 6.879 1.987zm1.47-5.5l-6.979-1.604.359-1.561 6.978 1.603zm1.162-5.557l-7.056-1.22.273-1.579 7.056 1.22zm.855-5.612l-7.111-.835.187-1.591 7.112.835zm-6.594-6.089l7.146.453.101-1.599-7.146-.453zm.232-5.275l7.161.063.014-1.602-7.161-.062zm-.131-6.899l.074 1.601 7.154-.332-.074-1.6zm6.851-4.398l-7.123.725-.162-1.594 7.124-.724zm-.689-5.651l-7.072 1.119-.25-1.583 7.072-1.118zm-.998-5.584l-7 1.508-.337-1.566 7-1.508zm-1.311-5.544l-6.907 1.895-.423-1.545 6.906-1.895zm-1.615-5.453l-6.79 2.274-.509-1.519 6.79-2.274zm-1.912-5.35l-6.654 2.645-.592-1.489 6.654-2.645zm-2.203-5.236l-6.498 3.008-.672-1.454 6.498-3.008zm-2.489-5.109l-6.324 3.359-.752-1.414 6.324-3.36zm-2.77-4.972l-6.129 3.702-.829-1.372 6.13-3.701zm-3.034-4.805l-5.917 4.032-.903-1.324 5.919-4.032zm-3.289-4.627l-5.688 4.349-.974-1.273 5.69-4.348zm-3.534-4.439l-5.443 4.653-1.042-1.218 5.444-4.653zm-3.785-4.255l-5.181 4.945-1.106-1.16 5.18-4.943zm-4.003-4.031l-4.902 5.22-1.168-1.097 4.902-5.219zm-4.223-3.81l-4.609 5.48-1.226-1.031 4.608-5.48zm-4.419-3.569l-4.301 5.726-1.281-.962 4.301-5.726zm-4.605-3.317l-3.979 5.953-1.332-.89 3.98-5.953zm-4.796-3.07l-3.645 6.165-1.379-.816 3.645-6.163zm-4.945-2.791l-3.298 6.356-1.422-.737 3.298-6.356zm-5.1-2.518l-2.941 6.53-1.462-.659 2.942-6.529zM141.3 7.718l-2.575 6.682-1.494-.576 2.574-6.682zm-5.359-1.942l-2.2 6.814-1.524-.491 2.199-6.815zm-5.445-1.638l-1.82 6.926-1.55-.407 1.82-6.926zm-5.518-1.332l-1.437 7.015-1.569-.322 1.436-7.015zM119.4 1.777l-1.052 7.084-1.584-.237 1.052-7.082zm-5.686-.739l-.581 7.138-1.597-.131.581-7.137zm-7.474 6.688l1.602.064.283-7.156-1.602-.064z" fill="#40352F" fill-rule="evenodd"/></svg>
