<svg xmlns="http://www.w3.org/2000/svg" width="74" height="74" viewBox="0 0 74 74">
    <g fill="none" fill-opacity=".15" fill-rule="evenodd">
        <g fill="#D8D8D8">
            <path d="M1269.815 591c8.492 0 16.306 2.888 22.538 7.73l.26-.057c.262-.05.532-.08.809-.08l.213.006c2.331.111 4.187 2.044 4.187 4.412l-.005.214c-.11 2.34-2.036 4.203-4.395 4.203l-.214-.006c-2.331-.111-4.187-2.043-4.187-4.411l.009-.283c.024-.374.095-.736.206-1.08l-.431-.314c-5.352-3.847-11.905-6.115-18.99-6.115l-.517.004c-17.042.266-30.906 13.633-32.058 30.506h6.32l.038-.405c1.335-13.35 12.557-23.776 26.211-23.776l.395.003c12.994.191 23.71 9.823 25.644 22.365h10.835V628l-.005.611c-.326 20.153-16.705 36.389-36.863 36.389l-.558-.004c-8.907-.133-17.044-3.442-23.35-8.843l-.233.06c-.314.073-.64.113-.976.113l-.213-.005c-2.332-.111-4.188-2.044-4.188-4.412l.005-.214c.111-2.34 2.036-4.202 4.396-4.202l.213.005c2.332.112 4.188 2.044 4.188 4.411l-.008.262c-.02.347-.082.682-.177 1.002l.388.32c5.607 4.554 12.739 7.288 20.513 7.288l.54-.005c17.791-.289 32.124-14.853 32.124-32.776v-.006h-6.318l-.004.437c-.233 14.404-11.94 26.008-26.348 26.008l-.417-.003c-13.756-.214-24.946-11.008-25.866-24.63H1233v-.938c.003-.986.01-2.484.031-3.139l.025-.58c.968-19.125 17.355-34.149 36.76-34.149zm-.006 14.764l-.366.002c-12.065.197-21.785 10.073-21.785 22.228 0 12.278 9.918 22.23 22.151 22.23l.366-.003c12.066-.196 21.786-10.072 21.786-22.227l-.003-.368c-.196-12.108-10.037-21.862-22.149-21.862zm16.878 12.579l-16.384 28.478.002-6.251 11.021-19.158 5.36-3.07zm-33.67.033l5.36 3.07 11.002 19.125-.001 6.247-16.362-28.442zm25.439 4.206l-8.614 14.974-8.614-14.974h17.228zm7.751-5.034l-5.457 3.125h-21.856l-5.457-3.125h32.77z" transform="translate(-1233.000000, -591.000000)"/>
        </g>
    </g>
</svg>
