<svg xmlns="http://www.w3.org/2000/svg" xmlns:xlink="http://www.w3.org/1999/xlink" width="16" height="8" viewBox="0 0 16 8">
    <defs>
        <path id="19rnm78osa" d="M0.032 0.013L5.837 0.013 5.837 7.301 0.032 7.301z"/>
        <path id="uy4byeug7c" d="M0 0.008L5.805 0.008 5.805 7.279 0 7.279z"/>
    </defs>
    <g fill="none" fill-rule="evenodd">
        <g>
            <g>
                <g transform="translate(-612 -351) translate(612 351) translate(10.132 .026)">
                    <mask id="s36ne2oifb" fill="#fff">
                        <use xlink:href="#19rnm78osa"/>
                    </mask>
                    <path fill="#4A5086" d="M1.582 7.282c-.261 0-.522.003-.783 0-.45-.007-.772-.32-.767-.74.005-.41.329-.714.77-.716.46-.002.919 0 1.379 0 1.15 0 2.077-.83 2.202-1.975.118-1.074-.622-2.089-1.712-2.332-.186-.042-.383-.048-.574-.05-.443-.008-.886 0-1.328-.004C.366 1.461.055 1.17.033.785.011.39.291.029.696.023c.719-.01 1.447-.035 2.156.06 1.58.213 2.857 1.64 2.974 3.231C5.97 5.283 4.7 6.912 2.753 7.232c-.383.063-.78.048-1.17.069l-.001-.019" mask="url(#s36ne2oifb)"/>
                </g>
                <g transform="translate(-612 -351) translate(612 351) translate(0 .026)">
                    <mask id="47rz28276d" fill="#fff">
                        <use xlink:href="#uy4byeug7c"/>
                    </mask>
                    <path fill="#4A5086" d="M4.272 1.439c-.39.03-.788.017-1.165.1-1.048.229-1.764 1.252-1.653 2.305.118 1.118 1.025 1.965 2.128 1.98.482.007.965 0 1.447.002.452.002.776.306.776.727 0 .412-.32.731-.76.726-.686-.008-1.38.023-2.055-.069C1.412 6.997.129 5.571.01 3.982-.134 2.012 1.131.39 3.078.057c.162-.028.327-.041.491-.043.494-.006.988-.008 1.481-.002.44.005.757.318.755.732-.003.413-.326.719-.765.722-.255.002-.51 0-.766 0l-.002-.027" mask="url(#47rz28276d)"/>
                </g>
                <path fill="#4A5086" d="M7.987 4.396c-.965 0-1.93.004-2.894-.002-.498-.003-.827-.42-.72-.892.072-.313.343-.542.673-.55.38-.009.76-.004 1.14-.004h4.647c.42.001.704.225.77.599.076.43-.233.829-.672.844-.368.012-.737.004-1.106.005H7.987" transform="translate(-612 -351) translate(612 351)"/>
            </g>
        </g>
    </g>
</svg>
