<svg xmlns="http://www.w3.org/2000/svg" width="72" height="22" viewBox="0 0 72 22">
    <g fill="none" fill-rule="evenodd">
        <g>
            <g transform="translate(-690 -225) translate(690 225)">
                <rect width="72" height="22" fill="#6811EF" rx="6"/>
                <g fill="#FFF" fill-rule="nonzero">
                    <path d="M8.71 6.693L8 5.438l-.71 1.255c-.066.118-.181.201-.314.228l-1.413.287.974 1.063c.092.1.136.235.12.37l-.163 1.432 1.312-.598c.061-.028.128-.042.194-.042s.133.014.194.042l1.312.598-.163-1.432c-.016-.135.028-.27.12-.37l.974-1.063-1.413-.287c-.133-.027-.248-.11-.314-.228z" transform="translate(9 3)"/>
                    <path d="M8 2.946C5.213 2.946 2.946 5.213 2.946 8c0 2.787 2.267 5.054 5.054 5.054 2.787 0 5.054-2.267 5.054-5.054 0-2.787-2.267-5.054-5.054-5.054zm2.298 5.8l.233 2.044c.02.168-.053.333-.19.433-.23.167-.465.049-.47.047L8 10.417l-1.871.853c-.154.07-.334.052-.47-.047-.137-.1-.21-.265-.19-.433l.233-2.043-1.39-1.516c-.114-.125-.153-.301-.1-.462.052-.16.186-.28.352-.314l2.016-.41 1.012-1.79c.083-.147.24-.238.408-.238.169 0 .325.09.408.238l1.012 1.79 2.016.41c.166.033.3.153.352.314.053.16.014.337-.1.462l-1.39 1.516z" transform="translate(9 3)"/>
                    <path d="M8 0C3.589 0 0 3.589 0 8s3.589 8 8 8 8-3.589 8-8-3.589-8-8-8zm0 13.992c-3.304 0-5.992-2.688-5.992-5.992S4.696 2.008 8 2.008 13.992 4.696 13.992 8 11.304 13.992 8 13.992z" transform="translate(9 3)"/>
                </g>
                <text fill="#FFF" font-family="Gordita-Medium, Gordita" font-size="13.5" font-weight="400">
                    <tspan x="29" y="16">New</tspan>
                </text>
            </g>
        </g>
    </g>
</svg>
