<svg xmlns="http://www.w3.org/2000/svg" width="100" height="100" viewBox="0 0 100 100">
    <defs>
        <linearGradient id="bmtwrfwjda" x1="100%" x2="8.378%" y1="100%" y2="6.359%">
            <stop offset="0%" stop-color="#223BE7" stop-opacity=".425"/>
            <stop offset="100%" stop-color="#3443F9" stop-opacity=".218"/>
        </linearGradient>
        <linearGradient id="m7sjm1cvhc" x1="100%" x2="8.378%" y1="87.954%" y2="16.873%">
            <stop offset="0%" stop-color="#54A3FC"/>
            <stop offset="100%" stop-color="#3768ED"/>
        </linearGradient>
        <radialGradient id="eefgw9wc2b" cx="94.952%" cy="77.673%" r="116.226%" fx="94.952%" fy="77.673%" gradientTransform="matrix(1 0 0 .99432 0 .004)">
            <stop offset="0%" stop-color="#160DDC"/>
            <stop offset="100%" stop-color="#00489E"/>
        </radialGradient>
    </defs>
    <g fill="none" fill-rule="evenodd">
        <g>
            <g transform="translate(-1025 -598) translate(1025 598)">
                <g fill="url(#bmtwrfwjda)">
                    <rect width="99.836" height="99.836" x=".081" rx="4"/>
                    <rect width="84" height="84" x="7.999" y="7.918" rx="4"/>
                </g>
                <g>
                    <path fill="#253AD2" d="M31.913 9.04h-3.216c-.421 0-.778-.316-.831-.736l-.87-6.832c-.064-.504.327-.95.832-.95h4.954c.505 0 .896.446.832.95l-.87 6.832c-.053.42-.41.735-.831.735" transform="translate(20 20)"/>
                    <path fill="#212CA2" d="M32.782.522h-.34c-.19.685-1.073 1.204-2.137 1.204s-1.947-.52-2.137-1.204h-.34c-.505 0-.896.445-.831.95l.869 6.831c.053.421.41.736.831.736h3.216c.421 0 .778-.315.831-.736l.87-6.83c.064-.506-.327-.951-.832-.951" transform="translate(20 20)"/>
                    <path fill="#67A8FF" d="M29.161 20.085L31.448 20.085 31.448 9.04 29.161 9.04z" transform="translate(20 20)"/>
                    <path fill="#253AD2" d="M46.504 16.581l-2.273-2.287c-.299-.3-.33-.776-.07-1.112l4.188-5.449c.308-.402.898-.44 1.256-.08l3.503 3.523c.357.36.32.952-.08 1.263l-5.419 4.213c-.333.26-.807.23-1.105-.07" transform="translate(20 20)"/>
                    <path fill="#212CA2" d="M53.108 11.176l-.24-.243c-.616.351-1.606.09-2.359-.667-.752-.757-1.011-1.752-.664-2.371l-.24-.242c-.358-.36-.947-.322-1.257.08l-4.188 5.449c-.258.336-.228.812.07 1.112l2.274 2.287c.299.3.772.33 1.106.07l5.417-4.212c.4-.31.438-.904.08-1.263" transform="translate(20 20)"/>
                    <path fill="#67A8FF" d="M38.41 24.061L36.793 22.435 44.559 14.624 46.176 16.251z" transform="translate(20 20)"/>
                    <path fill="#253AD2" d="M51.52 32.29v-3.234c0-.424.313-.783.731-.836l6.793-.875c.502-.064.945.328.945.836v4.983c0 .508-.443.9-.945.836l-6.793-.874c-.418-.054-.732-.412-.732-.836" transform="translate(20 20)"/>
                    <path fill="#212CA2" d="M59.99 33.164v-.342c-.682-.19-1.199-1.078-1.199-2.15 0-1.07.517-1.958 1.198-2.148v-.343c0-.508-.444-.9-.945-.836l-6.792.875c-.419.053-.733.412-.733.836v3.234c0 .424.314.782.733.836l6.792.874c.501.065.945-.328.945-.836" transform="translate(20 20)"/>
                    <path fill="#67A8FF" d="M40.537 31.823L51.519 31.823 51.519 29.524 40.537 29.524z" transform="translate(20 20)"/>
                    <path fill="#253AD2" d="M44.021 46.964l2.274-2.286c.298-.3.772-.33 1.106-.071l5.417 4.212c.4.31.438.904.08 1.264l-3.503 3.523c-.357.36-.946.321-1.256-.08l-4.188-5.45c-.259-.335-.229-.811.07-1.112" transform="translate(20 20)"/>
                    <path fill="#212CA2" d="M49.395 53.606l.24-.243c-.347-.618-.088-1.614.665-2.37.753-.758 1.742-1.019 2.357-.669l.242-.241c.357-.36.32-.953-.08-1.264L47.4 44.607c-.333-.26-.807-.23-1.105.07l-2.274 2.287c-.298.3-.328.777-.07 1.113l4.188 5.448c.309.402.9.44 1.256.08" transform="translate(20 20)"/>
                    <path fill="#67A8FF" d="M36.583 38.823L38.201 37.197 45.966 45.008 44.35 46.634z" transform="translate(20 20)"/>
                    <path fill="#253AD2" d="M28.401 52.009h3.216c.422 0 .778.315.831.735l.87 6.832c.064.504-.327.95-.832.95h-4.954c-.505 0-.895-.446-.831-.95l.87-6.832c.052-.42.409-.735.83-.735" transform="translate(20 20)"/>
                    <path fill="#212CA2" d="M27.532 60.526h.34c.19-.685 1.073-1.204 2.137-1.204 1.065 0 1.948.52 2.137 1.204h.34c.505 0 .896-.445.832-.95l-.87-6.831c-.053-.421-.41-.736-.831-.736h-3.216c-.421 0-.778.315-.831.736l-.87 6.83c-.063.506.327.951.832.951" transform="translate(20 20)"/>
                    <path fill="#67A8FF" d="M28.866 52.009L31.153 52.009 31.153 40.963 28.866 40.963z" transform="translate(20 20)"/>
                    <path fill="#253AD2" d="M13.81 44.467l2.274 2.287c.299.3.329.776.07 1.111l-4.188 5.45c-.31.402-.899.439-1.256.08l-3.503-3.523c-.358-.36-.32-.952.08-1.263l5.418-4.213c.334-.26.807-.23 1.105.07" transform="translate(20 20)"/>
                    <path fill="#212CA2" d="M7.207 49.872l.24.243c.616-.351 1.606-.09 2.358.667.753.757 1.012 1.751.664 2.371l.24.242c.358.359.948.322 1.257-.08l4.188-5.45c.259-.335.229-.811-.07-1.111l-2.274-2.287c-.298-.3-.771-.33-1.106-.07l-5.417 4.212c-.4.31-.438.904-.08 1.263" transform="translate(20 20)"/>
                    <path fill="#67A8FF" d="M21.905 36.987L23.521 38.613 15.756 46.424 14.139 44.797z" transform="translate(20 20)"/>
                    <path fill="#253AD2" d="M8.795 28.758v3.234c0 .424-.313.782-.732.836l-6.793.874c-.501.065-.944-.327-.944-.836v-4.983c0-.507.443-.9.944-.835l6.793.874c.419.054.732.412.732.836" transform="translate(20 20)"/>
                    <path fill="#212CA2" d="M.325 27.884v.342c.682.19 1.198 1.078 1.198 2.149 0 1.07-.516 1.959-1.198 2.15v.34c0 .51.444.902.945.837l6.793-.874c.418-.054.732-.412.732-.836v-3.234c0-.424-.314-.782-.732-.836l-6.793-.874c-.501-.065-.945.328-.945.836" transform="translate(20 20)"/>
                    <path fill="#67A8FF" d="M8.795 31.525L19.778 31.525 19.778 29.226 8.795 29.226z" transform="translate(20 20)"/>
                    <path fill="#253AD2" d="M16.293 14.084L14.02 16.37c-.299.3-.772.33-1.106.071L7.496 12.23c-.4-.31-.438-.904-.08-1.264l3.503-3.523c.357-.36.947-.321 1.256.08l4.189 5.45c.258.335.228.811-.07 1.112" transform="translate(20 20)"/>
                    <path fill="#212CA2" d="M10.92 7.442l-.242.243c.348.618.089 1.614-.663 2.37-.754.757-1.743 1.019-2.358.669l-.241.241c-.357.36-.32.953.08 1.264l5.418 4.212c.334.26.807.229 1.106-.07l2.274-2.287c.297-.3.328-.777.07-1.113l-4.189-5.448c-.309-.402-.898-.44-1.256-.08" transform="translate(20 20)"/>
                    <path fill="#67A8FF" d="M23.731 22.225L22.114 23.85 14.348 16.04 15.965 14.414z" transform="translate(20 20)"/>
                    <path fill="url(#eefgw9wc2b)" d="M49.048 31.506c0 10.405-8.386 18.84-18.732 18.84-10.347 0-18.733-8.435-18.733-18.84 0-10.404 8.386-18.84 18.733-18.84 10.346 0 18.732 8.436 18.732 18.84" transform="translate(20 20)"/>
                    <path fill="url(#m7sjm1cvhc)" fill-rule="nonzero" d="M44.1 22.664L30.425 46.481v-5.228l9.2-16.023 4.473-2.563v-.003zm-28.1.028l4.473 2.566 9.183 15.995v5.226L16 22.692zm21.229 3.519L30.04 38.73l-7.188-12.52H37.23zM43.7 22l-4.555 2.614H20.906L16.354 22H43.7z" transform="translate(20 20)"/>
                </g>
                <rect width="8" height="10" x="5" y="24" fill="#212CA2" rx="1"/>
                <rect width="8" height="10" x="5" y="64" fill="#212CA2" rx="1"/>
            </g>
        </g>
    </g>
</svg>
