<svg xmlns="http://www.w3.org/2000/svg" width="86" height="77" viewBox="0 0 86 77">
    <g fill="none" fill-rule="evenodd">
        <g>
            <g>
                <g fill="#252B43">
                    <g>
                        <path fill-rule="nonzero" d="M64.967 33.704l-2.97 9.662-3.393-4.965c-.276-.41-1.011-.597-1.642-.417-.186.053-.35.135-.476.239l-3.548 2.89-3.015-5.882c-.166-.325-.628-.547-1.154-.555-.528-.013-1.01.197-1.191.52L36.13 54.558l-2.468-3.22c-.308-.401-1.056-.564-1.672-.364-.162.053-.304.127-.417.22l-3.685 2.999-2.92-4.431c-.217-.293-.667-.484-1.166-.494-.505.004-.956.205-1.143.51l-4.161 6.767-2.408-2.089c-.41-.36-1.19-.435-1.743-.168-.16.077-.288.177-.376.292l-4.984 6.485 2.23.725 4.09-5.307 2.528 2.189c.412.358 1.193.43 1.744.163.184-.09.326-.21.41-.348l3.864-6.29 2.553 3.876c.271.411 1.004.602 1.636.426.189-.053.355-.135.483-.24l3.768-3.063 2.867 3.729c.226.284.683.458 1.175.447.493-.015.926-.219 1.104-.519l11.216-18.969 2.64 5.153c.218.424.924.654 1.577.512.227-.05.428-.14.578-.262l3.705-3.013 4.152 6.08c.28.409 1.017.593 1.646.41.369-.106.635-.323.715-.58l3.738-12.16-2.44-.32z" transform="translate(-1209 -972) translate(1209 969)"/>
                        <path fill-rule="nonzero" stroke="#252B43" d="M80.562 6.404c2.813 1.975 4.651 5.244 4.651 8.942 0 5.959-4.89 10.803-10.823 10.917v1.176c0 .213-.238.338-.414.218l-2.86-1.957c-.153-.104-.153-.33 0-.435l2.86-1.957c.176-.12.413.006.413.218v1.179l.15-.004c5.007-.19 9.118-4.306 9.118-9.355 0-3.169-1.575-5.97-3.984-7.664-.425-.299-.447-.92-.04-1.24l.012-.01c.266-.209.64-.223.917-.028zm-6.163-3.322l2.86 1.957c.154.105.154.33 0 .436L74.4 7.43c-.175.12-.413-.005-.413-.217v-1.18l-.142.004c-5.006.191-9.125 4.307-9.125 9.355 0 3.17 1.574 5.97 3.984 7.665.424.298.447.919.039 1.24l-.012.009c-.266.21-.64.223-.917.028-2.812-1.975-4.65-5.244-4.65-8.942 0-5.955 4.893-10.798 10.822-10.917l.001-1.176c0-.212.238-.337.413-.218z" transform="translate(-1209 -972) translate(1209 969) rotate(66 74.188 15.37)"/>
                        <path d="M66.571 79.765H9.824C4.407 79.765 0 75.325 0 69.868V22.256c0-5.458 4.407-9.898 9.824-9.898h47.134c.946 0 1.712.772 1.712 1.725 0 .953-.766 1.725-1.712 1.725H9.824c-3.529 0-6.4 2.892-6.4 6.448v47.612c0 3.555 2.871 6.448 6.4 6.448H66.57c3.529 0 6.4-2.893 6.4-6.448V32.7c0-.953.767-1.725 1.712-1.725.946 0 1.712.772 1.712 1.725v37.167c0 5.457-4.407 9.897-9.824 9.897" transform="translate(-1209 -972) translate(1209 969)"/>
                    </g>
                </g>
            </g>
        </g>
    </g>
</svg>
