<svg xmlns="http://www.w3.org/2000/svg" width="66" height="66" viewBox="0 0 66 66">
    <defs>
        <linearGradient id="6r6dm9dvoa" x1="14.977%" x2="81.394%" y1="8.168%" y2="100%">
            <stop offset="0%" stop-color="#0047FF"/>
            <stop offset="100%" stop-color="#00D0FF"/>
        </linearGradient>
    </defs>
    <g fill="none" fill-rule="evenodd">
        <g fill="url(#6r6dm9dvoa)" transform="translate(-339 -935)">
            <g>
                <g>
                    <path d="M3.592 8.108c3.843.012 7.686.005 11.529.007.994 0 1.348.36 1.349 1.37.002 3.843-.005 7.687.006 11.531.002.573-.108 1.053-.684 1.29-.572.233-1.004-.015-1.402-.424-1.049-1.08-2.112-2.147-3.28-3.331-.672 1.197-1.341 2.257-1.884 3.378C2.25 36.355 9.706 53.672 25 58.485c6.08 1.913 12.112 1.634 18.028-.78.295-.12.593-.252.902-.313.528-.104.951.102 1.196.587.66 1.305 1.324 2.608 1.948 3.93.326.69.063 1.216-.73 1.576-2.318 1.049-4.725 1.847-7.23 2.263-11.829 1.966-21.993-1.31-30.287-9.973-4.865-5.08-7.69-11.23-8.555-18.23-1.047-8.486.932-16.231 5.82-23.24.089-.128.167-.264.286-.453-1.249-1.245-2.44-2.448-3.649-3.63-.425-.418-.693-.859-.442-1.458.244-.581.74-.657 1.305-.656zM35.777.548c8.444.76 15.57 4.268 21.335 10.453 4.78 5.128 7.636 11.215 8.502 18.19 1.054 8.489-.947 16.228-5.821 23.24-.09.128-.169.264-.292.458 1.222 1.217 2.437 2.42 3.642 3.634.19.192.395.405.49.648.295.76-.281 1.457-1.194 1.459-3.065.005-6.13.002-9.195.002-.87 0-1.739.008-2.608-.002-.819-.01-1.214-.403-1.215-1.229-.006-3.935.001-7.87-.007-11.805-.001-.536.17-.952.674-1.158.497-.203.932-.058 1.305.323 1.085 1.11 2.175 2.216 3.309 3.368 1.187-1.668 2.073-3.387 2.776-5.197 4.783-12.303-.22-26.203-11.755-32.6-4.571-2.534-9.48-3.597-14.706-3.22-2.944.213-5.763.894-8.475 2.049-.995.424-1.465.25-1.942-.701-.563-1.123-1.122-2.248-1.673-3.377-.45-.922-.264-1.449.671-1.859C24.763.958 30.154.042 35.777.548zm-2.843 15.255c9.727-.001 17.575 7.838 17.577 17.557.002 9.76-7.848 17.592-17.624 17.582-9.698-.01-17.523-7.89-17.51-17.63.015-9.685 7.86-17.508 17.557-17.51zm1.665 6.002h-2.835v2.037c-3.027.495-5.367 2.752-5.367 5.78 0 2.751 1.872 4.76 4.899 5.366l2.67.523c1.43.303 2.284 1.1 2.284 2.229 0 1.32-1.129 2.312-3.055 2.312-2.697 0-3.814-.81-3.979-2.654l-3.534-.043c.275 2.449 2.064 5.284 6.082 5.834v2.038h2.835V43.16c3.44-.55 5.338-3.054 5.338-5.669 0-2.642-1.816-4.843-5.256-5.504l-2.614-.495c-1.431-.275-2.064-1.073-2.064-2.147 0-1.238 1.183-2.311 2.917-2.311 1.834 0 2.658.022 3.284 1.59l3.403.06c-.358-1.926-1.761-4.237-5.008-4.788v-2.092z" transform="translate(339 934) translate(0 .587)"/>
                </g>
            </g>
        </g>
    </g>
</svg>
