<svg xmlns="http://www.w3.org/2000/svg" width="69" height="66" viewBox="0 0 69 66">
    <defs>
        <linearGradient id="q99p9ba5sa" x1="100%" x2="8.378%" y1="95.547%" y2="10.246%">
            <stop offset="0%" stop-color="#32C5FF"/>
            <stop offset="100%" stop-color="#B620E0"/>
        </linearGradient>
    </defs>
    <g fill="none" fill-rule="evenodd">
        <g fill="url(#q99p9ba5sa)" fill-rule="nonzero" transform="translate(-339 -1118)">
            <g>
                <path d="M28.167 3.33c1.72 0 3.168 1.391 3.168 3.153V34.49l19.806 19.805c1.316 1.317 1.219 3.505-.234 4.668-5.363 4.294-12.167 6.862-19.572 6.862-.967 0-1.947-.044-2.933-.133C13.808 64.364 1.806 52.62.197 38.056-1.755 20.372 11.022 5.23 27.81 3.35c.12-.013.24-.02.358-.02zM65.581 35c1.881 0 3.343 1.65 3.134 3.52-.674 6.024-3.055 11.533-6.65 16.03-.622.779-1.537 1.176-2.455 1.176-.806 0-1.614-.305-2.232-.923L42.924 40.349C40.95 38.375 42.348 35 45.14 35zM40.766.196c.118 0 .237.006.356.02 14.494 1.62 26 13.126 27.62 27.62.21 1.87-1.252 3.52-3.134 3.52H40.736c-1.73 0-3.134-1.403-3.134-3.134V3.35c0-1.76 1.446-3.154 3.164-3.154zm14.656 9.377L40.736 24.258v3.964h4.14L59.46 13.638c-1.208-1.487-2.56-2.85-4.038-4.065zm5.895 6.638l-12.01 12.011h8.102l6.616-6.616c-.707-1.904-1.623-3.706-2.708-5.395zm3.724 8.81l-3.2 3.201h3.767c-.119-1.089-.324-2.151-.567-3.2zM47.495 4.965l-6.76 6.76v8.103L52.859 7.705c-1.679-1.093-3.469-2.022-5.363-2.74zM40.766 3.33c-.012 0-.029.017-.032.022v3.944l3.36-3.36c-1.09-.26-2.195-.48-3.328-.606z" transform="translate(339 1118)"/>
            </g>
        </g>
    </g>
</svg>
