<svg xmlns="http://www.w3.org/2000/svg" xmlns:xlink="http://www.w3.org/1999/xlink" width="70" height="63" viewBox="0 0 70 63">
    <defs>
        <linearGradient id="kivsemikrd" x1="0%" x2="100%" y1="49.999%" y2="49.999%">
            <stop offset="0%" stop-color="#4451F3"/>
            <stop offset="100%" stop-color="#3CB5F2"/>
        </linearGradient>
        <linearGradient id="q2e8xa3a9e" x1="0%" x2="100%" y1="50%" y2="50%">
            <stop offset="0%" stop-color="#0D10A1"/>
            <stop offset="100%" stop-color="#2A42DB"/>
        </linearGradient>
        <linearGradient id="fj8m408bxf" x1="100%" x2="8.378%" y1="87.954%" y2="16.873%">
            <stop offset="0%" stop-color="#3292FF"/>
            <stop offset="100%" stop-color="#3739ED"/>
        </linearGradient>
        <radialGradient id="at2e3ohodb" cx="94.952%" cy="77.673%" r="116.226%" fx="94.952%" fy="77.673%" gradientTransform="matrix(1 0 0 .99432 0 .004)">
            <stop offset="0%" stop-color="#120082"/>
            <stop offset="100%" stop-color="#428DE8"/>
        </radialGradient>
        <path id="lu7wv4mo8a" d="M0 0.308L62.11 0.308 62.11 62.772 0 62.772z"/>
    </defs>
    <g fill="none" fill-rule="evenodd">
        <g>
            <g>
                <g transform="translate(-616 -337) translate(616 337) translate(0 .012)">
                    <mask id="2h22qdpq7c" fill="#fff">
                        <use xlink:href="#lu7wv4mo8a"/>
                    </mask>
                    <path fill="url(#at2e3ohodb)" d="M31.055 62.772C13.904 62.772 0 48.79 0 31.54S13.904.308 31.055.308 62.11 14.29 62.11 31.54 48.206 62.772 31.055 62.772z" mask="url(#2h22qdpq7c)"/>
                </g>
                <path fill="#003AC2" d="M57.282 31.553c0 14.567-11.742 26.377-26.227 26.377S4.828 46.12 4.828 31.553c0-14.568 11.742-26.378 26.227-26.378s26.227 11.81 26.227 26.378" transform="translate(-616 -337) translate(616 337)"/>
                <path fill="url(#kivsemikrd)" d="M55.01 31.553c0 13.306-10.725 24.093-23.955 24.093-13.23 0-23.956-10.787-23.956-24.093 0-13.307 10.725-24.094 23.956-24.094 13.23 0 23.956 10.787 23.956 24.094" transform="translate(-616 -337) translate(616 337)"/>
                <path fill="#FFF" d="M31.055 9.704c-11.98 0-21.725 9.801-21.725 21.849C9.33 43.6 19.076 53.4 31.055 53.4c11.979 0 21.725-9.801 21.725-21.848 0-12.048-9.746-21.85-21.725-21.85m0 44.338c-12.33 0-22.362-10.088-22.362-22.488 0-12.401 10.032-22.49 22.362-22.49 12.33 0 22.362 10.089 22.362 22.49 0 12.4-10.032 22.488-22.362 22.488" opacity=".35" transform="translate(-616 -337) translate(616 337)"/>
                <path fill="#212CA2" d="M16.068 24.34c0 1.004-.81 1.818-1.809 1.818-.998 0-1.808-.814-1.808-1.818 0-1.005.81-1.819 1.808-1.819.999 0 1.809.814 1.809 1.819" transform="translate(-616 -337) translate(616 337)"/>
                <path fill="#407AF2" d="M15.787 24.25c0 .926-.746 1.677-1.668 1.677-.92 0-1.668-.75-1.668-1.677s.747-1.678 1.668-1.678c.922 0 1.668.751 1.668 1.678" transform="translate(-616 -337) translate(616 337)"/>
                <path fill="#212CA2" d="M16.068 38.855c0 1.005-.81 1.82-1.809 1.82-.998 0-1.808-.815-1.808-1.82 0-1.004.81-1.818 1.808-1.818.999 0 1.809.814 1.809 1.818" transform="translate(-616 -337) translate(616 337)"/>
                <path fill="#407AF2" d="M15.787 38.765c0 .927-.746 1.678-1.668 1.678-.92 0-1.668-.75-1.668-1.678 0-.926.747-1.677 1.668-1.677.922 0 1.668.75 1.668 1.677" transform="translate(-616 -337) translate(616 337)"/>
                <path fill="#6CA0FF" d="M14.125 39.769H5.72c-2.454 0-4.45-2.15-4.45-4.794V28.13c0-2.644 1.996-4.794 4.45-4.794h8.404c.528 0 .955.43.955.96 0 .532-.427.961-.955.961H5.72c-1.4 0-2.54 1.29-2.54 2.873v6.845c0 1.584 1.14 2.872 2.54 2.872h8.404c.528 0 .955.43.955.96 0 .532-.427.962-.955.962" transform="translate(-616 -337) translate(616 337)"/>
                <path fill="#211FDD" d="M29.53 51.987L32.534 51.987 32.534 9.704 29.53 9.704z" transform="translate(-616 -337) translate(616 337)"/>
                <path fill="#6CA0FF" d="M30.066 51.987L31.998 51.987 31.998 9.704 30.066 9.704z" transform="translate(-616 -337) translate(616 337)"/>
                <path fill="#211FDD" d="M32.51 10.859h-2.907c-.378 0-.684-.308-.684-.688V7.248c0-.38.306-.688.684-.688h2.907c.377 0 .683.308.683.688v2.923c0 .38-.306.688-.683.688" transform="translate(-616 -337) translate(616 337)"/>
                <path fill="#2E37E2" d="M30.066 10.859L31.998 10.859 31.998 6.56 30.066 6.56z" transform="translate(-616 -337) translate(616 337)"/>
                <path fill="#211FDD" d="M32.51 56.19h-2.907c-.378 0-.684-.307-.684-.686V52.58c0-.38.306-.687.684-.687h2.907c.377 0 .683.307.683.687v2.924c0 .38-.306.687-.683.687" transform="translate(-616 -337) translate(616 337)"/>
                <path fill="#2E37E2" d="M30.066 56.191L31.998 56.191 31.998 51.893 30.066 51.893z" transform="translate(-616 -337) translate(616 337)"/>
                <path fill="url(#q2e8xa3a9e)" d="M53.613 11.76H29.541c-.674 0-1.22.55-1.22 1.227v1.334c0 .677.546 1.227 1.22 1.227H44.45c2.284 0 4.135 1.862 4.135 4.159V43.04c0 2.297-1.851 4.159-4.135 4.159H29.007c-.379 0-.686.309-.686.69v2.408c0 .38.307.69.686.69h24.606c1.482 0 2.683-1.209 2.683-2.699v-33.83c0-1.49-1.201-2.698-2.683-2.698" transform="translate(-616 -337) translate(616 337)"/>
                <path fill="#3E82FF" d="M29.007 47.68c-.115 0-.208.093-.208.208v2.409c0 .115.093.209.208.209h24.606c1.216 0 2.205-.995 2.205-2.218v-33.83c0-1.222-.989-2.217-2.205-2.217H29.541c-.409 0-.742.335-.742.746v1.334c0 .412.333.746.742.746H44.45c2.543 0 4.613 2.081 4.613 4.64V43.04c0 2.558-2.07 4.64-4.613 4.64H29.007zm24.606 3.787H29.007c-.642 0-1.163-.525-1.163-1.17v-2.409c0-.645.521-1.17 1.163-1.17H44.45c2.017 0 3.657-1.65 3.657-3.678V19.706c0-2.028-1.64-3.678-3.657-3.678H29.54c-.936 0-1.697-.766-1.697-1.707v-1.334c0-.941.761-1.707 1.697-1.707h24.072c1.743 0 3.16 1.426 3.16 3.178v33.83c0 1.753-1.417 3.179-3.16 3.179z" transform="translate(-616 -337) translate(616 337)"/>
                <path fill="#C3D1EB" d="M44.75 31.553c0 7.62-6.142 13.796-13.719 13.796-7.576 0-13.718-6.177-13.718-13.796 0-7.62 6.142-13.797 13.718-13.797 7.577 0 13.719 6.177 13.719 13.797" opacity=".433" transform="translate(-616 -337) translate(616 337)"/>
                <path fill="#5B8CFF" d="M40.732 31.328c0 5.388-4.343 9.756-9.7 9.756-5.358 0-9.7-4.368-9.7-9.756s4.342-9.755 9.7-9.755c5.357 0 9.7 4.367 9.7 9.755" transform="translate(-616 -337) translate(616 337)"/>
                <path fill="#253AD2" d="M31.69 22.301h-1.325c-.173 0-.32-.13-.342-.303l-.358-2.813c-.026-.207.134-.39.342-.39h2.04c.208 0 .369.183.343.39l-.358 2.813c-.022.174-.17.303-.343.303" transform="translate(-616 -337) translate(616 337)"/>
                <path fill="#212CA2" d="M32.047 18.794h-.14c-.078.282-.442.496-.88.496s-.802-.214-.88-.496h-.14c-.208 0-.368.184-.342.391l.358 2.813c.022.174.169.303.342.303h1.324c.174 0 .32-.13.343-.303l.358-2.813c.026-.207-.135-.39-.343-.39" transform="translate(-616 -337) translate(616 337)"/>
                <path fill="#FEFEFE" d="M30.556 26.85L31.498 26.85 31.498 22.301 30.556 22.301z" transform="translate(-616 -337) translate(616 337)"/>
                <path fill="#253AD2" d="M37.698 25.407l-.937-.942c-.123-.123-.135-.32-.029-.458l1.725-2.244c.127-.165.37-.18.517-.033l1.443 1.451c.147.148.131.392-.033.52l-2.231 1.735c-.138.107-.333.094-.455-.03" transform="translate(-616 -337) translate(616 337)"/>
                <path fill="#212CA2" d="M40.417 23.181l-.1-.1c-.253.145-.66.037-.97-.275-.31-.311-.417-.721-.274-.976l-.099-.1c-.147-.148-.39-.132-.517.033l-1.725 2.244c-.106.138-.094.335.03.458l.935.942c.123.123.318.136.456.029l2.23-1.735c.165-.127.18-.372.034-.52" transform="translate(-616 -337) translate(616 337)"/>
                <path fill="#FEFEFE" d="M34.364 28.487L33.699 27.817 36.896 24.601 37.562 25.271z" transform="translate(-616 -337) translate(616 337)"/>
                <path fill="#253AD2" d="M39.763 31.875v-1.331c0-.175.129-.323.3-.345l2.798-.36c.206-.026.389.135.389.344v2.052c0 .21-.183.37-.389.344l-2.797-.36c-.172-.022-.301-.17-.301-.344" transform="translate(-616 -337) translate(616 337)"/>
                <path fill="#212CA2" d="M43.25 32.235v-.14c-.28-.08-.493-.445-.493-.886 0-.44.213-.806.493-.885v-.14c0-.21-.183-.371-.389-.345l-2.797.36c-.172.022-.302.17-.302.345v1.331c0 .175.13.322.302.344l2.797.36c.206.027.39-.135.39-.344" transform="translate(-616 -337) translate(616 337)"/>
                <path fill="#FEFEFE" d="M35.24 31.683L39.763 31.683 39.763 30.736 35.24 30.736z" transform="translate(-616 -337) translate(616 337)"/>
                <path fill="#253AD2" d="M36.675 37.918l.936-.942c.123-.124.318-.136.456-.03l2.23 1.735c.165.128.18.373.033.52l-1.442 1.451c-.147.148-.39.133-.517-.033l-1.725-2.244c-.106-.138-.094-.334.029-.457" transform="translate(-616 -337) translate(616 337)"/>
                <path fill="#212CA2" d="M38.888 40.652l.099-.1c-.143-.254-.037-.664.274-.976.31-.312.717-.419.97-.275l.1-.1c.147-.147.131-.392-.034-.52l-2.23-1.734c-.138-.107-.333-.095-.456.029l-.936.942c-.123.123-.135.32-.03.457l1.726 2.244c.127.166.37.181.517.033" transform="translate(-616 -337) translate(616 337)"/>
                <path fill="#FEFEFE" d="M33.612 34.565L34.278 33.896 37.476 37.112 36.81 37.781z" transform="translate(-616 -337) translate(616 337)"/>
                <path fill="#253AD2" d="M30.243 39.995h1.325c.173 0 .32.13.342.303l.358 2.812c.026.208-.135.392-.343.392h-2.04c-.207 0-.368-.184-.342-.392l.358-2.812c.022-.174.169-.303.342-.303" transform="translate(-616 -337) translate(616 337)"/>
                <path fill="#212CA2" d="M29.885 43.502h.14c.079-.282.442-.496.88-.496.439 0 .802.214.88.496h.14c.208 0 .37-.184.343-.392l-.358-2.812c-.022-.174-.169-.303-.343-.303h-1.324c-.173 0-.32.13-.342.303l-.358 2.812c-.026.208.134.392.342.392" transform="translate(-616 -337) translate(616 337)"/>
                <path fill="#FEFEFE" d="M30.435 39.995L31.376 39.995 31.376 35.446 30.435 35.446z" transform="translate(-616 -337) translate(616 337)"/>
                <path fill="#253AD2" d="M24.235 36.89l.937.94c.123.124.135.32.029.458l-1.725 2.244c-.128.166-.37.181-.517.033l-1.443-1.45c-.147-.148-.131-.392.033-.52l2.231-1.735c.138-.107.332-.094.455.03" transform="translate(-616 -337) translate(616 337)"/>
                <path fill="#212CA2" d="M21.516 39.115l.1.1c.253-.145.66-.037.97.274.31.312.417.722.274.977l.099.1c.147.147.39.132.517-.034l1.725-2.244c.106-.138.093-.334-.03-.457l-.936-.942c-.123-.123-.317-.136-.455-.029l-2.23 1.735c-.165.127-.181.372-.034.52" transform="translate(-616 -337) translate(616 337)"/>
                <path fill="#FEFEFE" d="M27.568 33.809L28.234 34.479 25.036 37.695 24.37 37.025z" transform="translate(-616 -337) translate(616 337)"/>
                <path fill="#253AD2" d="M22.17 30.42v1.332c0 .175-.129.322-.301.345l-2.797.36c-.207.026-.39-.135-.39-.345v-2.051c0-.21.183-.37.39-.344l2.797.36c.172.022.301.17.301.344" transform="translate(-616 -337) translate(616 337)"/>
                <path fill="#212CA2" d="M18.683 30.061v.14c.28.08.493.445.493.885 0 .441-.213.807-.493.886v.14c0 .21.182.371.389.345l2.797-.36c.172-.023.301-.17.301-.345v-1.331c0-.175-.129-.322-.301-.344l-2.797-.36c-.207-.027-.39.135-.39.344" transform="translate(-616 -337) translate(616 337)"/>
                <path fill="#FEFEFE" d="M22.17 31.56L26.693 31.56 26.693 30.613 22.17 30.613z" transform="translate(-616 -337) translate(616 337)"/>
                <path fill="#253AD2" d="M25.258 24.378l-.937.942c-.122.123-.317.136-.455.03l-2.23-1.735c-.165-.128-.18-.373-.034-.52l1.443-1.451c.147-.148.39-.133.517.033l1.725 2.243c.106.139.094.335-.03.458" transform="translate(-616 -337) translate(616 337)"/>
                <path fill="#212CA2" d="M23.045 21.644l-.1.1c.144.254.037.664-.273.976-.31.311-.717.419-.97.275l-.1.1c-.147.147-.131.392.033.52l2.231 1.734c.138.107.333.094.456-.029l.936-.942c.122-.123.135-.32.029-.458l-1.725-2.243c-.127-.166-.37-.181-.517-.033" transform="translate(-616 -337) translate(616 337)"/>
                <path fill="#FEFEFE" d="M28.32 27.731L27.654 28.4 24.457 25.184 25.122 24.514z" transform="translate(-616 -337) translate(616 337)"/>
                <path fill="#E6F5FC" d="M38.745 31.553c0 4.284-3.453 7.757-7.713 7.757s-7.714-3.473-7.714-7.757c0-4.285 3.453-7.758 7.714-7.758 4.26 0 7.713 3.473 7.713 7.758" transform="translate(-616 -337) translate(616 337)"/>
                <path fill="url(#fj8m408bxf)" fill-rule="nonzero" d="M37.025 27.425l-5.63 9.807V35.08l3.788-6.597 1.842-1.056v-.001zm-11.57.012l1.842 1.056 3.78 6.586v2.152l-5.622-9.794zm8.74 1.448l-2.959 5.155-2.96-5.155h5.92zm2.665-1.733l-1.875 1.076h-7.51L25.6 27.152h11.26z" transform="translate(-616 -337) translate(616 337)"/>
                <path stroke="#1A1692" stroke-width=".5" d="M38.745 31.553c0 4.284-3.453 7.757-7.713 7.757s-7.714-3.473-7.714-7.757c0-4.285 3.453-7.758 7.714-7.758 4.26 0 7.713 3.473 7.713 7.758z" transform="translate(-616 -337) translate(616 337)"/>
                <path fill="#6CA0FF" d="M23.153 17.11c0 1.612-1.299 2.918-2.901 2.918-1.603 0-2.901-1.306-2.901-2.917 0-1.611 1.298-2.918 2.9-2.918 1.603 0 2.902 1.307 2.902 2.918" transform="translate(-616 -337) translate(616 337)"/>
                <path fill="#3574FE" d="M18.752 15.402c-.938.833-1.028 2.273-.2 3.217.829.943 2.26 1.033 3.2.2.938-.832 1.027-2.273.199-3.216-.828-.944-2.26-1.034-3.199-.201" transform="translate(-616 -337) translate(616 337)"/>
                <path fill="#212CA2" d="M20.252 14.992c-1.162 0-2.107.95-2.107 2.119 0 1.168.945 2.119 2.107 2.119 1.162 0 2.107-.95 2.107-2.12 0-1.168-.945-2.118-2.107-2.118m0 4.558c-1.338 0-2.425-1.094-2.425-2.44 0-1.344 1.087-2.438 2.425-2.438 1.337 0 2.425 1.094 2.425 2.439s-1.088 2.439-2.425 2.439" transform="translate(-616 -337) translate(616 337)"/>
                <path fill="#243C80" d="M20.129 16.9L20.28 15.176 20.487 16.9zM20.536 17.082L21.956 18.061 20.36 17.396zM20.179 17.35L18.633 18.112 19.993 17.041z" transform="translate(-616 -337) translate(616 337)"/>
                <path fill="#FEFEFE" d="M20.622 17.11c0 .19-.153.344-.342.344-.189 0-.342-.153-.342-.343 0-.19.153-.344.342-.344.189 0 .342.154.342.344" transform="translate(-616 -337) translate(616 337)"/>
                <path fill="#6CA0FF" d="M23.153 45.546c0 1.611-1.299 2.917-2.901 2.917-1.603 0-2.901-1.306-2.901-2.917 0-1.612 1.298-2.918 2.9-2.918 1.603 0 2.902 1.306 2.902 2.918" transform="translate(-616 -337) translate(616 337)"/>
                <path fill="#3574FE" d="M18.752 43.837c-.938.833-1.028 2.273-.2 3.217.829.943 2.26 1.033 3.2.2.938-.832 1.027-2.273.199-3.216-.828-.944-2.26-1.034-3.199-.201" transform="translate(-616 -337) translate(616 337)"/>
                <path fill="#212CA2" d="M20.252 43.427c-1.162 0-2.107.95-2.107 2.119 0 1.168.945 2.119 2.107 2.119 1.162 0 2.107-.95 2.107-2.12 0-1.168-.945-2.118-2.107-2.118m0 4.558c-1.338 0-2.425-1.095-2.425-2.44 0-1.344 1.087-2.438 2.425-2.438 1.337 0 2.425 1.094 2.425 2.439 0 1.344-1.088 2.439-2.425 2.439" transform="translate(-616 -337) translate(616 337)"/>
                <path fill="#243C80" d="M20.129 45.335L20.28 43.611 20.487 45.335zM20.536 45.517L21.956 46.496 20.36 45.831zM20.179 45.785L18.633 46.547 19.993 45.476z" transform="translate(-616 -337) translate(616 337)"/>
                <path fill="#FEFEFE" d="M20.622 45.546c0 .19-.153.343-.342.343-.189 0-.342-.153-.342-.343 0-.19.153-.344.342-.344.189 0 .342.154.342.344" transform="translate(-616 -337) translate(616 337)"/>
                <path fill="#211FDD" d="M62.782 59.012L66.607 59.012 66.607 4.547 62.782 4.547z" transform="translate(-616 -337) translate(616 337)"/>
                <path fill="#76C2FF" d="M64.694 59.012L66.043 59.012 66.043 4.547 64.694 4.547z" opacity=".15" transform="translate(-616 -337) translate(616 337)"/>
                <path fill="#407AF2" d="M68.739 19.39H56.774v-4.932h11.965c.308 0 .558.252.558.562v3.809c0 .31-.25.56-.558.56M66.808 7.394h-4.054c-.356 0-.644-.29-.644-.647V2.669c0-.357.288-.647.644-.647h4.054c.355 0 .644.29.644.647v4.078c0 .357-.289.647-.644.647M68.739 43.303H56.774v4.931h11.965c.308 0 .558-.251.558-.561v-3.81c0-.31-.25-.56-.558-.56M66.808 55.298h-4.054c-.356 0-.644.29-.644.648v4.077c0 .358.288.648.644.648h4.054c.355 0 .644-.29.644-.648v-4.077c0-.358-.289-.648-.644-.648" transform="translate(-616 -337) translate(616 337)"/>
                <path fill="#211FDD" d="M56.774 19.39L57.282 19.39 57.282 14.458 56.774 14.458zM56.774 48.234L57.282 48.234 57.282 43.303 56.774 43.303zM61.89 48.234L62.329 48.234 62.329 43.303 61.89 43.303zM66.908 48.234L67.347 48.234 67.347 43.303 66.908 43.303zM61.89 19.39L62.329 19.39 62.329 14.458 61.89 14.458zM66.915 19.39L67.354 19.39 67.354 14.458 66.915 14.458z" transform="translate(-616 -337) translate(616 337)"/>
                <path fill="#407AF2" d="M68.653 12.752h-7.948c-.355 0-.643-.29-.643-.647V9.357c0-.358.288-.648.643-.648h7.948c.356 0 .644.29.644.648v2.748c0 .358-.288.647-.644.647" transform="translate(-616 -337) translate(616 337)"/>
                <path fill="#211FDD" d="M61.652 12.752L67.868 12.752 67.868 8.709 61.652 8.709z" transform="translate(-616 -337) translate(616 337)"/>
                <path fill="#407AF2" d="M66.808 13.436h-4.054c-.356 0-.644-.29-.644-.647V8.71c0-.358.288-.648.644-.648h4.054c.355 0 .644.29.644.648v4.078c0 .357-.289.647-.644.647M68.653 53.99h-7.948c-.355 0-.643-.29-.643-.648v-2.748c0-.358.288-.647.643-.647h7.948c.356 0 .644.29.644.647v2.748c0 .358-.288.648-.644.648" transform="translate(-616 -337) translate(616 337)"/>
                <path fill="#211FDD" d="M61.652 53.99L67.868 53.99 67.868 49.947 61.652 49.947z" transform="translate(-616 -337) translate(616 337)"/>
                <path fill="#407AF2" d="M66.808 54.673h-4.054c-.356 0-.644-.29-.644-.648v-4.077c0-.358.288-.647.644-.647h4.054c.355 0 .644.29.644.647v4.077c0 .358-.289.648-.644.648" transform="translate(-616 -337) translate(616 337)"/>
            </g>
        </g>
    </g>
</svg>
