<svg xmlns="http://www.w3.org/2000/svg" width="72" height="72" viewBox="0 0 72 72">
    <g fill="none" fill-rule="evenodd" opacity=".085">
        <g fill="#B8C9FC">
            <g>
                <g>
                    <path d="M36 0c9.344 0 18.175 3.555 24.91 10.013 1.417-.258 2.501-.458 3.062-.562V3.156c0-.955.776-1.732 1.731-1.732h3.14c.956 0 1.732.777 1.732 1.732v15.239c0 1.18-.819 2.172-1.918 2.442C70.874 25.597 72 30.694 72 36c0 5.285-1.116 10.362-3.315 15.105 1.086.28 1.89 1.264 1.89 2.435v16.617c0 1.017-.826 1.843-1.843 1.843h-3.305c-1.017 0-1.844-.826-1.844-1.843v-7.463c-.575-.131-1.564-.326-2.824-.563C54.044 68.497 45.269 72 35.999 72c-9.782 0-18.89-3.836-25.716-10.812l-1.047.942.754.815c.302.327.46.753.442 1.198-.017.446-.207.858-.535 1.16l-2.112 1.95c-.31.287-.708.442-1.129.442l-.078-.001c-.448-.02-.862-.216-1.162-.55l-.787-.872-1.284 1.154c-.226.204-.511.306-.795.306-.306 0-.61-.117-.843-.35l-.413-.413c-.232-.232-.355-.539-.349-.865.007-.327.142-.628.381-.85l1.298-1.203-.38-.42c-.607-.674-.56-1.723.104-2.34l2.063-1.916c.327-.303.75-.459 1.2-.444.445.017.857.207 1.16.534l.372.402 1.07-.99C2.917 52.447 0 44.352 0 36c0-8.483 2.998-16.676 8.442-23.152l-1.024-.943-.885.974c-.258.284-.61.446-.993.457l-.042.001c-.368 0-.714-.141-.977-.4l-2.357-2.315c-.54-.53-.556-1.41-.034-1.958l.826-.871-1.88-1.733c-.353-.325-.377-.878-.055-1.233l.814-.895c.158-.174.375-.276.609-.286.233-.014.458.07.63.23L5 5.64l.789-.832c.527-.554 1.41-.58 1.968-.057l2.324 2.177c.553.518.589 1.397.079 1.959l-.735.81 1.028.942C17.26 3.775 26.307 0 36 0zM13.27 58.501l-2.217 1.995c6.626 6.755 15.46 10.47 24.947 10.47 8.75 0 17.044-3.214 23.491-9.07-1.146-.21-2.441-.443-3.812-.687-5.593 4.37-12.563 6.776-19.68 6.776-8.63 0-16.677-3.363-22.728-9.484zm56.27 4.305h-4.922v7.35c0 .447.363.81.809.81h3.305c.446 0 .809-.363.809-.81v-7.35zm-54.53-5.869l-.97.872c5.852 5.9 13.624 9.142 21.96 9.142 6.674 0 12.972-2.065 18.299-5.986l-1.811-.317c-3.973 2.661-8.556 4.326-13.307 4.834-.088.672-.471 1.338-1.65 1.338h-2.667c-.678-.01-2.098-.115-2.3-1.37-6.63-.766-12.822-3.769-17.554-8.513zM3.318 64.82L2.03 66.013c-.042.039-.05.086-.05.111 0 .025.005.073.046.114l.413.413c.059.059.154.06.214.006l1.282-1.153-.617-.684zm2.253-4.855h-.025c-.16 0-.312.059-.43.17l-2.064 1.914c-.252.234-.27.633-.039.889l3.17 3.513c.115.127.272.201.442.21.17.006.333-.053.459-.168l2.11-1.95c.125-.115.197-.271.204-.44.007-.17-.053-.331-.168-.455l-3.219-3.48c-.114-.125-.271-.197-.44-.203zm32.598-1.753h-4.595v6.961c.003.27.063.612 1.455.612h2.502c.453 0 .638-.059.638-.648v-6.925zm1.034.156v6.071c4.172-.466 8.205-1.856 11.779-4.054-5.083-.884-10.084-1.73-11.779-2.017zM32.54 7.594c-6.266.758-12.126 3.59-16.638 8.041l.513.47.562-.577c.593-.61 1.576-.627 2.19-.04l.465.445c.301.288.472.677.48 1.093.009.417-.146.812-.436 1.112l-.49.508 9.405 8.622c2-1.7 4.586-2.728 7.41-2.728 6.319 0 11.46 5.14 11.46 11.46 0 6.32-5.141 11.46-11.46 11.46-2.825 0-5.413-1.03-7.413-2.731l-9.534 8.573.76.822c.52.564.497 1.424-.054 1.958l-.749.726c-.263.256-.608.396-.974.396l-.048-.001c-.385-.013-.738-.177-.995-.462l-.79-.876-.423.38c4.529 4.522 10.433 7.396 16.76 8.16V52.5c0-1.457 1.185-2.642 2.641-2.642h11.313c1.569 0 2.845-1.276 2.845-2.844V25.376c0-1.568-1.276-2.844-2.845-2.844H35.181c-1.456 0-2.642-1.185-2.642-2.642zM69.541 10.4h-5.004c-1.43.266-22.817 4.233-25.858 4.233h-5.105v5.258c0 .886.721 1.607 1.607 1.607h11.313c2.14 0 3.88 1.74 3.88 3.88v21.636c0 2.139-1.74 3.879-3.88 3.879H35.181c-.886 0-1.607.72-1.607 1.607v4.679h4.595v-.034l.603.102c.935.157 22.734 3.828 25.396 4.525h5.373V53.54c0-.818-.666-1.483-1.483-1.483h-2.816c-2.7 0-4.897-2.197-4.897-4.897V24.775c0-2.7 2.197-4.898 4.897-4.898h2.816c.817 0 1.483-.665 1.483-1.482v-7.996zM14.74 54.242l-6.894 6.385.687.743 6.977-6.274-.77-.854zM9.204 13.551C3.936 19.834 1.034 27.776 1.034 36c0 8.092 2.82 15.936 7.94 22.171l2.189-2.028C6.553 50.463 4.015 43.338 4.015 36c0-7.472 2.62-14.698 7.382-20.428zm5.886 37.162c-.087 0-.174.03-.244.092l-.728.65c-.074.066-.117.156-.122.254-.006.099.028.193.094.267l3.671 4.072c.068.075.16.118.26.12.102.008.196-.032.269-.102l.749-.727c.144-.14.15-.365.014-.513L15.36 50.83c-.073-.078-.172-.117-.27-.117zM12.16 16.274C7.573 21.813 5.049 28.787 5.049 36c0 7.078 2.44 13.951 6.875 19.44l.953-.883C8.664 49.31 6.346 42.749 6.346 36c0-6.883 2.402-13.55 6.767-18.847zm1.716 1.582C9.686 22.96 7.381 29.376 7.381 36c0 6.489 2.22 12.799 6.257 17.852l.409-.379-.726-.804c-.252-.28-.38-.64-.359-1.016.02-.376.186-.72.467-.97l.728-.65c.568-.506 1.448-.463 1.964.095l.709.767 9.483-8.782c-1.121-1.77-1.773-3.866-1.773-6.113 0-2.397.741-4.625 2.005-6.467l-9.456-8.715-.767.795c-.292.303-.685.471-1.106.475h-.014c-.416 0-.806-.161-1.1-.456l-.47-.47c-.599-.598-.605-1.579-.014-2.186l.696-.715zM26.912 42.97l-9.38 8.686.819.886 9.475-8.52c-.326-.332-.63-.684-.914-1.052zm40.635-22.058h-2.305c-.335 0-.658.047-.968.128 2.428 4.583 3.711 9.737 3.711 14.96 0 5.2-1.272 10.335-3.68 14.903.3.075.613.12.937.12h2.336c2.246-4.708 3.387-9.758 3.387-15.023 0-5.289-1.152-10.362-3.418-15.088zm-4.236.522c-.386.224-.73.512-1.016.85 2.197 4.207 3.36 8.94 3.36 13.716 0 4.76-1.156 9.478-3.339 13.674.29.336.634.621 1.022.842C65.7 46.073 66.95 41.068 66.95 36c0-5.088-1.258-10.109-3.639-14.566zm-1.646 1.89c-.183.449-.285.938-.285 1.45V47.16c0 .527.106 1.03.298 1.487 1.926-3.91 2.941-8.259 2.941-12.647 0-4.398-1.02-8.759-2.954-12.675zm-49.49 1.216c.8 0 1.452.651 1.452 1.452v20.017c0 .8-.651 1.451-1.451 1.451s-1.452-.651-1.452-1.451V25.992c0-.8.651-1.452 1.452-1.452zm0 1.035c-.23 0-.416.187-.416.417v20.017c0 .23.187.416.417.416.23 0 .416-.186.416-.416V25.992c0-.23-.187-.417-.416-.417zm23.825 0c-5.749 0-10.425 4.677-10.425 10.425 0 5.749 4.676 10.425 10.425 10.425 5.748 0 10.425-4.676 10.425-10.425 0-5.748-4.677-10.425-10.425-10.425zm0 .843c5.284 0 9.582 4.298 9.582 9.582 0 5.284-4.298 9.582-9.582 9.582-5.284 0-9.582-4.298-9.582-9.582 0-5.284 4.298-9.582 9.582-9.582zm-.454 13.176v4.941c.15.008.302.013.454.013.055 0 .108-.004.162-.005v-4.925c-.054.002-.107.007-.162.007-.154 0-.305-.012-.454-.03zm1.886-.265c-.076.034-.156.062-.235.09v5.043c1.436-.202 2.758-.761 3.873-1.586zm-3.151-.138l-3.494 3.576c1.07.826 2.34 1.404 3.724 1.648v-5.113c-.078-.035-.155-.07-.23-.11zm4.488-.856c-.132.156-.276.3-.431.432l3.529 3.44c.187-.176.366-.361.536-.554zm-5.748-.275l-3.544 3.455c.168.198.344.39.529.571l3.437-3.519c-.156-.155-.297-.325-.422-.507zm11.445-.895H39.43c-.032.094-.066.187-.106.277l3.719 3.394c.739-1.073 1.238-2.322 1.423-3.67zm-12.01 0h-4.922c.176 1.283.637 2.477 1.318 3.514l3.605-3.514zM36 33.41c-1.428 0-2.59 1.163-2.59 2.591 0 1.428 1.162 2.59 2.59 2.59s2.59-1.162 2.59-2.59-1.162-2.59-2.59-2.59zm-3.586 2.09h-4.946c-.01.165-.016.332-.016.501 0 .044.003.087.004.13h4.925c-.001-.043-.006-.086-.006-.13 0-.17.016-.337.039-.502zm12.117 0h-4.945c.023.164.04.33.04.501 0 .044-.006.087-.007.13h4.925l.003-.13c0-.169-.006-.336-.016-.502zm-1.434-4.256l-3.654 3.22h4.963c-.214-1.174-.667-2.265-1.309-3.22zm-14.294.156c-.59.917-1.007 1.953-1.21 3.064h4.59zm1.205-1.487c-.208.205-.407.42-.594.645l3.658 3.315c.12-.165.25-.319.395-.46zm11.858-.12l-3.529 3.441c.159.134.305.281.439.44l3.69-3.253c-.189-.219-.39-.428-.6-.628zm-7.355-2.207c-1.383.244-2.652.821-3.721 1.646l3.522 3.563c.065-.034.132-.065.2-.096zm2.686-.047v5.044c.08.028.159.056.235.089l3.638-3.547c-1.116-.825-2.437-1.384-3.873-1.586zM36 27.453c-.152 0-.304.004-.454.012v4.941c.15-.019.3-.031.454-.031.055 0 .108.005.162.008v-4.926c-.054-.001-.107-.004-.162-.004zM18.467 19.39l-.659.682 9.363 8.63c.209-.253.43-.495.66-.729l-9.364-8.583zm-.016-3.155c-.206-.197-.536-.19-.734.014l-3.358 3.448c-.198.204-.196.532.005.733l.47.47c.098.098.229.152.368.153.146-.002.278-.058.376-.16l3.353-3.474c.097-.1.149-.233.146-.373-.003-.14-.06-.27-.161-.366zm-9.722-5.773l-.615.676 6.922 6.38.655-.673-6.962-6.383zm27.27-5.414c-8.262 0-15.985 3.194-21.822 9.005l.961.88C19.854 10.267 26 7.31 32.568 6.55c.178-1.065 1.25-1.397 1.843-1.419h3.248c.557 0 1.358.378 1.51 1.386 4.835.515 9.489 2.224 13.511 4.965.602-.105 1.201-.21 1.79-.315C49.056 7.216 42.543 5.05 36 5.05zm1.651 1.117h-3.22c-.125.007-.856.073-.856.697v6.734h4.587V6.863c0-.59-.32-.69-.51-.697zm1.546 1.394v6.013c1.83-.141 6.384-.87 11.126-1.683l.863-.149C47.558 9.47 43.452 8.034 39.196 7.56zM36 1.035c-9.4 0-18.175 3.655-24.784 10.304l2.198 2.015C19.45 7.327 27.444 4.014 36 4.014c7.079 0 14.122 2.454 19.862 6.907 1.359-.241 2.642-.472 3.781-.678C53.175 4.297 44.823 1.035 36 1.035zM6.802 5.41c-.096 0-.191.037-.262.112L2.88 9.376c-.135.143-.131.37.009.508l2.357 2.314c.07.07.172.103.264.104.1-.003.19-.045.257-.118l3.627-3.992c.132-.145.123-.373-.02-.508L7.05 5.507c-.07-.065-.159-.097-.248-.097zm62.042-2.95h-3.14c-.385 0-.697.312-.697.696v6.208h4.534V3.156c0-.384-.313-.697-.697-.697zM2.494 4.746l-.6.66 1.775 1.635.618-.65-1.794-1.645z" transform="translate(-705.000000, -722.000000) translate(589.000000, 640.000000) translate(116.000000, 82.000000)"/>
                </g>
            </g>
        </g>
    </g>
</svg>
