<svg xmlns="http://www.w3.org/2000/svg" width="150" height="150" viewBox="0 0 150 150">
    <g fill="none" fill-rule="evenodd" opacity=".085">
        <g fill="#B8C9FC">
            <g>
                <g>
                    <path d="M75 0c19.467 0 37.866 7.406 51.894 20.86 2.955-.537 5.213-.954 6.381-1.17V6.575c0-1.99 1.618-3.608 3.607-3.608h6.542c1.99 0 3.608 1.619 3.608 3.608v31.747c0 2.461-1.706 4.526-3.996 5.088C147.654 53.327 150 63.945 150 75c0 11.01-2.325 21.587-6.905 31.468 2.26.583 3.937 2.633 3.937 5.073v34.62c0 2.117-1.723 3.839-3.84 3.839h-6.886c-2.118 0-3.84-1.722-3.84-3.84v-15.548c-1.2-.273-3.26-.68-5.885-1.172C112.59 142.702 94.31 150 75 150c-20.382 0-39.357-7.992-53.577-22.525l-2.182 1.962 1.57 1.699c.631.682.959 1.568.922 2.496-.036.929-.432 1.786-1.114 2.416l-4.4 4.061c-.646.599-1.476.923-2.352.923-.054 0-.107 0-.162-.003-.935-.043-1.796-.449-2.422-1.144l-1.64-1.817-2.674 2.403c-.472.425-1.065.636-1.658.636-.636 0-1.27-.243-1.754-.728l-.862-.86c-.482-.483-.739-1.122-.726-1.803.014-.68.295-1.308.794-1.771l2.704-2.505-.79-.876c-1.266-1.403-1.17-3.59.216-4.875l4.297-3.99c.681-.633 1.564-.957 2.498-.927.928.036 1.787.431 2.419 1.113l.774.837 2.228-2.063C6.076 109.267 0 92.401 0 75.001c0-17.675 6.246-34.742 17.587-48.234l-2.132-1.964-1.844 2.03c-.537.59-1.272.928-2.07.951-.03.002-.058.002-.087.002-.766 0-1.486-.295-2.035-.835l-4.91-4.822c-1.127-1.105-1.159-2.935-.072-4.08l1.722-1.814-3.918-3.61c-.735-.678-.786-1.829-.113-2.568L3.823 8.19c.33-.362.78-.573 1.269-.595.485-.029.953.147 1.313.479l4.011 3.676 1.644-1.732c1.098-1.155 2.937-1.21 4.1-.12l4.842 4.536c1.153 1.08 1.227 2.91.164 4.082l-1.531 1.686 2.141 1.963C35.96 7.865 54.807 0 75 0zM27.647 121.878l-4.62 4.154C36.83 140.106 55.234 147.844 75 147.844c18.228 0 35.51-6.693 48.94-18.894-2.389-.438-5.086-.923-7.942-1.43-11.652 9.103-26.172 14.116-40.998 14.116-17.982 0-34.745-7.008-47.353-19.758zm117.23 8.967H134.62v15.315c0 .929.756 1.684 1.685 1.684h6.886c.929 0 1.684-.755 1.684-1.684v-15.315zM31.27 118.62l-2.02 1.816C41.443 132.726 57.634 139.48 75 139.48c13.903 0 27.025-4.301 38.123-12.469l-3.774-.662c-8.276 5.545-17.823 9.013-27.723 10.072-.182 1.4-.98 2.787-3.437 2.787h-5.314c-1.281-.002-4.587-.08-5.032-2.853-13.815-1.597-26.713-7.853-36.573-17.735zM6.912 135.04l-2.684 2.486c-.087.081-.102.18-.104.232 0 .05.011.15.096.236l.862.86c.122.123.32.128.446.013l2.67-2.402-1.286-1.425zm4.668-10.115h-.026c-.334 0-.65.124-.897.353l-4.298 3.99c-.526.488-.562 1.318-.082 1.851l6.606 7.32c.239.264.565.419.92.435.353.014.693-.108.954-.349l4.398-4.061c.26-.24.41-.566.424-.918.014-.352-.11-.689-.35-.948l-6.705-7.25c-.24-.259-.566-.409-.918-.423h-.052zm67.938-3.65h-9.572v14.53c.01.555.178 1.246 3.03 1.246h5.213c.944 0 1.329-.122 1.329-1.35v-14.426zm2.156.324v12.649c8.69-.972 17.093-3.868 24.538-8.447-10.59-1.84-21.008-3.605-24.538-4.202zM67.79 15.822C54.736 17.4 42.526 23.299 33.128 32.573l1.067.978 1.17-1.202c1.237-1.27 3.284-1.305 4.565-.081l.968.926c.627.6.982 1.41 1.001 2.278.017.868-.305 1.691-.908 2.317l-1.02 1.057 19.592 17.961c4.166-3.54 9.555-5.682 15.437-5.682 13.164 0 23.874 10.71 23.874 23.876 0 13.164-10.71 23.874-23.874 23.874-5.886 0-11.278-2.145-15.445-5.69l-19.862 17.86 1.584 1.713c1.085 1.175 1.036 2.967-.112 4.08l-1.56 1.513c-.55.533-1.268.824-2.03.824-.035 0-.068 0-.1-.002-.801-.027-1.537-.368-2.073-.963l-1.646-1.825-.88.79c9.434 9.423 21.734 15.41 34.914 17.003v-24.805c0-3.036 2.47-5.504 5.504-5.504h23.569c3.268 0 5.926-2.66 5.926-5.926V52.867c0-3.268-2.658-5.926-5.926-5.926H73.294c-3.035 0-5.504-2.47-5.504-5.504zm77.086 5.843h-10.424c-2.98.553-47.534 8.819-53.871 8.819H69.946v10.953c0 1.846 1.502 3.348 3.348 3.348h23.569c4.456 0 8.082 3.626 8.082 8.082v45.076c0 4.456-3.626 8.082-8.082 8.082H73.294c-1.846 0-3.348 1.5-3.348 3.348v9.747h9.572v-.07l1.257.212c1.947.329 47.362 7.976 52.908 9.427h11.193v-17.148c0-1.703-1.385-3.088-3.089-3.088h-5.866c-5.625 0-10.202-4.578-10.202-10.203V51.614c0-5.626 4.577-10.203 10.202-10.203h5.866c1.704 0 3.09-1.385 3.09-3.089V21.665zm-114.168 91.34l-14.362 13.3 1.431 1.55 14.535-13.072-1.604-1.778zM19.175 28.23C8.199 41.32 2.155 57.867 2.155 75c0 16.858 5.874 33.2 16.539 46.19l4.562-4.225C13.651 105.131 8.364 90.288 8.364 75.001c0-15.568 5.46-30.621 15.38-42.56zm12.263 77.42c-.182 0-.364.064-.51.193l-1.516 1.355c-.153.136-.244.324-.255.529-.01.205.059.402.197.555l7.649 8.483c.14.157.333.246.542.252.212.015.408-.069.559-.214l1.56-1.515c.3-.29.314-.76.03-1.068L32 105.896c-.15-.162-.356-.244-.563-.244zm-6.107-71.747c-9.554 11.539-14.812 26.07-14.812 41.097 0 14.746 5.085 29.064 14.322 40.498l1.986-1.84C18.05 102.733 13.22 89.06 13.22 75.002c0-14.342 5.005-28.23 14.098-39.265zm3.576 3.295c-8.728 10.634-13.53 24-13.53 37.802 0 13.517 4.626 26.664 13.035 37.191l.852-.789-1.512-1.677c-.525-.582-.79-1.333-.748-2.116.044-.782.388-1.5.973-2.02l1.517-1.355c1.183-1.054 3.017-.963 4.091.199l1.478 1.598 19.756-18.297c-2.336-3.688-3.694-8.054-3.694-12.734 0-4.996 1.544-9.637 4.178-13.473l-19.7-18.157-1.599 1.656c-.609.63-1.427.982-2.305.99h-.03c-.864 0-1.677-.336-2.29-.95l-.978-.978c-1.249-1.247-1.261-3.29-.031-4.555l1.451-1.491zm27.16 52.321l-19.541 18.096 1.705 1.846 19.739-17.75c-.678-.69-1.313-1.424-1.904-2.192zm84.656-45.954h-4.802c-.698 0-1.37.099-2.016.267 5.057 9.549 7.73 20.287 7.73 31.168 0 10.831-2.65 21.53-7.667 31.046.626.157 1.278.25 1.953.25h4.867c4.678-9.807 7.056-20.329 7.056-31.296 0-11.02-2.4-21.588-7.12-31.435zm-8.824 1.088c-.804.468-1.522 1.066-2.119 1.771 4.578 8.764 7 18.624 7 28.576 0 9.917-2.406 19.745-6.954 28.487.602.7 1.32 1.294 2.127 1.754 4.923-9.258 7.527-19.684 7.527-30.241 0-10.6-2.622-21.06-7.581-30.347zm-3.431 3.94c-.38.932-.594 1.951-.594 3.02V98.25c0 1.098.223 2.144.623 3.098 4.011-8.144 6.127-17.206 6.127-26.347 0-9.164-2.125-18.248-6.156-26.408zM25.366 51.124c1.667 0 3.024 1.356 3.024 3.024v41.703c0 1.666-1.357 3.023-3.024 3.023s-3.024-1.357-3.024-3.023V54.149c0-1.668 1.357-3.024 3.024-3.024zm0 2.156c-.479 0-.868.39-.868.868v41.703c0 .478.39.867.868.867.479 0 .868-.389.868-.867V54.149c0-.478-.39-.868-.868-.868zm49.634 0c-11.977 0-21.72 9.743-21.72 21.72 0 11.975 9.743 21.718 21.72 21.718 11.975 0 21.718-9.743 21.718-21.718 0-11.977-9.743-21.72-21.718-21.72zm0 1.756c11.008 0 19.963 8.956 19.963 19.964 0 11.007-8.955 19.962-19.963 19.962-11.008 0-19.963-8.955-19.963-19.962 0-11.008 8.955-19.964 19.963-19.964zm-.945 27.45v10.295c.312.016.628.025.945.025.114 0 .225-.006.338-.008V82.537c-.113.005-.224.016-.338.016-.32 0-.635-.027-.945-.065zm3.929-.55c-.16.068-.325.127-.49.184V92.63c2.99-.421 5.745-1.586 8.069-3.303zm-6.565-.289l-7.28 7.45c2.23 1.72 4.876 2.925 7.76 3.433V81.88c-.163-.074-.324-.148-.48-.232zm9.35-1.783c-.275.324-.575.625-.9.9l7.353 7.168c.39-.369.764-.754 1.119-1.156zm-11.975-.572L61.41 86.49c.35.413.717.81 1.102 1.19l7.161-7.331c-.325-.323-.618-.678-.88-1.056zm23.843-1.865H82.146c-.068.195-.138.39-.22.577l7.746 7.07c1.54-2.235 2.58-4.837 2.965-7.647zm-25.018 0H57.362c.367 2.673 1.327 5.16 2.747 7.32l7.51-7.32zm7.38-7.825c-2.974 0-5.396 2.421-5.396 5.398 0 2.975 2.422 5.396 5.397 5.396 2.976 0 5.397-2.421 5.397-5.396 0-2.977-2.421-5.398-5.397-5.398zm-7.47 4.351H57.226c-.02.347-.034.695-.034 1.047 0 .09.006.18.008.27H67.46c-.003-.09-.013-.179-.013-.27 0-.357.033-.704.08-1.047zm25.245 0H82.47c.048.343.082.69.082 1.047 0 .091-.011.18-.014.27h10.26c.002-.09.008-.18.008-.27 0-.352-.014-.7-.033-1.047zm-2.988-8.864l-7.612 6.709h10.338c-.446-2.446-1.388-4.72-2.726-6.709zm-29.78.324c-1.227 1.912-2.097 4.07-2.52 6.385h9.563zm2.51-3.097c-.433.427-.847.875-1.236 1.344l7.62 6.905c.249-.342.522-.664.823-.96zm24.705-.25l-7.352 7.169c.33.279.636.585.914.915l7.688-6.775c-.393-.457-.811-.893-1.25-1.309zM71.899 57.47c-2.882.509-5.526 1.71-7.754 3.43l7.338 7.422c.136-.072.276-.137.416-.2zm5.595-.098v10.508c.165.058.33.116.49.185l7.578-7.39c-2.324-1.718-5.078-2.882-8.068-3.303zM75 57.193c-.317 0-.633.01-.945.025v10.295c.31-.04.624-.066.945-.066.114 0 .225.012.338.017V57.2c-.113-.002-.224-.008-.338-.008zM38.473 40.397L37.1 41.82l19.506 17.977c.435-.526.895-1.03 1.373-1.517L38.473 40.397zm-.034-6.571c-.43-.411-1.116-.398-1.529.028l-6.996 7.184c-.412.424-.407 1.108.011 1.527l.978.978c.206.205.478.318.768.319h.01c.294-.003.568-.12.772-.333l6.986-7.237c.202-.21.31-.485.304-.777-.006-.29-.125-.562-.336-.763zM18.185 21.797l-1.28 1.41L31.325 36.5l1.365-1.403-14.505-13.299zM75 10.52c-17.215 0-33.304 6.652-45.465 18.76l2.003 1.834c9.824-9.727 22.629-15.887 36.311-17.47.372-2.218 2.607-2.91 3.841-2.953l6.766-.001c1.162 0 2.83.787 3.146 2.887C91.674 14.65 101.37 18.21 109.75 23.92c1.255-.22 2.503-.439 3.73-.656C102.199 15.033 88.63 10.52 75 10.52zm3.438 2.326h-6.709c-.26.014-1.783.153-1.783 1.451v14.03h9.557v-14.03c0-1.227-.668-1.436-1.065-1.451zm3.22 2.903v12.528c4.044-.312 14.472-2.003 24.978-3.816-7.557-4.735-16.112-7.724-24.977-8.712zM75 2.156c-19.584 0-37.864 7.615-51.634 21.467l4.58 4.198C40.52 15.265 57.175 8.364 75 8.364c14.748 0 29.42 5.11 41.38 14.389 2.83-.504 5.502-.985 7.877-1.414C110.782 8.953 93.38 2.156 75 2.156zM14.172 11.27c-.2 0-.4.078-.548.233l-7.623 8.031c-.282.296-.274.77.018 1.057l4.91 4.822c.147.146.358.213.55.217.207-.007.397-.094.536-.247l7.556-8.317c.275-.302.256-.777-.043-1.057l-4.841-4.537c-.146-.135-.33-.202-.515-.202zm129.252-6.147h-6.542c-.8 0-1.451.652-1.451 1.452v12.934h9.445V6.575c0-.8-.651-1.452-1.452-1.452zM5.194 9.89l-1.25 1.374 3.7 3.409 1.287-1.357L5.194 9.89z" transform="translate(-1403 -123) translate(589 91) translate(814 32)"/>
                </g>
            </g>
        </g>
    </g>
</svg>
