<svg xmlns="http://www.w3.org/2000/svg" width="10" height="16" viewBox="0 0 10 16">
    <g fill="none" fill-rule="evenodd">
        <g fill="#FF8331" fill-rule="nonzero" stroke="#FF8E38" stroke-width=".5">
            <g>
                <path d="M7.937 4.802c-.038-.083-.12-.135-.211-.135H4.96L7.689.358c.046-.072.049-.163.008-.237C7.656.046 7.577 0 7.492 0H3.76c-.088 0-.17.05-.209.129l-3.5 7c-.036.072-.032.158.01.227.043.069.118.11.199.11h2.4l-2.615 6.21c-.045.106-.005.23.093.29.038.023.08.034.122.034.067 0 .133-.029.178-.083L7.904 5.05c.059-.069.071-.166.033-.248z" transform="translate(-990 -691) translate(991 692)"/>
            </g>
        </g>
    </g>
</svg>
