<svg xmlns="http://www.w3.org/2000/svg" xmlns:xlink="http://www.w3.org/1999/xlink" width="54" height="101" viewBox="0 0 54 101">
    <defs>
        <path id="ncqxnbzyea" d="M37.414 12.45c-6.004 3.479-15.74 3.479-21.744 0C10.038 9.188 9.689 4.026 14.62.527c-2.37.712-4.595 1.643-6.584 2.795-1.506.873-2.793 1.824-3.864 2.83H.214v8.11c0 3.96 2.608 7.919 7.822 10.939 10.431 6.043 27.342 6.043 37.773 0 5.214-3.02 7.822-6.979 7.822-10.938v-8.11h-3.958c-1.072-1.007-2.359-1.958-3.865-2.83-2.35-1.361-5.03-2.413-7.89-3.16 5.495 3.495 5.328 8.91-.504 12.287"/>
        <path id="qf9qyb5r1d" d="M11.17.162c2.859.748 5.54 1.8 7.89 3.16 1.506.873 2.793 1.824 3.864 2.83h3.958v8.11c0 3.96-2.608 7.919-7.822 10.94-5.215 3.02-12.05 4.531-18.886 4.53V15.055C3.98 15 7.76 14.134 10.665 12.45"/>
        <path id="lkm72baftg" d="M8.036 4.618c-10.43 6.042-10.43 15.838 0 21.88 10.431 6.04 27.342 6.041 37.773 0 10.43-6.042 10.43-15.838 0-21.88C40.592 1.598 33.756.088 26.921.087c-6.836 0-13.67 1.51-18.886 4.531m7.824 17.238c-6.005-3.478-6.005-9.118 0-12.595 6.005-3.479 15.74-3.479 21.745 0 6.004 3.477 6.004 9.117 0 12.595-3.003 1.74-6.938 2.608-10.872 2.608-3.935 0-7.87-.869-10.873-2.608"/>
        <path id="qpu5u0hlpj" d="M7.57 4.61c-9.709 5.625-9.708 14.744.001 20.368 9.71 5.625 25.452 5.625 35.161 0 9.71-5.623 9.71-14.743 0-20.367C37.877 1.799 31.514.393 25.152.393 18.787.393 12.424 1.8 7.57 4.611m7.08 16.266c-5.798-3.359-5.799-8.805 0-12.165 5.8-3.359 15.203-3.359 21.003 0 5.798 3.36 5.798 8.806 0 12.165-2.9 1.68-6.7 2.52-10.501 2.52-3.8 0-7.602-.84-10.501-2.52"/>
        <path id="rgsn4vuiwn" d="M.49.212l.032.003c.041.01.077.038.096.079L.63.33C.64.39.607.453.55.48L.353.57.233.314.332.271.428.226.431.225c.021-.01.04-.013.06-.013"/>
        <path id="oyik4rxamp" d="M27.02.29l1.229.034 1.229.034 2.451.2c.815.091 1.625.222 2.438.332.81.13 1.61.317 2.415.472.801.175 1.587.415 2.381.62.79.225 1.557.52 2.337.777.77.285 1.515.634 2.275.947.74.358 1.46.756 2.19 1.132l.011.007c1.016.597 1.995 1.257 2.911 2.001.915.744 1.767 1.574 2.503 2.503.735.926 1.354 1.954 1.786 3.063.434 1.107.674 2.294.68 3.487-.001 2.29-.908 4.503-2.277 6.292-1.371 1.802-3.146 3.256-5.061 4.425l-.552.336-.14-.243.545-.332c1.895-1.155 3.641-2.59 4.986-4.357 1.34-1.753 2.217-3.903 2.218-6.121-.005-1.156-.238-2.308-.66-3.384-.42-1.08-1.023-2.084-1.744-2.992-.722-.91-1.56-1.725-2.46-2.459-.903-.732-1.87-1.386-2.874-1.976l-.012-.006c-.723-.372-1.436-.767-2.168-1.12-.752-.312-1.491-.657-2.254-.94-.774-.254-1.535-.547-2.319-.77-.788-.203-1.568-.443-2.364-.615-.8-.155-1.594-.34-2.398-.47-.808-.109-1.613-.24-2.422-.33L29.463.637c-.408-.01-.814-.022-1.222-.033L27.63.588 27.02.57l-2.445.067-2.436.198c-.81.09-1.615.222-2.423.331-.803.129-1.598.315-2.398.469-.795.172-1.575.412-2.364.615-.784.222-1.545.516-2.319.77-.763.282-1.501.628-2.254.938-.371.164-.724.371-1.087.555l-1.081.566-.011.006c-1.005.59-1.971 1.242-2.875 1.976-.453.364-.882.757-1.297 1.163-.2.21-.406.415-.601.63l-.563.665c-.356.458-.69.933-.985 1.431-.135.256-.293.5-.412.765-.117.264-.256.52-.348.794-.105.27-.208.54-.28.821-.09.276-.153.557-.206.841-.07.282-.089.571-.129.857-.033.287-.029.577-.046.865.006 1.157.24 2.308.66 3.384.207.54.472 1.057.76 1.56.145.25.313.487.468.732.166.238.346.466.518.7.365.45.752.883 1.163 1.295.068.069.138.136.208.202l.427.395c.209.202.443.376.663.565.22.191.456.361.688.536.231.176.467.347.711.506.244.159.477.334.729.48l.746.454.01.007c1.3.749 2.662 1.386 4.061 1.927.7.269 1.408.516 2.124.74.36.105.716.226 1.08.318.362.095.721.204 1.088.287.728.18 1.462.338 2.2.478.369.064.737.139 1.108.194l1.113.164 1.118.136 1.121.108 1.123.08 1.125.051h.013c.204.005.407.01.611.013l.612.013.61-.005.612-.004c1.38-.03 2.757-.12 4.128-.272.686-.071 1.368-.172 2.05-.274l1.02-.175 1.014-.202c.674-.147 1.346-.3 2.011-.482.334-.084.666-.179.996-.28.33-.098.66-.194.986-.308.325-.112.656-.21.977-.337.322-.122.649-.235.967-.366l.954-.397.359-.164.58-.266c.041.085.08.169.122.254l-.587.268-.362.165-.963.401c-.107.044-.215.086-.323.127l-.651.243c-.324.126-.657.226-.986.34-.328.113-.661.21-.994.31-.333.102-.667.197-1.003.282-.67.184-1.348.337-2.026.484l-1.02.204-1.027.176c-.686.104-1.373.205-2.063.276-1.38.153-2.765.244-4.153.274l-.615.004-.615.004-.616-.012-.614-.012h-.014l-1.131-.053-1.13-.08-1.128-.108-1.124-.137c-.125-.016-.25-.034-.375-.052l-.746-.114c-.125-.018-.25-.039-.373-.06l-.743-.135c-.742-.14-1.482-.3-2.215-.482-.369-.083-.73-.193-1.096-.288-.123-.031-.244-.065-.365-.101l-.723-.22c-.721-.225-1.436-.474-2.142-.746-1.411-.545-2.787-1.189-4.1-1.946l-.01-.006-.755-.46c-.085-.05-.168-.102-.25-.156l-.488-.33c-.247-.16-.485-.333-.72-.513-.236-.177-.475-.349-.698-.542-.224-.193-.46-.37-.674-.575-.214-.202-.438-.396-.645-.607-.418-.419-.811-.86-1.184-1.32-.176-.238-.36-.47-.53-.714-.158-.25-.33-.492-.478-.75-.296-.514-.567-1.043-.78-1.599-.432-1.107-.673-2.294-.68-3.487.018-.297.014-.596.049-.892.04-.295.06-.594.132-.883.055-.293.12-.583.212-.867.075-.289.18-.567.288-.844.095-.283.237-.545.358-.816.121-.271.282-.522.422-.784.303-.51.644-.996 1.008-1.463l.573-.678c.198-.22.408-.428.61-.642.425-.412.86-.812 1.32-1.182.916-.744 1.895-1.404 2.91-2l.012-.007 1.092-.572c.367-.185.723-.393 1.098-.56.76-.313 1.505-.662 2.275-.947.78-.256 1.547-.552 2.337-.776.794-.204 1.58-.446 2.382-.62.805-.155 1.605-.342 2.415-.472.812-.109 1.622-.241 2.437-.332l2.451-.2"/>
        <path id="1cc8x244gr" d="M.597.386L.74.627.647.683.556.74.553.74.55.743.516.756C.458.77.396.746.363.692L.348.658C.33.598.355.533.41.5L.416.496l.181-.11z"/>
        <path id="1w55kqqf5t" d="M.49.66l.032.004C.563.674.599.7.618.743l.012.04C.636.84.61.895.56.924L.555.926.549.929.451.974l-.098.044L.235.764.428.675.431.674C.452.664.471.66.491.66"/>
        <path id="4uzh9imq2v" d="M19.09.051l.121.254-.587.267-.362.166-.962.401c-.321.133-.65.246-.975.37-.324.126-.656.225-.985.339l-.33.11c-.22.07-.443.134-.665.2-.332.103-.666.197-1.002.283-.67.184-1.347.337-2.026.485l-1.02.203-1.026.176c-.686.103-1.374.204-2.064.276-1.379.153-2.765.244-4.152.274l-.616.004-.617.004-.59-.012h-.026l-.618-.012.01-.281.595.012h.044l.587.012c.204 0 .408-.002.613-.004l.612-.004c1.38-.03 2.757-.12 4.127-.272.687-.072 1.369-.171 2.05-.274l1.02-.175 1.014-.202c.674-.147 1.347-.299 2.011-.482.334-.084.666-.179.995-.28.33-.098.661-.195.987-.308.325-.112.656-.211.977-.337.321-.122.648-.235.966-.367l.954-.396.359-.165"/>
        <path id="wxsk8px1sx" d="M.49.403l.038.005c.036.01.068.034.087.07l.012.034C.64.57.615.632.564.662L.559.666.556.668l-.19.1L.226.523l.094-.05.095-.049.01-.005C.446.409.47.403.491.403"/>
        <path id="urmebm13yz" d="M8.07.398l.139.242-.545.333c-.814.492-1.593 1.043-2.331 1.643-.903.733-1.74 1.549-2.463 2.458-.722.908-1.327 1.913-1.748 2.991C.7 9.143.467 10.295.46 11.451c.005 1.155.239 2.306.66 3.383.42 1.08 1.023 2.083 1.744 2.992.722.91 1.558 1.725 2.46 2.458.45.367.915.72 1.4 1.042.243.159.476.334.728.48l.746.454.01.007c.724.373 1.438.767 2.17 1.12.752.312 1.49.657 2.254.94.773.254 1.534.548 2.318.77l1.18.317c.395.098.782.23 1.184.299.8.154 1.594.34 2.398.469l1.21.171c.404.052.806.125 1.212.16l1.218.102c.406.03.812.073 1.218.096.408.01.815.022 1.223.033l1.221.034 2.445-.067 2.437-.198c.81-.09 1.615-.222 2.423-.33.405-.048.8-.153 1.201-.227l1.198-.243c.796-.172 1.576-.412 2.365-.614.398-.093.775-.251 1.163-.376l1.156-.396c.39-.122.754-.308 1.131-.46l1.124-.478c.372-.165.724-.371 1.088-.555l.515-.27.566-.296.14.243-.571.3-.522.272c-.366.186-.722.394-1.098.56l-1.134.484c-.38.153-.75.34-1.141.464l-1.166.399c-.39.125-.771.285-1.172.378-.794.205-1.58.446-2.382.62l-1.206.244c-.404.074-.802.18-1.21.228-.812.11-1.623.241-2.438.333l-2.452.198-2.46.069-1.23-.034-.614-.018-.614-.017c-.41-.022-.818-.064-1.226-.096l-1.226-.103c-.408-.034-.813-.108-1.22-.16l-1.217-.173c-.81-.13-1.61-.316-2.415-.472-.405-.07-.795-.202-1.193-.3l-1.188-.32c-.79-.225-1.558-.52-2.337-.777-.77-.285-1.515-.634-2.274-.947-.74-.357-1.46-.756-2.19-1.133-.005-.001-.009-.004-.012-.006l-.755-.46c-.254-.148-.49-.324-.737-.485-.49-.326-.961-.684-1.418-1.056-.915-.744-1.766-1.574-2.503-2.502-.736-.927-1.355-1.955-1.787-3.064C.426 13.83.185 12.643.18 11.451c.007-1.194.247-2.381.682-3.489.433-1.108 1.052-2.137 1.79-3.063.736-.928 1.589-1.757 2.504-2.501.749-.609 1.538-1.167 2.362-1.665"/>
        <path id="xueg6f3z2B" d="M.677.377L.71.381c.035.01.066.031.085.063l.015.034c.017.06-.006.124-.06.159L.748.638.745.64.562.751.421.51.512.453.605.398.607.396C.631.383.654.377.677.377"/>
        <path id="exmv9at84D" d="M0.046 0.228L1.28 0.228 1.28 1.466 0.046 1.466z"/>
        <path id="n6i6kfcmlE" d="M0.174 0.19L20.226 0.19 20.226 18.314 0.174 18.314z"/>
        <linearGradient id="lqpieuftlb" x1="0%" x2="100%" y1="49.999%" y2="49.999%">
            <stop offset="0%" stop-color="#4451F3"/>
            <stop offset="100%" stop-color="#3CB5F2"/>
        </linearGradient>
        <linearGradient id="z1bb7am21h" x1="0%" x2="100%" y1="50.001%" y2="50.001%">
            <stop offset="0%" stop-color="#2B2BF6"/>
            <stop offset="100%" stop-color="#A7A7FF"/>
        </linearGradient>
        <linearGradient id="0o3e4nzegk" x1="0%" x2="100%" y1="50%" y2="50%">
            <stop offset="0%" stop-color="#68BFFF"/>
            <stop offset="100%" stop-color="#D1D1FF"/>
        </linearGradient>
        <linearGradient id="rx1040mdgm" x1="50%" x2="50%" y1="0%" y2="100%">
            <stop offset="0%" stop-color="#0E044B" stop-opacity="0"/>
            <stop offset="100%" stop-color="#424DE8"/>
        </linearGradient>
        <radialGradient id="75imel9zxe" cx="94.952%" cy="77.673%" r="116.226%" fx="94.952%" fy="77.673%" gradientTransform="matrix(1 0 0 .90322 0 .075)">
            <stop offset="0%" stop-color="#120082"/>
            <stop offset="100%" stop-color="#428DE8"/>
        </radialGradient>
    </defs>
    <g fill="none" fill-rule="evenodd">
        <g>
            <g>
                <g>
                    <g>
                        <path fill="#003AC2" d="M26.922 15.646c-6.796 0-13.593 1.499-18.766 4.496C3.186 23.02.45 26.835.45 30.882c0 4.046 2.737 7.86 7.708 10.74 10.347 5.995 27.186 5.994 37.532 0 4.97-2.88 7.708-6.693 7.708-10.74 0-4.047-2.738-7.861-7.71-10.74-5.172-2.997-11.969-4.496-18.765-4.496m0 30.915c-6.877 0-13.754-1.516-18.99-4.549C2.817 39.05 0 35.096 0 30.882c0-4.215 2.817-8.168 7.932-11.13 10.471-6.067 27.51-6.067 37.981 0 5.115 2.963 7.932 6.915 7.932 11.13 0 4.215-2.817 8.168-7.931 11.13-5.236 3.033-12.113 4.549-18.991 4.549" transform="translate(-1113 -310) translate(1113 308) translate(0 56.276)"/>
                        <path fill="#003AC2" d="M49.673 13.999c-1.072-1.007-2.359-1.958-3.865-2.83-2.35-1.361-5.03-2.413-7.89-3.161 5.495 3.495 5.328 8.91-.503 12.288-6.005 3.479-15.74 3.479-21.745 0-5.632-3.262-5.981-8.425-1.05-11.923-2.37.713-4.594 1.643-6.584 2.795-1.506.873-2.794 1.824-3.865 2.83H.214v8.11c0 3.959 2.608 7.918 7.823 10.939 10.43 6.042 27.341 6.042 37.772 0 5.214-3.02 7.822-6.98 7.822-10.939v-8.11h-3.958z" transform="translate(-1113 -310) translate(1113 308) translate(0 56.276)"/>
                        <path fill="#5351AF" d="M16.252 11.792c5.894-3.414 15.447-3.414 21.34 0 .956.553 1.754 1.163 2.4 1.81 3.336-3.343 2.537-7.69-2.4-10.55C31.7-.362 22.147-.362 16.253 3.05c-4.937 2.86-5.735 7.208-2.398 10.55.645-.646 1.443-1.256 2.398-1.81" transform="translate(-1113 -310) translate(1113 308) translate(0 56.276)"/>
                    </g>
                    <g transform="translate(-1113 -310) translate(1113 308) translate(0 59.397)">
                        <mask id="ecbie0anoc" fill="#fff">
                            <use xlink:href="#ncqxnbzyea"/>
                        </mask>
                        <path fill="url(#lqpieuftlb)" d="M37.414 12.45c-6.004 3.479-15.74 3.479-21.744 0C10.038 9.188 9.689 4.026 14.62.527c-2.37.712-4.595 1.643-6.584 2.795-1.506.873-2.793 1.824-3.864 2.83H.214v8.11c0 3.96 2.608 7.919 7.822 10.939 10.431 6.043 27.342 6.043 37.773 0 5.214-3.02 7.822-6.979 7.822-10.938v-8.11h-3.958c-1.072-1.007-2.359-1.958-3.865-2.83-2.35-1.361-5.03-2.413-7.89-3.16 5.495 3.495 5.328 8.91-.504 12.287" mask="url(#ecbie0anoc)"/>
                    </g>
                    <g>
                        <path fill="#0F054C" d="M19.06 3.323C16.71 1.96 14.028.91 11.168.163c5.495 3.495 5.328 8.91-.503 12.287C7.76 14.133 3.98 15 .174 15.053v14.68c6.835 0 13.67-1.51 18.886-4.532 5.215-3.02 7.822-6.98 7.822-10.938v-8.11h-3.958c-1.072-1.007-2.359-1.958-3.865-2.83" transform="translate(-1113 -310) translate(1113 308) translate(26.749 59.397)"/>
                        <g transform="translate(-1113 -310) translate(1113 308) translate(26.749 59.397)">
                            <mask id="w5pz5ri81f" fill="#fff">
                                <use xlink:href="#qf9qyb5r1d"/>
                            </mask>
                            <path fill="url(#75imel9zxe)" d="M19.06 3.323C16.71 1.962 14.029.91 11.17.163c5.494 3.494 5.327 8.91-.505 12.287C7.76 14.134 3.981 15 .174 15.054v14.679c6.835 0 13.67-1.51 18.886-4.531 5.214-3.021 7.822-6.98 7.822-10.94v-8.11h-3.958c-1.071-1.006-2.358-1.957-3.864-2.83" mask="url(#w5pz5ri81f)"/>
                        </g>
                    </g>
                    <g transform="translate(-1113 -310) translate(1113 308) translate(0 50.659)">
                        <mask id="7dm9bsl5ki" fill="#fff">
                            <use xlink:href="#lkm72baftg"/>
                        </mask>
                        <path fill="url(#z1bb7am21h)" d="M8.036 4.618c-10.43 6.042-10.43 15.838 0 21.88 10.431 6.04 27.342 6.041 37.773 0 10.43-6.042 10.43-15.838 0-21.88C40.592 1.598 33.756.088 26.921.087c-6.836 0-13.67 1.51-18.886 4.531m7.824 17.238c-6.005-3.478-6.005-9.118 0-12.595 6.005-3.479 15.74-3.479 21.745 0 6.004 3.477 6.004 9.117 0 12.595-3.003 1.74-6.938 2.608-10.872 2.608-3.935 0-7.87-.869-10.873-2.608" mask="url(#7dm9bsl5ki)"/>
                    </g>
                    <g fill="#FFF">
                        <path d="M45.809 20.046c-10.431 6.041-27.341 6.041-37.772 0C3.005 17.13.402 13.342.225 9.523c-.19 4.098 2.414 8.23 7.812 11.357 10.43 6.042 27.34 6.042 37.772 0 5.398-3.127 8.001-7.259 7.812-11.356-.178 3.819-2.78 7.607-7.812 10.522M37.605 2.808C31.6-.67 21.865-.67 15.86 2.808c-3.185 1.845-4.68 4.299-4.486 6.715.172-2.138 1.667-4.247 4.486-5.88 6.004-3.478 15.74-3.478 21.745 0 2.819 1.633 4.314 3.743 4.486 5.88.194-2.416-1.3-4.869-4.486-6.715" transform="translate(-1113 -310) translate(1113 308) translate(0 56.276)"/>
                    </g>
                    <g transform="translate(-1113 -310) translate(1113 308) translate(1.866 50.659)">
                        <mask id="wrvfpt2edl" fill="#fff">
                            <use xlink:href="#qpu5u0hlpj"/>
                        </mask>
                        <path fill="url(#0o3e4nzegk)" d="M7.57 4.61c-9.709 5.625-9.708 14.744.001 20.368 9.71 5.625 25.452 5.625 35.161 0 9.71-5.623 9.71-14.743 0-20.367C37.877 1.799 31.514.393 25.152.393 18.787.393 12.424 1.8 7.57 4.611m7.08 16.266c-5.798-3.359-5.799-8.805 0-12.165 5.8-3.359 15.203-3.359 21.003 0 5.798 3.36 5.798 8.806 0 12.165-2.9 1.68-6.7 2.52-10.501 2.52-3.8 0-7.602-.84-10.501-2.52" mask="url(#wrvfpt2edl)"/>
                    </g>
                    <g>
                        <path fill="#42E8E0" d="M37.518 71.027c-5.799 3.359-15.201 3.359-21.001 0-5.8-3.36-5.8-8.806 0-12.165 5.8-3.36 15.202-3.36 21.001 0 5.8 3.36 5.8 8.806 0 12.165" transform="translate(-1113 -310) translate(1113 308) translate(0 .51)"/>
                        <g fill="url(#rx1040mdgm)" transform="translate(-1113 -310) translate(1113 308) translate(0 .51) translate(11.82 .835)">
                            <path d="M30.035 65.44h.01V.986H.348v64.538h.005c-.027 1.843 1.419 3.69 4.345 5.096 5.8 2.786 15.202 2.786 21 0 2.973-1.428 4.41-3.31 4.337-5.182"/>
                        </g>
                        <path fill="#0079F1" d="M20.25 57.088c.512 0 .926.415.926.928 0 .513-.414.929-.925.929-.512 0-.926-.416-.926-.929 0-.513.414-.928.926-.928zm25.014-3.005c.782 0 1.417.637 1.417 1.422 0 .785-.635 1.422-1.417 1.422s-1.417-.637-1.417-1.422c0-.785.635-1.422 1.417-1.422zm.98-3.578c.586 0 1.062.477 1.062 1.065 0 .587-.476 1.064-1.062 1.064-.585 0-1.06-.477-1.06-1.064 0-.588.475-1.065 1.06-1.065zm3.012-.07c.373 0 .676.303.676.678 0 .374-.303.677-.676.677-.373 0-.675-.303-.675-.677 0-.375.302-.678.675-.678zm3.314-.748c.205.137.26.415.124.62-.137.205-.414.26-.618.124-.205-.137-.26-.415-.124-.62.137-.206.413-.261.618-.124zm.081-3.377c.35.235.446.71.212 1.062-.234.352-.708.447-1.058.212-.352-.234-.446-.71-.212-1.062.234-.352.708-.447 1.058-.212zm-16.207-1.315c.49 0 .888.398.888.89s-.398.89-.888.89-.887-.398-.887-.89.398-.89.887-.89zM22.248 34.283c.723 0 1.31.587 1.31 1.313 0 .725-.587 1.313-1.31 1.313-.723 0-1.31-.588-1.31-1.313 0-.726.587-1.313 1.31-1.313zm10.04-10.155c.53 0 .959.43.959.961 0 .531-.43.962-.96.962-.528 0-.957-.43-.957-.962 0-.531.429-.961.958-.961zm-31.754-1.6c.223.062.353.295.291.52-.063.223-.295.354-.518.291-.224-.063-.354-.295-.291-.52.063-.224.295-.355.518-.292zm2.494-.565c.302 0 .548.246.548.549 0 .303-.246.548-.548.548-.302 0-.547-.245-.547-.548 0-.303.245-.55.547-.55zm29.908-2.899c.782 0 1.417.637 1.417 1.422 0 .785-.635 1.422-1.417 1.422-.783 0-1.417-.637-1.417-1.422 0-.785.634-1.422 1.417-1.422zm-29.16.566c.47 0 .852.383.852.856 0 .472-.382.856-.852.856-.472 0-.854-.384-.854-.856 0-.473.382-.856.854-.856zm41.488-1.296c.782 0 1.417.636 1.417 1.421 0 .786-.635 1.422-1.417 1.422s-1.417-.636-1.417-1.422c0-.785.635-1.421 1.417-1.421zm-37.823-2.42c.782 0 1.417.636 1.417 1.421s-.635 1.422-1.417 1.422c-.783 0-1.417-.637-1.417-1.422 0-.785.634-1.421 1.417-1.421zm-4.32.772c.527 0 .955.428.955.957 0 .528-.428.956-.955.956-.527 0-.953-.428-.953-.956 0-.529.426-.957.953-.957zm43.523-1.826c.573 0 1.038.467 1.038 1.041 0 .575-.465 1.041-1.038 1.041s-1.038-.466-1.038-1.04c0-.575.465-1.042 1.038-1.042zm5.253-.52c.287 0 .519.233.519.52 0 .288-.232.52-.519.52-.286 0-.519-.232-.519-.52 0-.287.233-.52.519-.52zm-2.358-.44c.406 0 .734.33.734.736 0 .407-.328.737-.734.737-.405 0-.733-.33-.733-.737 0-.406.328-.735.733-.735zm3.544-.88c.149 0 .27.122.27.271 0 .15-.121.27-.27.27-.148 0-.269-.12-.269-.27 0-.15.12-.27.27-.27zM20.94 4.273c.49 0 .887.4.887.89 0 .493-.397.89-.887.89s-.888-.397-.888-.89c0-.49.398-.89.888-.89z" transform="translate(-1113 -310) translate(1113 308) translate(0 .51)"/>
                        <g>
                            <g transform="translate(-1113 -310) translate(1113 308) translate(0 .51) translate(0 16.448) translate(43.545 27.46)">
                                <mask id="sz1glnb4fo" fill="#fff">
                                    <use xlink:href="#rgsn4vuiwn"/>
                                </mask>
                                <path d="M.434.223L.428.226l-.194.09.12.253.195-.09C.62.45.65.365.62.295.594.242.543.212.49.212c-.018 0-.038.003-.056.01" mask="url(#sz1glnb4fo)"/>
                            </g>
                            <g transform="translate(-1113 -310) translate(1113 308) translate(0 .51) translate(0 16.448)">
                                <mask id="y4s3urffgq" fill="#fff">
                                    <use xlink:href="#oyik4rxamp"/>
                                </mask>
                                <path d="M44.094 27.94l-.121-.253-.581.266-.36.164-.953.397c-.318.131-.645.244-.967.366-.32.126-.652.225-.977.337-.325.114-.656.21-.986.308-.33.101-.662.196-.996.28-.665.183-1.337.335-2.01.482l-1.016.202-1.02.175c-.68.102-1.363.203-2.05.274-1.37.151-2.748.241-4.127.272l-.611.004-.611.005c-.205-.005-.408-.01-.612-.013l-.611-.012-.013-.001-1.125-.052-1.123-.08c-.374-.035-.747-.07-1.12-.107l-1.119-.136-1.113-.164c-.37-.055-.74-.13-1.109-.194-.737-.14-1.47-.298-2.2-.478-.366-.083-.725-.192-1.087-.287-.364-.092-.72-.213-1.08-.319-.716-.223-1.424-.47-2.124-.74-1.399-.54-2.762-1.177-4.06-1.926-.004-.002-.008-.004-.01-.007l-.747-.454c-.252-.146-.485-.321-.729-.48-.244-.159-.48-.33-.71-.506-.233-.175-.47-.345-.69-.536-.22-.189-.453-.363-.662-.565-.212-.2-.431-.39-.635-.597-.411-.412-.798-.844-1.163-1.296-.172-.233-.352-.461-.518-.699-.155-.245-.323-.481-.468-.732-.288-.503-.553-1.02-.76-1.56-.42-1.076-.654-2.227-.66-3.384.017-.288.013-.578.046-.865.04-.286.059-.575.13-.857.052-.284.115-.565.205-.841.072-.28.175-.55.28-.82.092-.275.23-.531.348-.795.119-.264.277-.509.412-.765.296-.498.629-.973.985-1.431l.563-.665c.195-.215.4-.42.6-.63.416-.406.845-.8 1.298-1.163.904-.734 1.87-1.386 2.875-1.976l.01-.006c.361-.19.722-.378 1.082-.566.363-.184.716-.39 1.087-.555.753-.31 1.491-.656 2.254-.938.774-.254 1.535-.548 2.319-.77.789-.203 1.569-.443 2.364-.615.8-.154 1.595-.34 2.398-.469.808-.11 1.613-.24 2.423-.33l2.436-.199L27.02.571l1.222.034 1.222.033c.812.067 1.625.133 2.437.198.809.091 1.614.222 2.422.332.804.129 1.598.314 2.398.469.796.172 1.576.412 2.364.615.784.223 1.545.516 2.319.77.763.283 1.502.628 2.254.94.732.353 1.445.748 2.168 1.12l.012.006c1.003.59 1.97 1.244 2.873 1.976.902.734 1.739 1.55 2.46 2.46.722.907 1.326 1.912 1.745 2.99.422 1.077.655 2.229.66 3.385 0 2.218-.877 4.368-2.218 6.121-1.345 1.767-3.09 3.202-4.986 4.357l-.545.332.14.243.552-.336c1.915-1.169 3.69-2.623 5.061-4.425 1.37-1.79 2.276-4.003 2.276-6.292-.005-1.193-.245-2.38-.679-3.487-.432-1.109-1.05-2.137-1.786-3.063-.736-.93-1.588-1.759-2.503-2.503-.916-.744-1.895-1.404-2.91-2.001l-.011-.007c-.731-.376-1.452-.774-2.191-1.132-.76-.313-1.506-.662-2.275-.947-.78-.257-1.547-.552-2.337-.777-.794-.205-1.58-.445-2.381-.62-.805-.155-1.605-.342-2.415-.472-.813-.11-1.623-.24-2.438-.333L29.478.358l-1.23-.034L27.02.29 24.56.358 22.11.557c-.815.09-1.625.223-2.437.332-.81.13-1.61.317-2.415.473-.802.173-1.588.415-2.382.619-.79.224-1.557.52-2.337.776-.77.285-1.516.634-2.275.948-.375.166-.731.374-1.098.559l-1.092.572-.012.007c-1.015.596-1.994 1.256-2.91 2-.46.37-.895.77-1.32 1.182-.202.214-.412.423-.61.642l-.573.678c-.364.467-.705.953-1.008 1.463-.14.262-.3.513-.422.784-.121.271-.263.533-.358.816-.107.277-.213.555-.288.844-.092.284-.157.574-.212.867-.071.29-.091.588-.132.883-.035.296-.031.595-.048.892.006 1.193.247 2.38.68 3.487.212.556.483 1.085.78 1.6.147.257.319.499.478.75.17.243.353.475.529.713.373.46.766.901 1.184 1.32.207.211.431.405.645.607.213.206.45.382.674.575.223.193.462.365.698.542.235.18.473.353.72.514.247.16.483.337.738.485l.755.46.01.006c1.313.757 2.689 1.4 4.1 1.946.706.272 1.42.52 2.142.746.363.106.721.227 1.088.321.365.095.727.205 1.096.288.733.182 1.473.341 2.215.482.372.064.742.14 1.116.195.374.055.746.118 1.12.166l1.125.137 1.128.108 1.13.08 1.131.052.014.001.614.012.616.012c.205 0 .41-.002.615-.004l.615-.004c1.388-.03 2.773-.12 4.153-.274.69-.071 1.377-.172 2.063-.276l1.026-.176 1.021-.204c.678-.147 1.356-.3 2.026-.484.336-.085.67-.18 1.003-.283.333-.098.666-.196.994-.31.329-.113.662-.213.986-.34.324-.123.653-.236.974-.369l.963-.401.362-.165.587-.268" mask="url(#y4s3urffgq)"/>
                            </g>
                            <g transform="translate(-1113 -310) translate(1113 308) translate(0 .51) translate(0 16.448) translate(45.41 26.213)">
                                <mask id="uywxxluu1s" fill="#fff">
                                    <use xlink:href="#1cc8x244gr"/>
                                </mask>
                                <path d="M.416.496L.41.5C.344.54.322.626.363.692c.04.065.122.087.187.05L.556.74.74.627.597.386l-.181.11z" mask="url(#uywxxluu1s)"/>
                            </g>
                        </g>
                        <g>
                            <g transform="translate(-1113 -310) translate(1113 308) translate(0 .51) translate(24.883 7.71) translate(18.662)">
                                <mask id="9sq5pg2kgu" fill="#fff">
                                    <use xlink:href="#1w55kqqf5t"/>
                                </mask>
                                <path d="M.434.672L.428.675.235.764l.118.254.196-.09L.56.924C.622.887.648.81.618.743.595.69.544.66.49.66.472.66.452.664.434.672" mask="url(#9sq5pg2kgu)"/>
                            </g>
                            <g transform="translate(-1113 -310) translate(1113 308) translate(0 .51) translate(24.883 7.71) translate(0 .624)">
                                <mask id="dz27544gpw" fill="#fff">
                                    <use xlink:href="#4uzh9imq2v"/>
                                </mask>
                                <path d="M19.211.305L19.09.05l-.581.265-.359.165-.954.396c-.318.132-.645.245-.966.367-.321.126-.652.225-.977.337-.326.113-.657.21-.987.308-.33.101-.66.196-.995.28-.664.183-1.337.335-2.011.482l-1.014.202-1.02.175c-.681.103-1.363.202-2.05.274-1.37.152-2.748.242-4.127.272l-.612.004-.613.004-.587-.011-.026-.001-.613-.012-.01.28.618.013h.025l.591.012.617-.004c.205 0 .41-.002.616-.004 1.387-.03 2.773-.121 4.152-.274.69-.072 1.378-.173 2.064-.276l1.026-.176 1.02-.203c.679-.148 1.356-.301 2.026-.485.336-.086.67-.18 1.002-.283.333-.098.667-.195.995-.31.329-.114.661-.213.985-.34.325-.123.654-.236.975-.369l.962-.4.362-.167.587-.267" mask="url(#dz27544gpw)"/>
                            </g>
                            <path d="M1.068 4.332c-.002.077.06.142.137.143h.009l.005-.28-.008-.001h-.004c-.076 0-.138.061-.139.138" transform="translate(-1113 -310) translate(1113 308) translate(0 .51) translate(24.883 7.71)"/>
                        </g>
                        <g>
                            <g transform="translate(-1113 -310) translate(1113 308) translate(0 .51) translate(0 4.59) translate(45.41 21.844)">
                                <mask id="c7htzwxkay" fill="#fff">
                                    <use xlink:href="#wxsk8px1sx"/>
                                </mask>
                                <path d="M.426.419l-.01.005-.189.099.138.245.19-.1.009-.005C.626.625.649.544.614.478.59.43.542.403.492.403.469.403.447.408.426.419" mask="url(#c7htzwxkay)"/>
                            </g>
                            <g transform="translate(-1113 -310) translate(1113 308) translate(0 .51) translate(0 4.59)">
                                <mask id="4tvzppj7gA" fill="#fff">
                                    <use xlink:href="#urmebm13yz"/>
                                </mask>
                                <path d="M45.966 22.511l-.14-.243-.566.296-.515.27c-.364.184-.716.39-1.088.555l-1.124.478c-.377.152-.742.338-1.13.46l-1.157.396c-.388.125-.765.283-1.163.376-.789.202-1.569.442-2.365.614l-1.198.243c-.4.074-.796.179-1.201.227-.808.108-1.613.24-2.423.33l-2.437.198-2.445.067-1.221-.034c-.408-.01-.815-.022-1.223-.033-.406-.023-.812-.065-1.218-.096l-1.218-.102c-.406-.035-.808-.108-1.211-.16l-1.21-.171c-.805-.13-1.599-.315-2.399-.47-.402-.068-.79-.2-1.184-.298-.394-.105-.787-.21-1.18-.317-.784-.222-1.545-.516-2.318-.77-.764-.283-1.502-.628-2.254-.94-.732-.353-1.446-.747-2.17-1.12l-.01-.007c-.249-.15-.497-.303-.746-.454-.252-.146-.485-.321-.729-.48-.484-.322-.948-.675-1.398-1.042-.903-.733-1.739-1.548-2.461-2.458-.721-.909-1.324-1.912-1.744-2.992-.421-1.077-.655-2.228-.66-3.383.007-1.157.24-2.308.662-3.386.42-1.078 1.026-2.083 1.748-2.991.722-.91 1.56-1.725 2.463-2.458.738-.6 1.517-1.15 2.33-1.643L8.21.64l-.14-.242-.551.335c-.824.498-1.613 1.056-2.362 1.665-.915.744-1.768 1.573-2.505 2.501-.737.926-1.356 1.955-1.79 3.063C.428 9.07.188 10.257.18 11.451c.005 1.192.246 2.38.678 3.486.432 1.109 1.051 2.137 1.787 3.064.737.928 1.588 1.758 2.503 2.502.457.372.928.73 1.418 1.056.246.16.483.337.737.485l.755.46c.003.002.007.005.011.006.73.377 1.451.776 2.19 1.133.76.313 1.506.662 2.275.947.78.257 1.548.552 2.337.777l1.188.32c.398.098.788.23 1.193.3.805.156 1.605.342 2.415.472l1.218.172c.406.053.81.127 1.219.161.409.034.817.07 1.226.103.408.032.816.074 1.226.096l1.229.035 1.23.034 2.46-.069 2.451-.198c.815-.092 1.626-.223 2.438-.333.408-.048.806-.154 1.21-.228l1.206-.244c.802-.174 1.588-.415 2.382-.62.4-.093.782-.253 1.172-.378l1.166-.399c.392-.123.76-.311 1.14-.464l1.135-.483c.376-.167.732-.375 1.098-.56l.522-.273.571-.3" mask="url(#4tvzppj7gA)"/>
                            </g>
                            <g transform="translate(-1113 -310) translate(1113 308) translate(0 .51) translate(0 4.59) translate(7.465)">
                                <mask id="g1megajs8C" fill="#fff">
                                    <use xlink:href="#xueg6f3z2B"/>
                                </mask>
                                <path d="M.61.394L.605.398C.543.434.48.472.42.509l.141.242.183-.11C.746.638.749.637.75.636.816.595.836.51.796.444.77.401.723.377.676.377.655.377.632.383.61.394" mask="url(#g1megajs8C)"/>
                            </g>
                        </g>
                        <g transform="translate(-1113 -310) translate(1113 308) translate(0 .51) translate(53.498 35.171)"/>
                    </g>
                </g>
                <g>
                    <path fill="#DD821F" d="M22.923 10.544L23.874 13.047 23.784 10.773 23.257 9.442z" transform="translate(-1113 -310) translate(1113 308) translate(15.686 23.459)"/>
                    <g>
                        <path fill="#FFD85A" d="M.09 13.16L0 10.927s1.88 1.883 1.882 1.928c0 .046-1.793.303-1.793.303" transform="translate(-1113 -310) translate(1113 308) translate(15.686 23.459) translate(0 .322)"/>
                        <path fill="#DD821F" d="M11.89 15.387L14.783 10.36 8.998 10.36zM11.735 16.399L8.041 9.979 6.24 8.949 11.734 18.496zM6.382 8.671L8.215 9.72 15.553 9.72 17.385 8.671zM15.746 9.968L12.045 16.399 12.045 18.497 17.546 8.937z" transform="translate(-1113 -310) translate(1113 308) translate(15.686 23.459) translate(0 .322)"/>
                        <path fill="#43A0FF" d="M12.145 19.776c6.567-.158 11.778-3.508 11.64-9.324C23.644 4.635 18.208.048 11.641.206 5.075.363-.136 5.206.002 11.023c.14 5.817 5.576 8.91 12.143 8.753" transform="translate(-1113 -310) translate(1113 308) translate(15.686 23.459) translate(0 .322)"/>
                        <path fill="#211FDD" d="M12.235 23.543c6.567-.158 11.778-5.001 11.639-10.818-.138-5.817-5.575-10.404-12.142-10.246-6.568.157-11.778 5-11.639 10.817.138 5.817 5.575 10.405 12.142 10.247" transform="translate(-1113 -310) translate(1113 308) translate(15.686 23.459) translate(0 .322)"/>
                        <g transform="translate(-1113 -310) translate(1113 308) translate(15.686 23.459) translate(0 .322) translate(3.65 5.233)">
                            <mask id="xdrnopskqF" fill="#fff">
                                <use xlink:href="#n6i6kfcmlE"/>
                            </mask>
                            <path fill="#211FDD" d="M16.632.19c2.157 1.85 3.523 4.425 3.591 7.303.14 5.816-5.072 10.66-11.64 10.817-3.248.078-6.218-1.006-8.409-2.825L16.632.19z" mask="url(#xdrnopskqF)"/>
                        </g>
                        <path fill="#3076F9" d="M12.223 23.073c6.275-.15 11.253-4.778 11.12-10.335-.132-5.557-5.326-9.94-11.6-9.79C5.469 3.1.491 7.728.623 13.285c.133 5.557 5.327 9.94 11.6 9.789" transform="translate(-1113 -310) translate(1113 308) translate(15.686 23.459) translate(0 .322)"/>
                        <path fill="#64A6FF" d="M12.176 21.088c5.037-.12 9.034-3.835 8.927-8.296-.106-4.461-4.275-7.98-9.312-7.859-5.037.121-9.034 3.836-8.927 8.297.106 4.46 4.275 7.98 9.312 7.858" transform="translate(-1113 -310) translate(1113 308) translate(15.686 23.459) translate(0 .322)"/>
                        <path fill="#0058FF" d="M2.864 13.23c-.005-.185 0-.368.01-.55.42 4.197 4.448 7.426 9.276 7.31 4.828-.117 8.697-3.535 8.916-7.747.02.181.033.364.038.548.106 4.462-3.89 8.176-8.928 8.297-5.037.122-9.206-3.397-9.312-7.858" transform="translate(-1113 -310) translate(1113 308) translate(15.686 23.459) translate(0 .322)"/>
                        <path fill="#211FDD" d="M12.268 5.9c-5.037.12-9.033 3.835-8.927 8.295.021.905.212 1.77.54 2.573-.621-1.06-.987-2.26-1.017-3.538-.107-4.461 3.89-8.176 8.926-8.297 4.017-.096 7.479 2.122 8.772 5.286-1.55-2.639-4.7-4.406-8.294-4.32" transform="translate(-1113 -310) translate(1113 308) translate(15.686 23.459) translate(0 .322)"/>
                        <path fill="#DD821F" d="M12.713 15.387L15.605 10.36 9.82 10.36zM12.557 16.399L8.863 9.979 7.063 8.949 12.557 18.496zM7.205 8.671L9.037 9.72 16.376 9.72 18.208 8.671zM16.569 9.968L12.868 16.399 12.867 18.497 18.369 8.937z" transform="translate(-1113 -310) translate(1113 308) translate(15.686 23.459) translate(0 .322)"/>
                        <path fill="#D5E5FF" d="M12.703 15.305L15.596 10.279 9.811 10.279zM12.548 16.317L8.854 9.898 7.053 8.867 12.547 18.415zM7.195 8.589L9.028 9.638 16.366 9.638 18.198 8.589zM16.559 9.887L12.858 16.317 12.858 18.416 18.359 8.856z" transform="translate(-1113 -310) translate(1113 308) translate(15.686 23.459) translate(0 .322)"/>
                        <g fill="#FFF" opacity=".18">
                            <path d="M3.975 6.89l1.87-1.739c1.802.41 5.16 1.177 7.841 1.809-.666 2.013-2.293 3.674-4.417 4.555L3.975 6.89zM6.919 12.131c-.298.036-.6.06-.906.067-2.202.053-4.217-.671-5.717-1.89L3.35 7.472l3.57 4.66zM7.852 3.286L11.376.011c1.185 1.04 2.245 2.184 2.53 3.714l-6.054-.439z" transform="translate(-1113 -310) translate(1113 308) translate(15.686 23.459) translate(0 .322) translate(6.259 6.802)"/>
                        </g>
                        <path fill="#211FDD" d="M23.784 10.452c.02.865.101 1.492-.101 2.302-.262-.853-.83-3.406-.83-3.406l-.906-2.029-.754-.623-1.276-.933-.106-2.926c2.376 1.867 3.9 4.571 3.973 7.615" transform="translate(-1113 -310) translate(1113 308) translate(15.686 23.459) translate(0 .322)"/>
                        <path fill="#006ED0" d="M.77 10.153l-.05-.6C.719 9.469.652 9.4.572 9.402l-.045.002c-.08.002-.143.073-.141.159l.05.6c.001.085.068.153.149.151h.045c.08-.003.144-.073.142-.16M1.815 7.856l-.06-1.078c-.003-.097-.08-.175-.17-.173l-.105.003c-.092.002-.164.083-.162.18l.062 1.079c.002.098.078.175.17.173l.104-.003c.092-.002.164-.083.161-.18M3.264 5.853l-.06-1.045c-.003-.11-.09-.198-.193-.196l-.182.005c-.103.002-.185.094-.183.205l.061 1.045c.003.11.09.198.192.195l.182-.004c.104-.002.185-.095.183-.205M5.432 4.236L5.366 2.97c-.003-.111-.089-.199-.192-.196l-.182.004c-.103.002-.185.094-.183.205l.067 1.266c.002.11.088.198.191.196l.182-.004c.104-.003.186-.095.183-.205M7.614 3.173l-.07-1.458c-.004-.111-.09-.199-.193-.196l-.182.004c-.104.003-.186.094-.183.205l.071 1.458c.003.111.089.199.192.196l.181-.004c.105-.002.186-.094.184-.205M9.805 2.525l-.07-1.402c-.002-.11-.088-.198-.191-.195L9.36.932c-.103.002-.184.094-.182.205l.07 1.402c.002.11.088.198.192.195l.181-.004c.104-.002.186-.094.183-.205M12.006 2.304l-.07-1.423c-.002-.111-.088-.198-.191-.196l-.182.004c-.104.003-.186.095-.183.206l.07 1.422c.002.111.089.199.192.196l.182-.004c.104-.002.185-.094.182-.205M14.214 2.351l-.067-1.333c-.003-.111-.089-.199-.192-.196l-.182.004c-.104.002-.186.094-.182.205l.067 1.334c.002.11.088.198.192.195l.182-.004c.104-.002.185-.094.182-.205M16.433 2.836l-.067-1.291c-.002-.111-.089-.199-.192-.197l-.182.005c-.103.002-.185.094-.182.205l.066 1.291c.003.111.089.199.192.196l.182-.004c.104-.002.185-.094.183-.205M18.666 3.923l-.07-1.397c-.002-.111-.088-.199-.192-.197l-.182.005c-.103.002-.185.094-.182.205l.07 1.398c.002.11.088.198.191.196l.182-.005c.103-.002.185-.094.183-.205" transform="translate(-1113 -310) translate(1113 308) translate(15.686 23.459) translate(0 .322)"/>
                    </g>
                </g>
            </g>
        </g>
    </g>
</svg>
