<svg xmlns="http://www.w3.org/2000/svg" width="25" height="20" fill-rule="evenodd" xmlns:v="https://vecta.io/nano"><path fill="#283030" d="M13.019 19.988h.496v-.994h-.496z"/><path fill="#181f1f" d="M10.538 18.994h.496v-.993h-.496z"/><path fill="#000" d="M15.499 13.033h.497v-.993h-.497zm-5.458 0h.497v-.993h-.497z"/><path fill="#101010" d="M2.599 11.046h.496v-.993h-.496z"/><path fill="#cbfbff" d="M16.492 8.066h.496v-.993h-.496zm-1.985-.993h.496v-.994h-.496z"/><path fill="#91efff" d="M9.049 7.073h.496v-.994h-.496zm.496-.994h.496v-.993h-.496z"/><path fill="#000" d="M3.591 5.086h.497v-.994h-.497z"/><path fill="#8ee5ff" d="M17.98 4.092h.496v-.993h-.496z"/><path fill="#cbfbff" d="M13.019 4.092h.496v-.993h-.496z"/><path fill="#000" d="M10.538 4.092h.496v-.993h-.496zm.992-.993h.496v-.994h-.496z"/><g fill="#009cfe"><path d="M11.034 16.014h-.496v-.994h-.497v-.993-.994h-.496v-.993h-.496v-.993-.994h-.496V9.06h-.496-.496-.496-.497-.496-.496-.496-.496-.496-.497-.496-.496-.496-.496v.993h.496.496.496v.994h.496.497v.993h.496.496v.993h.496.496v.994h.496.497v.993h.496.496.496v.994h.496.496v.993h.496.497v.994h.496.496v-.994h-.496zm2.977 0v-.994-.993h.496v-.994h.496v-.993h.496v-.993h.497v-.994-.993h-.497-.496-.496-.496-.496-.497-.495-.497-.496-.496-.496-.497-.496v.993.994h.496v.993h.497v.993.994h.496v.993h.496v.994.993h.496v.994h.497.495v-.994h.497v-.993zm4.465-1.987h.496v-.994h-.496zm.993-.994h.496v-.993h-.496zm.992-.993h.496v-.994h-.496zm.992-.994h.496v-.993h-.496zm1.489-.993h.496V9.06h-.496z"/><path d="M19.965 9.06h-.496-.497-.496-.496-.496-.496v.993h-.496v.993h-.496v.994.993h-.497v.994h-.496v.993h-.496v.994h-.496v.993h-.496v.994h.496.496v-.994h.496.496v-.993h.497.496v-.994h.496.496v-.993-.994h.496.496v-.993h.496v-.994h.497.496v-.993h.496.496V9.06h-.496zm-5.954-5.961h.496v.993h.496v.994h.496v.993h.497v.994h.496.496v-.994-.993h.496v-.994-.993-.994h.496v-.993h-.496-.496-.496-.496-.497-.496-.496-.496-.496v.993h.496zm-6.45 0v.993h.496v.994h.496v.993.994h.496v-.994h.496v-.993h.496v-.994h.497v-.993h.496v-.994h.496v-.993h-.496-.496-.497-.496-.496-.496-.496-.496-.497v.993h.497z"/><path d="M17.98 14.027h.496v-.994h-.496z"/></g><path fill="#8ee5ff" d="M21.949 9.06h-.496-.496v.993h.496.496.497.496V9.06h-.496z"/><path fill="#91efff" d="M8.553 8.066h.496v-.993h-.496z"/><path fill="#8ee5ff" d="M19.965 6.079v-.993h-.496v-.994-.993h-.497v-.994-.993h-.496v.993.994.993h-.496v.994.993h-.496v.994.993h.496.496.496.497.496.496v-.993h-.496zm-4.466 0h-.496v.994.993h.496.497v-.993h-.497zm-7.938 0v-.993h-.497v-.994-.993h-.496v-.994-.993h-.496v.993h-.496v.994H5.08h-.496v.993h-.496v.994h-.497-.496v.993h-.496v.994h-.496-.496v.993h.496.496.496.496.497.496.496.496.496.496.496.497.496v-.993h-.496zm6.946-.993h-.496v.993h.496.496v-.993z"/><path fill="#91efff" d="M8.057 6.079h.496v-.993h-.496z"/><path fill="#8ee5ff" d="M13.515 5.086h.496v-.994h-.496zm-1.489-2.981v.994h-.496v.993h-.496v.994h-.496v.993h-.497v.993h-.496v.994h.496.497.496.496.496.496v-.994-.993-.993-.994-.993h.496v-.994h-.496z"/><g fill="#000"><path d="M6.568 14.027h-.496v-.994h-.496-.496v.994h.496.496v.993h.496.496v-.993zm6.451-11.922v.994h.496v.993h.496v.994h.496.496v-.994h-.496v-.993h-.496v-.994h-.496 0zm2.48 15.896v-.994h-.496-.496v.994h.496zm-2.48-.994v.994h-.496-.497v-.994h-.496v.994h-.496v.993h.496v.994h.496.497.496v-.994h.496.496.496v-.993h-.496-.496v-.994zm-3.474 0v.994h.496.497v-.994h-.497zm6.947 0v-.993h-.496-.497v.993h.497zm-2.977 0h.496v-.993h-.496zm-4.466-.993h-.496v.993h.496.496v-.993zm8.435 0v-.994h.496.496v-.993h-.496-.496v.993h-.496-.496v.994h.496zm-5.954-.994h-.496v-.993h-.496v-.994h-.497v.994.993h.497v.994h.496v.993h.496v-.993zm-3.473 0h-.496v.994h.496.496v-.994zm10.915-1.987v.994h.497.496v-.994h-.496zm.993-.993v.993h.496.496v-.993h-.496zm-4.962.993h-.496v.994h-.496v.993.994h.496v-.994h.496v-.993h.496v-.994-.993h-.496zM4.584 12.04h-.496v.993h.496.496v-.993zm16.373-.993v.993h.496.496v-.993h-.496zm-5.458.993h.497v-.994h-.497zm-5.458-.993h-.496-.496v.993h.496v.993h.496v-.993zm-6.45 0h-.496v.993h.496.497v-.993zm18.358-.994v.994h.497.496v-.994h-.496z"/><path d="M6.072.118v.994h.496v1.987h.497v1.987h.496v1.986h.496v.994h-6.45v-.994H1.11v.994H.118v.994h.496v.993h.993v.994h.992v-.994h-.992V9.06h6.946v.993h.496v.994h.496V9.06H9.05h6.946v1.987h.496v-.994h.496V9.06h6.45v.993h.496V9.06h.992v-.994h-.992v-.994h-.496V6.08h-.992v.993h.496v.994h-5.458V6.079h.496v-2.98h.496V1.112h.496V.118h-12.9zm5.954 1.987h1.489v-.993h4.465v.993h-.496v2.981h-.496v2.98h-.496v-.994h-.496v.994H9.545v-.994H9.05v.994h-.496V6.079h-.496V4.092H7.56V2.105h-.496v-.993h4.465v.993h.496z"/><path d="M15.499 7.073h.497v-.994h-.497zm-5.954 0h.496v-.994h-.496zm-6.946-.001v-.993h.496v-.993h-.496-.496v.993h-.496v.993h.496zm12.404-.993h.496v-.993h-.496zm6.45-.993v.993h.496.497v-.993h-.497v-.994h-.496-.496v.994zm-11.412-.994v.994.993h.497v-.993h.496v-.994h-.496zm-6.45 0h.497.496v-.993h-.496-.497v.993h-.496v.994h.496zm7.443-.993v.993h.496v-.993-.994h-.496zm-5.458 0v-.994H5.08h0-.496v.994h.496zm13.893-.994v.994h.496v.993h.496.496v-.993h-.496v-.994h-.496v-.993h-.496-.497v.993zm-13.397 0v-.993h-.496-.496v.993h.496z"/></g><path fill="#fefefe" d="M17.484 14.027h.496v-.994h-.496zm2.977-3.974h-.496v.994h-.496-.497v.993h-.496v.993h.496.497v-.993h.496.496v-.993h.496.496v-.994h-.496zm-5.954-3.974h-.496v-.993h-.496v-.994h-.496v-.993h-.496v.993.994.993.994.993h.496.496.496.496.496v-.993h-.496zm7.939.993v-.993h-.497-.496v-.993h-.496v-.994h-.496-.496v-.993h-.496v.993.994h.496v.993.993h.496v.994h.496.496.496.497.496v-.994zm-3.474-3.973h.497v-.994h-.497z"/></svg>