<svg xmlns="http://www.w3.org/2000/svg" width="15" height="20" xmlns:v="https://vecta.io/nano"><path d="M9.687 0a.57.57 0 0 1 .403.167l4.558 4.558c.102.102.167.248.167.403V17.74c0 .942-.767 1.71-1.71 1.71H1.71c-.943 0-1.71-.769-1.71-1.71V1.71A1.71 1.71 0 0 1 1.71 0zm-.57 1.14H1.709a.57.57 0 0 0-.57.57v16.03a.57.57 0 0 0 .57.57h11.396a.57.57 0 0 0 .57-.57V5.698h-2.849c-.942 0-1.71-.767-1.71-1.71V1.14zm-.57 13.75a.57.57 0 1 1 0 1.14H3.989a.57.57 0 1 1 0-1.14zm2.28-2.278a.57.57 0 0 1-.001 1.14H3.99a.57.57 0 1 1 0-1.14zm0-2.28a.57.57 0 0 1-.001 1.14H3.99a.57.57 0 1 1 0-1.14zm0-2.279a.57.57 0 0 1-.001 1.14H3.99a.57.57 0 1 1 0-1.14zm-.57-6.108V3.99a.57.57 0 0 0 .57.57h2.042l-2.613-2.614z" fill="#8f929a"/></svg>