<svg xmlns="http://www.w3.org/2000/svg" width="16" height="10" xmlns:v="https://vecta.io/nano"><path d="M4.556 5.636c-.013.708.537 1.286 1.237 1.3.69.014 1.271-.561 1.276-1.264s-.557-1.277-1.273-1.294c-.66-.016-1.228.56-1.24 1.258m6.935.043c.015-.692-.537-1.29-1.198-1.301-.719-.012-1.299.549-1.313 1.27a1.27 1.27 0 0 0 1.232 1.286c.696.016 1.263-.54 1.279-1.255m1.242-3.965C11.876 1.05 10.896.651 9.868.343c.08-.152.193-.187.348-.173 1.143.097 2.174.495 3.112 1.145a.52.52 0 0 1 .153.173c.8 1.496 1.342 3.08 1.587 4.759.082.561.105 1.132.143 1.699.005.075-.043.172-.097.23-.961 1.015-2.164 1.49-3.541 1.574-.133.008-.224-.022-.31-.131l-.67-.818c.828-.257 1.556-.622 2.111-1.27-3.122 1.753-6.239 1.752-9.36 0 .553.647 1.28 1.014 2.115 1.269l-.772.916c-.03.034-.11.034-.167.032-1.413-.069-2.64-.56-3.62-1.604a.32.32 0 0 1-.067-.207c.014-1.343.26-2.646.666-3.922a14 14 0 0 1 1.02-2.439.95.95 0 0 1 .283-.315C3.715.641 4.719.267 5.823.171c.155-.014.273.017.359.17-1.029.31-2.012.71-2.871 1.375C4.813 1.043 6.382.644 8.03.647c1.642.002 3.206.396 4.703 1.068" fill="#60636a" fill-rule="evenodd"/></svg>