<svg xmlns="http://www.w3.org/2000/svg" xmlns:xlink="http://www.w3.org/1999/xlink" width="20" height="20" xmlns:v="https://vecta.io/nano"><defs><path id="A" d="M0 0h19.967v19.966H0z"/></defs><g fill-rule="evenodd"><mask id="B" fill="#fff"><use xlink:href="#A"/></mask><path fill="#8f929a" d="M16.837 4.061l.487-.482c.238-.27.214-.667-.04-.913a.66.66 0 0 0-.899-.023c-.174.154-.331.326-.484.479l.936.94zm-3.068 8.23c.107.178.259.25.479.238.33-.019.663.002.994-.008.08-.003.18-.04.235-.096L18.702 9.2c.056-.055.089-.156.09-.236l.01-.994c.013-.225-.071-.37-.24-.471l-4.793 4.792zm-6.093-6.09L12.47 1.41c-.103-.164-.24-.26-.468-.244-.31.022-.624.012-.935.002a.44.44 0 0 0-.358.144L7.662 4.356c-.166.164-.246.325-.226.56.021.265.022.534 0 .798-.016.222.058.374.241.488zM2.95 18.797c.282-.014.482.027.665-.2l5.028-6.18c.23-.285.47-.461.853-.489.515-.037.94-.453 1.064-.95.031-.124.012-.216-.087-.311L9.302 9.496c-.102-.105-.2-.122-.33-.087-.516.137-.906.572-.948 1.133-.024.316-.16.523-.397.715l-5.942 4.828c-.4.32-.603.639-.511 1.133.016.088.048.188.107.25l1.026 1.04c.199.217.402.36.643.289zm9.955-7.392l4.766-4.764-4.332-4.333-4.763 4.761 4.329 4.336zm7.062-1.892l-.391.473-3.428 3.436a.86.86 0 0 1-.674.277l-1.637-.001c-.24.004-.423-.08-.589-.247l-1.57-1.572-.145-.137-.245.378c-.39.523-.909.839-1.546.972-.091.02-.192.078-.25.15l-5.24 6.413c-.175.214-.375.32-.653.31-.39-.012-.78-.006-1.17 0-.207.002-.377-.065-.523-.213L.211 18.057c-.142-.14-.213-.304-.211-.504v-1.267c-.002-.218.084-.386.251-.523l6.417-5.235c.122-.099.196-.202.227-.36.158-.783.618-1.342 1.334-1.73l-.143-.15-1.572-1.57c-.17-.166-.25-.35-.247-.588V4.415c-.001-.216.071-.388.223-.54L10.145.226c.09-.088.204-.151.307-.226h2.184c.146.114.306.215.437.344l1.85 1.844.158.147.51-.549a1.83 1.83 0 0 1 1.997-.31c1.128.52 1.428 1.98.594 2.9l-.53.545 1.97 1.972c.13.131.231.29.345.437v2.183z" mask="url(#B)"/></g></svg>