<svg xmlns="http://www.w3.org/2000/svg" width="14" height="14" xmlns:v="https://vecta.io/nano"><path d="M7 0C3.133 0 0 3.08 0 6.879c0 3.04 2.006 5.617 4.786 6.526.35.065.479-.148.479-.33l-.01-1.17c-1.946.414-2.357-.923-2.357-.923-.319-.794-.779-1.006-.779-1.006-.634-.427.05-.418.05-.418.702.048 1.071.709 1.071.709.625 1.051 1.639.748 2.04.572.062-.445.242-.748.442-.92-1.554-.172-3.188-.764-3.188-3.4 0-.75.271-1.364.72-1.845-.078-.174-.315-.873.062-1.82 0 0 .586-.185 1.925.705.56-.153 1.155-.229 1.75-.232a6.85 6.85 0 0 1 1.75.232c1.33-.89 1.916-.705 1.916-.705.376.947.14 1.646.07 1.82a2.64 2.64 0 0 1 .717 1.846c0 2.642-1.636 3.224-3.193 3.393.245.207.472.628.472 1.273l-.009 1.884c0 .18.123.395.482.326C11.996 12.493 14 9.914 14 6.879 14 3.08 10.866 0 7 0z" fill="#60636a"/></svg>