<svg xmlns="http://www.w3.org/2000/svg" width="20" height="20" xmlns:v="https://vecta.io/nano"><path d="M13.413 0c.324 0 .586.262.586.586V2.93c0 .323-.262.586-.586.586h-2.827V5l9.034 3.385c.228.086.38.304.38.548v1.954c0 .323-.262.586-.586.586h-.608v7.941c0 .324-.262.586-.586.586H1.78c-.324 0-.586-.262-.586-.586v-7.941H.586c-.324 0-.586-.263-.586-.586V8.933c0-.244.152-.462.38-.548L9.414 5V.586C9.414.262 9.676 0 10 0zM5.286 13.816a.59.59 0 0 0-.591.586v4.426h1.177v-4.426c0-.323-.263-.586-.586-.586zm4.697-.793c-.328 0-.59.263-.59.586v5.22h1.176v-5.22c0-.323-.263-.586-.586-.586zm4.736.793c-.328 0-.59.263-.59.586v4.426h1.176v-4.426c0-.323-.263-.586-.586-.586zM10 6.032L1.172 9.34v.96h5.682c.323 0 .586.263.586.587s-.263.586-.586.586H2.366v7.355h1.157v-4.426a1.76 1.76 0 1 1 3.52 0v4.426H8.22V13.61a1.76 1.76 0 1 1 3.521 0v5.22h1.216v-4.427a1.76 1.76 0 0 1 3.52 0v4.426h1.157v-7.355h-4.527c-.324 0-.586-.263-.586-.586s.262-.586.586-.586h5.721V9.34L10 6.032zm-.02 1.132a1.76 1.76 0 0 1 1.76 1.758 1.76 1.76 0 0 1-3.52 0 1.76 1.76 0 0 1 1.76-1.758zm0 1.172a.59.59 0 0 0-.588.586.59.59 0 0 0 .588.586.59.59 0 0 0 .589-.586.59.59 0 0 0-.589-.586zm2.847-7.164h-2.241v1.172h2.241V1.172z" fill="#8f929a"/></svg>