<svg xmlns="http://www.w3.org/2000/svg" xmlns:xlink="http://www.w3.org/1999/xlink" width="19" height="20"><defs><path id="prefix__a" d="M.001 0h18.834v19.75H.001z"/></defs><g fill="none" fill-rule="evenodd"><mask id="prefix__b" fill="#fff"><use xlink:href="#prefix__a"/></mask><path fill="#8F929A" d="M10.752 12.992H8.123a2.083 2.083 0 00-2.071 2.071l.003 2.61a.843.843 0 00-.02.177.343.343 0 01-.346.336h-1.75c-1.31 0-2.376-1.05-2.376-2.343V7.928c.004-.44.217-.852.583-1.13l5.952-4.776c.77-.61 1.843-.61 2.612-.002l5.995 4.781c.356.272.563.677.568 1.11v7.932c0 1.292-1.067 2.343-2.375 2.343h-1.732a.33.33 0 01-.33-.326v-2.797a2.08 2.08 0 00-2.085-2.07m6.917-7.423L11.684.797A3.656 3.656 0 007.122.8L1.184 5.566A2.968 2.968 0 00.001 7.921v7.922c0 2.154 1.767 3.907 3.938 3.907h1.75c.976 0 1.792-.728 1.894-1.675a.774.774 0 00.032-.225v-2.787c0-.278.23-.507.512-.509h2.624c.289 0 .523.23.523.51v2.796c0 1.034.823 1.864 1.874 1.89h1.75c2.17 0 3.938-1.753 3.938-3.907V7.9a2.955 2.955 0 00-1.168-2.33" mask="url(#prefix__b)"/></g></svg>
