<svg xmlns="http://www.w3.org/2000/svg" xmlns:xlink="http://www.w3.org/1999/xlink" width="20" height="21"><defs><path id="prefix__a" d="M0 .027h17.324V7.54H0z"/><path id="prefix__c" d="M.034.04h16.551v12.815H.034z"/></defs><g fill="none" fill-rule="evenodd"><g transform="translate(0 13.135)"><mask id="prefix__b" fill="#fff"><use xlink:href="#prefix__a"/></mask><path fill="#8F929A" d="M.917 1.478c0-.023.02-.042.042-.042h1.57c.021 0 .042.021.042.042v4.59c0 .021-.02.043-.042.043H.96a.043.043 0 01-.042-.042v-4.59zm6.864.31l2.236-.83a.24.24 0 01.177.007c.05.024.087.065.106.116a.207.207 0 01-.01.16.213.213 0 01-.12.11c-.009.002-.016.006-.026.01l-1.73.645-.633-.219zm5.72-.422c.034.1.003.215-.078.283L10.52 2.732l-.742-.256 3.38-1.26a.282.282 0 01.212.008c.061.028.108.08.13.142zm-2.895 2.968l-.003.004a.393.393 0 01-.074.092c-.181.163-.522.174-.961.029l-2.532-.836a.458.458 0 00-.288.872l2.532.835c.294.097.573.146.829.146.521 0 .85-.199 1.035-.366a1.4 1.4 0 00.153-.164l4.356-1.621.015-.005c.237-.09.537-.111.668.1a.511.511 0 01.05.407c-.017.052-.051.12-.121.148l-3.589 1.46c-.57.233-2.009.781-2.908 1.059-.553.171-1.524.176-2.08.011l-1.8-.538c-1.036-.31-1.59-.415-2.4-.45V2.072c1.292-.443 1.684-.28 2.273-.034a668.68 668.68 0 004.606 1.611l.008.003.016.005c.188.058.247.239.264.313.029.13.011.26-.05.364zm5.09-2.004l-4.128 1.536a1.369 1.369 0 00-.166-.484l2.37-.883.049-.019 1.69-.63c.144-.05.294.017.343.152a.258.258 0 01-.158.328zm1.004.195c.108-.266.114-.557.018-.83a1.186 1.186 0 00-1.516-.709l-.784.292a1.165 1.165 0 00-.661-.886 1.195 1.195 0 00-.91-.04l-1.634.61a1.114 1.114 0 00-.625-.825 1.145 1.145 0 00-.885-.04L6.417 1.314a10.11 10.11 0 01-.303-.122C5.342.87 4.77.704 3.422 1.128a.967.967 0 00-.893-.609H.96a.96.96 0 00-.96.96v4.59c0 .529.43.959.96.959h1.57c.39 0 .74-.237.886-.596.755.03 1.223.119 2.21.414l1.8.538c.337.1.79.156 1.275.156.503 0 .99-.062 1.338-.17.924-.285 2.399-.847 2.983-1.085l3.589-1.46a1.13 1.13 0 00.648-.714c.123-.381.069-.83-.143-1.172a1.238 1.238 0 00-.416-.414z" mask="url(#prefix__b)"/></g><g transform="translate(3.413)"><mask id="prefix__d" fill="#fff"><use xlink:href="#prefix__c"/></mask><path fill="#8F929A" d="M6.378 9.164c.106-.35.28-.662.48-.858l1.52-1.497.027-.03c.31-.365.291-.672.22-.866-.115-.316-.429-.519-.933-.604a4.668 4.668 0 00-.758-.07c-.61 0-1.045.174-1.364.547a3.805 3.805 0 00-1.113-.387c.282-.378.867-.704 1.741-.97a12.727 12.727 0 011.94-.41c1.634-.194 2.06-.426 3.199-1.048l.26-.141 1.28 2.407c-.526.33-.879.678-1.173 1.154-.477.774-1.073 1.077-1.65 1.37a6.544 6.544 0 00-.817.465L6.814 9.925a.951.951 0 01-.151.074l-.016.005a.305.305 0 01-.165.017c-.053-.014-.106-.068-.153-.157-.05-.094-.056-.353.05-.7zm-.15-1.526l-.014.015c-.625.614-1.074 1.93-.694 2.642.156.293.357.45.523.535a2.85 2.85 0 01-2.991 1.009 2.822 2.822 0 01-1.72-1.327 2.817 2.817 0 01-.282-2.155 2.856 2.856 0 012.667-2.1l.071-.001a2.843 2.843 0 012.44 1.382zm.668-.658a3.763 3.763 0 00-.57-.658c.151-.131.45-.236 1.214-.108.043.007.08.015.111.023l-.755.743zm8.769-1.932a.04.04 0 01-.02.024l-1.38.735c-.02.01-.045.003-.055-.016l-2.148-4.04c-.01-.018-.001-.045.016-.055l1.383-.734a.031.031 0 01.017-.005c.004 0 .008 0 .013.002.01.004.019.01.024.02l2.146 4.036.002.004a.04.04 0 01.002.029zm.807-.461L14.325.549a.95.95 0 00-.566-.467.952.952 0 00-.73.07l-1.382.735a.955.955 0 00-.465 1.124l-.271.148-.015.008c-1.081.59-1.408.768-2.867.942l-.008.001c-1.362.179-3.752.675-4.46 1.99l-.139.257a3.822 3.822 0 00-1.933.771 3.716 3.716 0 00-1.324 1.99 3.76 3.76 0 003.63 4.736c1.408 0 2.721-.81 3.353-2.067a2.29 2.29 0 00.161-.09l.02-.014 2.435-1.706c.212-.149.451-.27.705-.399.658-.333 1.404-.711 2.016-1.705a2.53 2.53 0 01.824-.823l.09.171a.958.958 0 001.296.395l1.38-.734a.95.95 0 00.467-.566.952.952 0 00-.07-.73z" mask="url(#prefix__d)"/></g></g></svg>
