<svg xmlns="http://www.w3.org/2000/svg" xmlns:xlink="http://www.w3.org/1999/xlink" width="14" height="12"><defs><path id="prefix__a" d="M0 0h13.997v11.091H0z"/></defs><g fill="none" fill-rule="evenodd"><mask id="prefix__b" fill="#fff"><use xlink:href="#prefix__a"/></mask><path fill="#60636A" d="M7.525 11.091H5.632v-.016l-.99-3.627-1.295-4.745c-.04-.151-.082-.302-.124-.453-.002-.01-.008-.02-.014-.031l-.05.002c-.002.009-.005.014-.005.02l-.001 7.152.003.05.002.005.013.009H4.2v1.567l-.002.067H.011c-.002-.02-.007-.04-.007-.06V9.519l.003-.064h.504c.027 0 .056 0 .083-.006a.64.64 0 00.393-.267.353.353 0 00.068-.22V2.17a.385.385 0 00-.074-.241A1.43 1.43 0 00.84 1.77a.499.499 0 00-.373-.138c-.132.008-.264.002-.397.002H.004V.072C.003.048 0 .024 0 0h5.252l.006.021 1.697 6.317.023.078c.03.008.052.005.057-.028.001-.011.006-.022.009-.033l.376-1.388L8.59.647 8.768 0h5.23v1.636l-.55-.001a.325.325 0 00-.16.045.768.768 0 00-.292.285.372.372 0 00-.05.187l.001 4.972v1.837a.375.375 0 00.08.239.699.699 0 00.24.205.414.414 0 00.204.05h.526v1.636H8.992c-.003-.018-.008-.036-.008-.054v-1.53c0-.016.002-.032.004-.052h1.043V2.218l-.05.004-.017.058-.831 3.01-1.52 5.5-.088.3" mask="url(#prefix__b)"/></g></svg>
