<svg xmlns="http://www.w3.org/2000/svg" width="18" height="16"><path d="M9.007 0l7.57.001c.86 0 1.392.527 1.393 1.384.001 3.369 0 6.738-.001 10.108 0 .8-.547 1.344-1.35 1.345H10.92v1.284h.934c.114 0 .228-.003.341 0a.643.643 0 01.64.638.637.637 0 01-.633.643c-.421.008-.843.003-1.264.003l-5.113-.001c-.5 0-.827-.448-.643-.882.113-.266.324-.4.615-.402H7.06v-1.282H1.408c-.884-.001-1.407-.525-1.407-1.41L0 1.441C0 .514.513 0 1.437 0l15.14.001zm.733 12.854H8.234v1.255H9.74v-1.255zM16.792 1.18H1.175v10.486h15.617V1.18zm-2.535 3.04c.3 0 .542.243.542.542v3.032a.542.542 0 11-1.084 0V6.043l-2.96 2.133a.542.542 0 01-.591.029L7.538 6.672l-3.059 2.41a.538.538 0 01-.762-.09.543.543 0 01.09-.762l3.35-2.64a.543.543 0 01.608-.042l2.641 1.542 2.477-1.785h-1.839a.542.542 0 010-1.085z" fill="#8F929A" fill-rule="evenodd"/></svg>
