<svg xmlns="http://www.w3.org/2000/svg" xmlns:xlink="http://www.w3.org/1999/xlink" width="21" height="21"><defs><path id="prefix__a" d="M0 0h20.259v20.457H0z"/></defs><g fill="none" fill-rule="evenodd"><mask id="prefix__b" fill="#fff"><use xlink:href="#prefix__a"/></mask><path fill="#8F929A" d="M19.167 12.557v4.273l-3.7 2.138v-4.274l3.7-2.137zm-8.492 0l1.462.844c.064.06.141.106.224.13l2.014 1.163v4.274l-3.7-2.138v-4.273zm.545-.945l3.701-2.136 1.31.755-3.7 2.137-1.31-.756zm-.545-.945V6.394l3.7-2.137V8.53l-3.7 2.136zm7.947.945l-3.7 2.137-1.302-.751 3.702-2.136 1.3.75zM9.584 6.394v4.273l-3.7-2.136V4.257l1.46.844c.064.06.142.106.227.13l2.013 1.163zM6.43 3.312l3.7-2.136 1.31.755-3.7 2.137-1.31-.756zm7.401 0l-3.7 2.137-1.3-.751 3.7-2.136 1.3.75zm-4.246 9.245v4.273l-3.7 2.138v-4.274l3.7-2.137zm-4.792 2.137v4.274l-3.7-2.138v-4.273l1.461.844a.533.533 0 00.225.13l2.014 1.163zm-3.155-3.082l3.7-2.136 1.31.755-3.7 2.137-1.31-.756zm7.401 0l-3.7 2.137-1.3-.751 3.7-2.136 1.3.75zm11.215-.074a.642.642 0 00-.017-.083l-.02-.054-.01-.023v-.115h-.075l-.09-.086c-.01-.01-.023-.017-.036-.026l-4.538-2.62V3.3l-.006-.062a.868.868 0 00-.017-.082l-.02-.055a.65.65 0 00-.032-.066l-.048-.066c-.014-.02-.018-.021-.014-.014l-.08-.08-.038-.024-4.81-2.778a.549.549 0 00-.546 0L5.061 2.842a.497.497 0 00-.158.142.326.326 0 00-.038.056.69.69 0 00-.035.074l-.022.065-.006.034-.006.029a.698.698 0 00-.004.07V8.53L.304 11.12l-.098.063-.054.05a.602.602 0 00-.08.107.82.82 0 00-.033.07c-.006.017-.012.033-.02.062-.006.02-.01.042-.015.069-.002.02-.003.047 0 .032L0 17.144c0 .196.104.377.272.474l4.793 2.767.062.043h.034l.045.013a.644.644 0 00.066.012.75.75 0 00.113.002l.04-.005c.014-.003.03-.005.06-.013l.03-.01 4.614-2.652 4.52 2.61.061.043h.035l.042.012a.637.637 0 00.134.018.586.586 0 00.148-.021l.03-.01 4.886-2.81a.54.54 0 00.274-.472v-5.536a.392.392 0 00-.006-.071z" mask="url(#prefix__b)"/></g></svg>
