<svg xmlns="http://www.w3.org/2000/svg" width="14" height="11"><path d="M13.27 1.447a5.385 5.385 0 01-1.565.421A2.64 2.64 0 0012.901.369c-.54.32-1.115.54-1.727.657A2.62 2.62 0 009.187.167c-.752 0-1.394.265-1.924.796a2.623 2.623 0 00-.796 1.924c0 .202.022.41.067.623a7.584 7.584 0 01-3.128-.838A7.718 7.718 0 01.926.664a2.66 2.66 0 00-.37 1.372 2.726 2.726 0 001.212 2.265A2.694 2.694 0 01.54 3.957v.034c0 .657.206 1.233.619 1.73.412.497.933.81 1.562.94a2.9 2.9 0 01-1.23.05c.174.544.494.992.96 1.343.466.35.994.531 1.583.543A5.322 5.322 0 01.658 9.759c-.242 0-.46-.011-.657-.034a7.552 7.552 0 004.177 1.221c.965 0 1.872-.153 2.72-.459.847-.306 1.571-.715 2.172-1.23a8.222 8.222 0 001.553-1.772c.435-.668.76-1.365.973-2.092a7.736 7.736 0 00.312-2.539 5.698 5.698 0 001.364-1.406z" fill="#60636A" fill-rule="nonzero"/></svg>
