<svg xmlns="http://www.w3.org/2000/svg" width="20" height="23"><path d="M.759 14.846l2.886.08a.56.56 0 01.397.178c.105.11.16.254.156.406l-.008.271a4.933 4.933 0 014.256.144l.267.139c.341.176.724.275 1.108.285l2.631.073a2.532 2.532 0 012.056 1.161l2.68-1.266a2.04 2.04 0 012.696.823.572.572 0 01-.187.758l-6.491 4.198a.507.507 0 01-.072.04 5.018 5.018 0 01-2.11.46c-.35 0-.693-.035-1.029-.105l-.04-.01-4.474-1.256a1.08 1.08 0 00-.807.088l-.645.346-.005.184a.567.567 0 01-.57.553H3.44l-2.886-.08a.57.57 0 01-.553-.584L.175 15.4a.565.565 0 01.584-.554zm7.163 2.09a3.793 3.793 0 00-3.767.147l-.09 3.266.071-.038a2.202 2.202 0 011.653-.18l4.457 1.25a3.898 3.898 0 002.377-.262l5.865-3.794a.907.907 0 00-.794.011l-.016.007-2.785 1.316c.014.119.02.238.016.358a.566.566 0 01-.569.553h-.016l-4.326-.12a.569.569 0 01.016-1.137h.015l3.636.1a1.386 1.386 0 00-1.244-.854l-2.631-.072a3.747 3.747 0 01-1.6-.413zM1.296 16l-.143 5.195 1.749.048.143-5.195L1.296 16zm8.91-11.156a5.489 5.489 0 015.482 5.483 5.489 5.489 0 01-5.482 5.482 5.489 5.489 0 01-5.482-5.482l.004-.22a5.498 5.498 0 015.478-5.263zm0 1.138a4.357 4.357 0 00-4.345 4.345 4.35 4.35 0 004.345 4.344 4.35 4.35 0 004.344-4.344 4.35 4.35 0 00-4.344-4.345zm-.046.705a.57.57 0 01.57.57v.172a1.774 1.774 0 011.235 1.68.57.57 0 01-1.138-.001l-.007-.091a.621.621 0 10-.615.712c.905.001 1.657.68 1.75 1.579a1.753 1.753 0 01-1.226 1.86v.184a.57.57 0 11-1.138-.001v-.214a1.767 1.767 0 01-1.144-1.648.57.57 0 011.138 0c0 .308.226.568.528.614a.525.525 0 01.137.005.624.624 0 00.577-.63.624.624 0 00-.621-.61l-.154-.007c-.81-.071-1.48-.7-1.59-1.519a1.766 1.766 0 011.13-1.882v-.204a.57.57 0 01.568-.569zM10.206 0a.57.57 0 01.569.569v3.457a.57.57 0 11-1.138 0V.57a.57.57 0 01.569-.569zm2.73 1.82a.57.57 0 01.568.569v1.637a.57.57 0 01-1.138 0V2.39c0-.314.256-.57.57-.57zm-5.46 0a.57.57 0 01.57.569v1.637c0 .314-.256.57-.57.57a.57.57 0 01-.569-.57V2.39c0-.314.256-.57.57-.57z" fill="#8F929A" fill-rule="evenodd"/></svg>
