<svg xmlns="http://www.w3.org/2000/svg" width="20" height="20" viewBox="0 0 20 20">
    <g fill="none" fill-rule="evenodd">
        <g fill="#8F929A" fill-rule="nonzero">
            <g>
                <g>
                    <path d="M20 0H0v17.646h1.177V20h3.301l1.177-2.354h8.69L15.522 20h3.301v-2.354H20V0zM3.754 18.828H2.35v-1.182h1.996l-.59 1.182zm13.897 0h-1.405l-.59-1.182h1.995v1.182zm1.177-2.353H1.172V1.172h17.656v15.303z" transform="translate(-32 -348) translate(32 348)"/>
                    <path d="M17.646 2.354H2.354v12.939h15.292V2.353zM16.475 14.12H3.525V3.525h12.95v10.596z" transform="translate(-32 -348) translate(32 348)"/>
                    <path d="M10 12.94c2.27 0 4.116-1.847 4.116-4.117S12.27 4.707 10 4.707c-2.27 0-4.116 1.847-4.116 4.116 0 2.27 1.846 4.116 4.116 4.116zM7.114 9.41h1.224c.177.5.575.898 1.076 1.075v1.224c-1.154-.234-2.066-1.145-2.3-2.3zM10 8.231c.326 0 .59.265.59.591 0 .326-.264.591-.59.591-.326 0-.59-.265-.59-.59 0-.327.264-.592.59-.592zm.586 3.477v-1.224c.501-.177.899-.575 1.076-1.076h1.224c-.234 1.155-1.146 2.066-2.3 2.3zm2.3-3.472h-1.224c-.177-.5-.575-.899-1.076-1.076V5.938c1.154.234 2.066 1.145 2.3 2.3zm-3.472-2.3v1.224c-.501.177-.899.575-1.076 1.076H7.114c.234-1.154 1.146-2.065 2.3-2.3z" transform="translate(-32 -348) translate(32 348)"/>
                </g>
            </g>
        </g>
    </g>
</svg>
